<?xml version="1.0" encoding="us-ascii" standalone="no"?><svg xmlns="http://www.w3.org/2000/svg" xmlns:xlink="http://www.w3.org/1999/xlink" contentStyleType="text/css" height="824px" preserveAspectRatio="none" style="width:267px;height:824px;background:#FFFFFF;" version="1.1" viewBox="0 0 267 824" width="267px" zoomAndPan="magnify"><defs/><g><!--class Connect4--><g id="elem_Connect4"><rect codeLine="1" fill="#F1F1F1" height="48" id="Connect4" rx="2.5" ry="2.5" style="stroke:#181818;stroke-width:0.5;" width="101" x="83.5" y="7"/><ellipse cx="98.5" cy="23" fill="#ADD1B2" rx="11" ry="11" style="stroke:#181818;stroke-width:1.0;"/><path d="M100.8438,18.6719 C99.9063,18.2344 99.3125,18.0938 98.4375,18.0938 C95.8125,18.0938 93.8125,20.1719 93.8125,22.8906 L93.8125,24.0156 C93.8125,26.5938 95.9219,28.4844 98.8125,28.4844 C100.0313,28.4844 101.1875,28.1875 101.9375,27.6406 C102.5156,27.2344 102.8438,26.7813 102.8438,26.3906 C102.8438,25.9375 102.4531,25.5469 101.9844,25.5469 C101.7656,25.5469 101.5625,25.625 101.375,25.8125 C100.9219,26.2969 100.9219,26.2969 100.7344,26.3906 C100.3125,26.6563 99.625,26.7813 98.8594,26.7813 C96.8125,26.7813 95.5156,25.6875 95.5156,23.9844 L95.5156,22.8906 C95.5156,21.1094 96.7656,19.7969 98.5,19.7969 C99.0781,19.7969 99.6875,19.9531 100.1563,20.2031 C100.6406,20.4844 100.8125,20.7031 100.9063,21.1094 C100.9688,21.5156 101,21.6406 101.1406,21.7656 C101.2813,21.9063 101.5156,22.0156 101.7344,22.0156 C102,22.0156 102.2656,21.875 102.4375,21.6563 C102.5469,21.5 102.5781,21.3125 102.5781,20.8906 L102.5781,19.4688 C102.5781,19.0313 102.5625,18.9063 102.4688,18.75 C102.3125,18.4844 102.0313,18.3438 101.7344,18.3438 C101.4375,18.3438 101.2344,18.4375 101.0156,18.75 L100.8438,18.6719 Z " fill="#000000"/><text fill="#000000" font-family="sans-serif" font-size="14" lengthAdjust="spacing" textLength="69" x="112.5" y="27.8467">Connect4</text><line style="stroke:#181818;stroke-width:0.5;" x1="84.5" x2="183.5" y1="39" y2="39"/><line style="stroke:#181818;stroke-width:0.5;" x1="84.5" x2="183.5" y1="47" y2="47"/></g><!--class Board--><g id="elem_Board"><rect codeLine="2" fill="#F1F1F1" height="96.8906" id="Board" rx="2.5" ry="2.5" style="stroke:#181818;stroke-width:0.5;" width="105" x="151.5" y="347"/><ellipse cx="180.45" cy="363" fill="#ADD1B2" rx="11" ry="11" style="stroke:#181818;stroke-width:1.0;"/><path d="M182.7938,358.6719 C181.8563,358.2344 181.2625,358.0938 180.3875,358.0938 C177.7625,358.0938 175.7625,360.1719 175.7625,362.8906 L175.7625,364.0156 C175.7625,366.5938 177.8719,368.4844 180.7625,368.4844 C181.9813,368.4844 183.1375,368.1875 183.8875,367.6406 C184.4656,367.2344 184.7938,366.7813 184.7938,366.3906 C184.7938,365.9375 184.4031,365.5469 183.9344,365.5469 C183.7156,365.5469 183.5125,365.625 183.325,365.8125 C182.8719,366.2969 182.8719,366.2969 182.6844,366.3906 C182.2625,366.6563 181.575,366.7813 180.8094,366.7813 C178.7625,366.7813 177.4656,365.6875 177.4656,363.9844 L177.4656,362.8906 C177.4656,361.1094 178.7156,359.7969 180.45,359.7969 C181.0281,359.7969 181.6375,359.9531 182.1063,360.2031 C182.5906,360.4844 182.7625,360.7031 182.8563,361.1094 C182.9188,361.5156 182.95,361.6406 183.0906,361.7656 C183.2313,361.9063 183.4656,362.0156 183.6844,362.0156 C183.95,362.0156 184.2156,361.875 184.3875,361.6563 C184.4969,361.5 184.5281,361.3125 184.5281,360.8906 L184.5281,359.4688 C184.5281,359.0313 184.5125,358.9063 184.4188,358.75 C184.2625,358.4844 183.9813,358.3438 183.6844,358.3438 C183.3875,358.3438 183.1844,358.4375 182.9656,358.75 L182.7938,358.6719 Z " fill="#000000"/><text fill="#000000" font-family="sans-serif" font-size="14" lengthAdjust="spacing" textLength="42" x="197.55" y="367.8467">Board</text><line style="stroke:#181818;stroke-width:0.5;" x1="152.5" x2="255.5" y1="379" y2="379"/><rect fill="none" height="6" style="stroke:#C82930;stroke-width:1.0;" width="6" x="159.5" y="389.6484"/><text fill="#000000" font-family="sans-serif" font-size="14" lengthAdjust="spacing" textLength="79" x="171.5" y="395.9951">GRID:Array</text><line style="stroke:#181818;stroke-width:0.5;" x1="152.5" x2="255.5" y1="403.2969" y2="403.2969"/><text fill="#000000" font-family="sans-serif" font-size="14" lengthAdjust="spacing" textLength="65" x="157.5" y="420.292">getGrid()</text><text fill="#000000" font-family="sans-serif" font-size="14" lengthAdjust="spacing" textLength="80" x="157.5" y="436.5889">putToken()</text></g><!--class GameView--><g id="elem_GameView"><rect codeLine="7" fill="#F1F1F1" height="48" id="GameView" rx="2.5" ry="2.5" style="stroke:#181818;stroke-width:0.5;" width="108" x="80" y="115"/><ellipse cx="95" cy="131" fill="#ADD1B2" rx="11" ry="11" style="stroke:#181818;stroke-width:1.0;"/><path d="M97.3438,126.6719 C96.4063,126.2344 95.8125,126.0938 94.9375,126.0938 C92.3125,126.0938 90.3125,128.1719 90.3125,130.8906 L90.3125,132.0156 C90.3125,134.5938 92.4219,136.4844 95.3125,136.4844 C96.5313,136.4844 97.6875,136.1875 98.4375,135.6406 C99.0156,135.2344 99.3438,134.7813 99.3438,134.3906 C99.3438,133.9375 98.9531,133.5469 98.4844,133.5469 C98.2656,133.5469 98.0625,133.625 97.875,133.8125 C97.4219,134.2969 97.4219,134.2969 97.2344,134.3906 C96.8125,134.6563 96.125,134.7813 95.3594,134.7813 C93.3125,134.7813 92.0156,133.6875 92.0156,131.9844 L92.0156,130.8906 C92.0156,129.1094 93.2656,127.7969 95,127.7969 C95.5781,127.7969 96.1875,127.9531 96.6563,128.2031 C97.1406,128.4844 97.3125,128.7031 97.4063,129.1094 C97.4688,129.5156 97.5,129.6406 97.6406,129.7656 C97.7813,129.9063 98.0156,130.0156 98.2344,130.0156 C98.5,130.0156 98.7656,129.875 98.9375,129.6563 C99.0469,129.5 99.0781,129.3125 99.0781,128.8906 L99.0781,127.4688 C99.0781,127.0313 99.0625,126.9063 98.9688,126.75 C98.8125,126.4844 98.5313,126.3438 98.2344,126.3438 C97.9375,126.3438 97.7344,126.4375 97.5156,126.75 L97.3438,126.6719 Z " fill="#000000"/><text fill="#000000" font-family="sans-serif" font-size="14" lengthAdjust="spacing" textLength="76" x="109" y="135.8467">GameView</text><line style="stroke:#181818;stroke-width:0.5;" x1="81" x2="187" y1="147" y2="147"/><line style="stroke:#181818;stroke-width:0.5;" x1="81" x2="187" y1="155" y2="155"/></g><!--class PlayerView--><g id="elem_PlayerView"><rect codeLine="9" fill="#F1F1F1" height="48" id="PlayerView" rx="2.5" ry="2.5" style="stroke:#181818;stroke-width:0.5;" width="110" x="7" y="231"/><ellipse cx="22" cy="247" fill="#ADD1B2" rx="11" ry="11" style="stroke:#181818;stroke-width:1.0;"/><path d="M24.3438,242.6719 C23.4063,242.2344 22.8125,242.0938 21.9375,242.0938 C19.3125,242.0938 17.3125,244.1719 17.3125,246.8906 L17.3125,248.0156 C17.3125,250.5938 19.4219,252.4844 22.3125,252.4844 C23.5313,252.4844 24.6875,252.1875 25.4375,251.6406 C26.0156,251.2344 26.3438,250.7813 26.3438,250.3906 C26.3438,249.9375 25.9531,249.5469 25.4844,249.5469 C25.2656,249.5469 25.0625,249.625 24.875,249.8125 C24.4219,250.2969 24.4219,250.2969 24.2344,250.3906 C23.8125,250.6563 23.125,250.7813 22.3594,250.7813 C20.3125,250.7813 19.0156,249.6875 19.0156,247.9844 L19.0156,246.8906 C19.0156,245.1094 20.2656,243.7969 22,243.7969 C22.5781,243.7969 23.1875,243.9531 23.6563,244.2031 C24.1406,244.4844 24.3125,244.7031 24.4063,245.1094 C24.4688,245.5156 24.5,245.6406 24.6406,245.7656 C24.7813,245.9063 25.0156,246.0156 25.2344,246.0156 C25.5,246.0156 25.7656,245.875 25.9375,245.6563 C26.0469,245.5 26.0781,245.3125 26.0781,244.8906 L26.0781,243.4688 C26.0781,243.0313 26.0625,242.9063 25.9688,242.75 C25.8125,242.4844 25.5313,242.3438 25.2344,242.3438 C24.9375,242.3438 24.7344,242.4375 24.5156,242.75 L24.3438,242.6719 Z " fill="#000000"/><text fill="#000000" font-family="sans-serif" font-size="14" lengthAdjust="spacing" textLength="78" x="36" y="251.8467">PlayerView</text><line style="stroke:#181818;stroke-width:0.5;" x1="8" x2="116" y1="263" y2="263"/><line style="stroke:#181818;stroke-width:0.5;" x1="8" x2="116" y1="271" y2="271"/></g><!--class BoardView--><g id="elem_BoardView"><rect codeLine="11" fill="#F1F1F1" height="64.2969" id="BoardView" rx="2.5" ry="2.5" style="stroke:#181818;stroke-width:0.5;" width="108" x="152" y="223"/><ellipse cx="167" cy="239" fill="#ADD1B2" rx="11" ry="11" style="stroke:#181818;stroke-width:1.0;"/><path d="M169.3438,234.6719 C168.4063,234.2344 167.8125,234.0938 166.9375,234.0938 C164.3125,234.0938 162.3125,236.1719 162.3125,238.8906 L162.3125,240.0156 C162.3125,242.5938 164.4219,244.4844 167.3125,244.4844 C168.5313,244.4844 169.6875,244.1875 170.4375,243.6406 C171.0156,243.2344 171.3438,242.7813 171.3438,242.3906 C171.3438,241.9375 170.9531,241.5469 170.4844,241.5469 C170.2656,241.5469 170.0625,241.625 169.875,241.8125 C169.4219,242.2969 169.4219,242.2969 169.2344,242.3906 C168.8125,242.6563 168.125,242.7813 167.3594,242.7813 C165.3125,242.7813 164.0156,241.6875 164.0156,239.9844 L164.0156,238.8906 C164.0156,237.1094 165.2656,235.7969 167,235.7969 C167.5781,235.7969 168.1875,235.9531 168.6563,236.2031 C169.1406,236.4844 169.3125,236.7031 169.4063,237.1094 C169.4688,237.5156 169.5,237.6406 169.6406,237.7656 C169.7813,237.9063 170.0156,238.0156 170.2344,238.0156 C170.5,238.0156 170.7656,237.875 170.9375,237.6563 C171.0469,237.5 171.0781,237.3125 171.0781,236.8906 L171.0781,235.4688 C171.0781,235.0313 171.0625,234.9063 170.9688,234.75 C170.8125,234.4844 170.5313,234.3438 170.2344,234.3438 C169.9375,234.3438 169.7344,234.4375 169.5156,234.75 L169.3438,234.6719 Z " fill="#000000"/><text fill="#000000" font-family="sans-serif" font-size="14" lengthAdjust="spacing" textLength="76" x="181" y="243.8467">BoardView</text><line style="stroke:#181818;stroke-width:0.5;" x1="153" x2="259" y1="255" y2="255"/><line style="stroke:#181818;stroke-width:0.5;" x1="153" x2="259" y1="263" y2="263"/><text fill="#000000" font-family="sans-serif" font-size="14" lengthAdjust="spacing" textLength="46" x="158" y="279.9951">show()</text></g><!--class Player--><g id="elem_Player"><rect codeLine="14" fill="#F1F1F1" height="96.8906" id="Player" rx="2.5" ry="2.5" style="stroke:#181818;stroke-width:0.5;" width="92" x="28" y="504"/><ellipse cx="50.2" cy="520" fill="#ADD1B2" rx="11" ry="11" style="stroke:#181818;stroke-width:1.0;"/><path d="M52.5438,515.6719 C51.6063,515.2344 51.0125,515.0938 50.1375,515.0938 C47.5125,515.0938 45.5125,517.1719 45.5125,519.8906 L45.5125,521.0156 C45.5125,523.5938 47.6219,525.4844 50.5125,525.4844 C51.7313,525.4844 52.8875,525.1875 53.6375,524.6406 C54.2156,524.2344 54.5438,523.7813 54.5438,523.3906 C54.5438,522.9375 54.1531,522.5469 53.6844,522.5469 C53.4656,522.5469 53.2625,522.625 53.075,522.8125 C52.6219,523.2969 52.6219,523.2969 52.4344,523.3906 C52.0125,523.6563 51.325,523.7813 50.5594,523.7813 C48.5125,523.7813 47.2156,522.6875 47.2156,520.9844 L47.2156,519.8906 C47.2156,518.1094 48.4656,516.7969 50.2,516.7969 C50.7781,516.7969 51.3875,516.9531 51.8563,517.2031 C52.3406,517.4844 52.5125,517.7031 52.6063,518.1094 C52.6688,518.5156 52.7,518.6406 52.8406,518.7656 C52.9813,518.9063 53.2156,519.0156 53.4344,519.0156 C53.7,519.0156 53.9656,518.875 54.1375,518.6563 C54.2469,518.5 54.2781,518.3125 54.2781,517.8906 L54.2781,516.4688 C54.2781,516.0313 54.2625,515.9063 54.1688,515.75 C54.0125,515.4844 53.7313,515.3438 53.4344,515.3438 C53.1375,515.3438 52.9344,515.4375 52.7156,515.75 L52.5438,515.6719 Z " fill="#000000"/><text fill="#000000" font-family="sans-serif" font-size="14" lengthAdjust="spacing" textLength="44" x="65.8" y="524.8467">Player</text><line style="stroke:#181818;stroke-width:0.5;" x1="29" x2="119" y1="536" y2="536"/><rect fill="none" height="6" style="stroke:#C82930;stroke-width:1.0;" width="6" x="36" y="546.6484"/><text fill="#000000" font-family="sans-serif" font-size="14" lengthAdjust="spacing" textLength="36" x="48" y="552.9951">color</text><line style="stroke:#181818;stroke-width:0.5;" x1="29" x2="119" y1="560.2969" y2="560.2969"/><text fill="#000000" font-family="sans-serif" font-size="14" lengthAdjust="spacing" textLength="80" x="34" y="577.292">getToken()</text><text fill="#000000" font-family="sans-serif" font-size="14" lengthAdjust="spacing" textLength="73" x="34" y="593.5889">getColor()</text></g><!--class Cell--><g id="elem_Cell"><rect codeLine="19" fill="#F1F1F1" height="96.8906" id="Cell" rx="2.5" ry="2.5" style="stroke:#181818;stroke-width:0.5;" width="92" x="157" y="504"/><ellipse cx="186.85" cy="520" fill="#ADD1B2" rx="11" ry="11" style="stroke:#181818;stroke-width:1.0;"/><path d="M189.1938,515.6719 C188.2563,515.2344 187.6625,515.0938 186.7875,515.0938 C184.1625,515.0938 182.1625,517.1719 182.1625,519.8906 L182.1625,521.0156 C182.1625,523.5938 184.2719,525.4844 187.1625,525.4844 C188.3813,525.4844 189.5375,525.1875 190.2875,524.6406 C190.8656,524.2344 191.1938,523.7813 191.1938,523.3906 C191.1938,522.9375 190.8031,522.5469 190.3344,522.5469 C190.1156,522.5469 189.9125,522.625 189.725,522.8125 C189.2719,523.2969 189.2719,523.2969 189.0844,523.3906 C188.6625,523.6563 187.975,523.7813 187.2094,523.7813 C185.1625,523.7813 183.8656,522.6875 183.8656,520.9844 L183.8656,519.8906 C183.8656,518.1094 185.1156,516.7969 186.85,516.7969 C187.4281,516.7969 188.0375,516.9531 188.5063,517.2031 C188.9906,517.4844 189.1625,517.7031 189.2563,518.1094 C189.3188,518.5156 189.35,518.6406 189.4906,518.7656 C189.6313,518.9063 189.8656,519.0156 190.0844,519.0156 C190.35,519.0156 190.6156,518.875 190.7875,518.6563 C190.8969,518.5 190.9281,518.3125 190.9281,517.8906 L190.9281,516.4688 C190.9281,516.0313 190.9125,515.9063 190.8188,515.75 C190.6625,515.4844 190.3813,515.3438 190.0844,515.3438 C189.7875,515.3438 189.5844,515.4375 189.3656,515.75 L189.1938,515.6719 Z " fill="#000000"/><text fill="#000000" font-family="sans-serif" font-size="14" lengthAdjust="spacing" textLength="27" x="204.15" y="524.8467">Cell</text><line style="stroke:#181818;stroke-width:0.5;" x1="158" x2="248" y1="536" y2="536"/><rect fill="none" height="6" style="stroke:#C82930;stroke-width:1.0;" width="6" x="165" y="546.6484"/><text fill="#000000" font-family="sans-serif" font-size="14" lengthAdjust="spacing" textLength="43" x="177" y="552.9951">token</text><line style="stroke:#181818;stroke-width:0.5;" x1="158" x2="248" y1="560.2969" y2="560.2969"/><text fill="#000000" font-family="sans-serif" font-size="14" lengthAdjust="spacing" textLength="80" x="163" y="577.292">getToken()</text><text fill="#000000" font-family="sans-serif" font-size="14" lengthAdjust="spacing" textLength="78" x="163" y="593.5889">setToken()</text></g><!--class Token--><g id="elem_Token"><rect codeLine="24" fill="#F1F1F1" height="48" id="Token" rx="2.5" ry="2.5" style="stroke:#181818;stroke-width:0.5;" width="77" x="127.5" y="661"/><ellipse cx="142.5" cy="677" fill="#ADD1B2" rx="11" ry="11" style="stroke:#181818;stroke-width:1.0;"/><path d="M144.8438,672.6719 C143.9063,672.2344 143.3125,672.0938 142.4375,672.0938 C139.8125,672.0938 137.8125,674.1719 137.8125,676.8906 L137.8125,678.0156 C137.8125,680.5938 139.9219,682.4844 142.8125,682.4844 C144.0313,682.4844 145.1875,682.1875 145.9375,681.6406 C146.5156,681.2344 146.8438,680.7813 146.8438,680.3906 C146.8438,679.9375 146.4531,679.5469 145.9844,679.5469 C145.7656,679.5469 145.5625,679.625 145.375,679.8125 C144.9219,680.2969 144.9219,680.2969 144.7344,680.3906 C144.3125,680.6563 143.625,680.7813 142.8594,680.7813 C140.8125,680.7813 139.5156,679.6875 139.5156,677.9844 L139.5156,676.8906 C139.5156,675.1094 140.7656,673.7969 142.5,673.7969 C143.0781,673.7969 143.6875,673.9531 144.1563,674.2031 C144.6406,674.4844 144.8125,674.7031 144.9063,675.1094 C144.9688,675.5156 145,675.6406 145.1406,675.7656 C145.2813,675.9063 145.5156,676.0156 145.7344,676.0156 C146,676.0156 146.2656,675.875 146.4375,675.6563 C146.5469,675.5 146.5781,675.3125 146.5781,674.8906 L146.5781,673.4688 C146.5781,673.0313 146.5625,672.9063 146.4688,672.75 C146.3125,672.4844 146.0313,672.3438 145.7344,672.3438 C145.4375,672.3438 145.2344,672.4375 145.0156,672.75 L144.8438,672.6719 Z " fill="#000000"/><text fill="#000000" font-family="sans-serif" font-size="14" lengthAdjust="spacing" textLength="45" x="156.5" y="681.8467">Token</text><line style="stroke:#181818;stroke-width:0.5;" x1="128.5" x2="203.5" y1="693" y2="693"/><line style="stroke:#181818;stroke-width:0.5;" x1="128.5" x2="203.5" y1="701" y2="701"/></g><!--class Color--><g id="elem_Color"><rect codeLine="25" fill="#F1F1F1" height="48" id="Color" rx="2.5" ry="2.5" style="stroke:#181818;stroke-width:0.5;" width="70" x="85" y="769"/><ellipse cx="100" cy="785" fill="#EB937F" rx="11" ry="11" style="stroke:#181818;stroke-width:1.0;"/><path d="M98.7969,785.875 L100.25,785.875 L100.25,785.9844 C100.25,786.3906 100.2813,786.5469 100.3594,786.7031 C100.5156,786.9531 100.7969,787.1094 101.0938,787.1094 C101.3438,787.1094 101.6094,786.9688 101.7656,786.75 C101.8906,786.5938 101.9219,786.4375 101.9219,785.9844 L101.9219,784.0625 C101.9219,783.9063 101.9219,783.8594 101.9063,783.7031 C101.8438,783.2344 101.5313,782.9219 101.0781,782.9219 C100.8281,782.9219 100.5625,783.0625 100.3906,783.2813 C100.2813,783.4531 100.25,783.6094 100.25,784.0625 L100.25,784.1875 L98.7969,784.1875 L98.7969,781.7813 L102.7813,781.7813 L102.7813,782.6406 C102.7813,783.0469 102.8125,783.2188 102.8906,783.375 C103.0625,783.625 103.3438,783.7813 103.625,783.7813 C103.8906,783.7813 104.1563,783.6406 104.3281,783.4219 C104.4375,783.25 104.4688,783.1094 104.4688,782.6406 L104.4688,780.0938 L96.8438,780.0938 C96.4063,780.0938 96.2813,780.1094 96.125,780.2031 C95.875,780.3594 95.7188,780.6563 95.7188,780.9375 C95.7188,781.2188 95.8594,781.4688 96.0781,781.6406 C96.2344,781.75 96.4219,781.7813 96.8438,781.7813 L97.0938,781.7813 L97.0938,788.2969 L96.8438,788.2969 C96.4375,788.2969 96.2813,788.3125 96.125,788.4219 C95.875,788.5938 95.7188,788.8594 95.7188,789.1563 C95.7188,789.4219 95.8594,789.6719 96.0781,789.8281 C96.2188,789.9531 96.4531,790 96.8438,790 L104.8438,790 L104.8438,787.4219 C104.8438,786.9844 104.8125,786.8438 104.7344,786.6875 C104.5625,786.4375 104.2813,786.2813 104,786.2813 C103.7344,786.2813 103.4688,786.3906 103.2969,786.6406 C103.1875,786.7969 103.1563,786.9375 103.1563,787.4219 L103.1563,788.2969 L98.7969,788.2969 L98.7969,785.875 Z " fill="#000000"/><text fill="#000000" font-family="sans-serif" font-size="14" lengthAdjust="spacing" textLength="38" x="114" y="789.8467">Color</text><line style="stroke:#181818;stroke-width:0.5;" x1="86" x2="154" y1="801" y2="801"/><line style="stroke:#181818;stroke-width:0.5;" x1="86" x2="154" y1="809" y2="809"/></g><!--link Connect4 to GameView--><g id="link_Connect4_GameView"><path codeLine="28" d="M134,68.338 C134,79.006 134,90.677 134,101.364 " fill="none" id="Connect4-GameView" style="stroke:#181818;stroke-width:1.0;"/><polygon fill="#181818" points="134,55,130,61,134,67,138,61,134,55" style="stroke:#181818;stroke-width:1.0;"/><polygon fill="#181818" points="134,114.678,138,105.678,134,109.678,130,105.678,134,114.678" style="stroke:#181818;stroke-width:1.0;"/><line style="stroke:#181818;stroke-width:1.0;" x1="134" x2="134" y1="109.678" y2="101.678"/><text fill="#000000" font-family="sans-serif" font-size="13" lengthAdjust="spacing" textLength="8" x="125.025" y="104.0045">1</text></g><!--link GameView to PlayerView--><g id="link_GameView_PlayerView"><path codeLine="29" d="M112.399,174.201 C103.2555,188.679 92.6276,205.506 83.4951,219.966 " fill="none" id="GameView-PlayerView" style="stroke:#181818;stroke-width:1.0;"/><polygon fill="#181818" points="119.43,163.07,112.8439,166.0066,113.0215,173.2155,119.6076,170.2789,119.43,163.07" style="stroke:#181818;stroke-width:1.0;"/><polygon fill="#181818" points="76.5486,230.965,84.7363,225.4913,79.2184,226.7375,77.9723,221.2196,76.5486,230.965" style="stroke:#181818;stroke-width:1.0;"/><line style="stroke:#181818;stroke-width:1.0;" x1="79.2184" x2="83.4906" y1="226.7375" y2="219.9735"/><text fill="#000000" font-family="sans-serif" font-size="13" lengthAdjust="spacing" textLength="8" x="71.2517" y="219.9681">2</text></g><!--link GameView to BoardView--><g id="link_GameView_BoardView"><path codeLine="30" d="M155.627,174.242 C163.078,186.04 171.513,199.395 179.319,211.756 " fill="none" id="GameView-BoardView" style="stroke:#181818;stroke-width:1.0;"/><polygon fill="#181818" points="148.57,163.07,148.3924,170.2789,154.9785,173.2155,155.1561,166.0066,148.57,163.07" style="stroke:#181818;stroke-width:1.0;"/><polygon fill="#181818" points="186.266,222.755,184.8424,213.0096,183.5962,218.5275,178.0783,217.2813,186.266,222.755" style="stroke:#181818;stroke-width:1.0;"/><line style="stroke:#181818;stroke-width:1.0;" x1="183.5962" x2="179.324" y1="218.5275" y2="211.7635"/><text fill="#000000" font-family="sans-serif" font-size="13" lengthAdjust="spacing" textLength="8" x="173.5934" y="211.9809">1</text></g><!--link PlayerView to Player--><g id="link_PlayerView_Player"><path codeLine="31" d="M63.4734,292.283 C65.4815,341.732 69.105,430.96 71.5317,490.718 " fill="none" id="PlayerView-Player" style="stroke:#181818;stroke-width:1.0;"/><polygon fill="#181818" points="62.9416,279.187,59.1882,285.3443,63.4282,291.1771,67.1816,285.0199,62.9416,279.187" style="stroke:#181818;stroke-width:1.0;"/><polygon fill="#181818" points="72.0605,503.741,75.6923,494.5862,71.8578,498.7451,67.6988,494.9106,72.0605,503.741" style="stroke:#181818;stroke-width:1.0;"/><line style="stroke:#181818;stroke-width:1.0;" x1="71.8578" x2="71.533" y1="498.7451" y2="490.7515"/><text fill="#000000" font-family="sans-serif" font-size="13" lengthAdjust="spacing" textLength="8" x="63.2253" y="492.9135">1</text></g><!--link BoardView to Board--><g id="link_BoardView_Board"><path codeLine="32" d="M205.362,300.17 C205.207,310.883 205.039,322.521 204.876,333.847 " fill="none" id="BoardView-Board" style="stroke:#181818;stroke-width:1.0;"/><polygon fill="#181818" points="205.551,287.082,201.465,293.0238,205.3783,299.0808,209.4642,293.139,205.551,287.082" style="stroke:#181818;stroke-width:1.0;"/><polygon fill="#181818" points="204.687,346.926,208.8161,337.9845,204.759,341.9265,200.817,337.8693,204.687,346.926" style="stroke:#181818;stroke-width:1.0;"/><line style="stroke:#181818;stroke-width:1.0;" x1="204.759" x2="204.8745" y1="341.9265" y2="333.9275"/><text fill="#000000" font-family="sans-serif" font-size="13" lengthAdjust="spacing" textLength="8" x="196.2004" y="335.7748">1</text></g><!--link Token to Color--><g id="link_Token_Color"><path codeLine="33" d="M150.839,720.9353 C145.897,732.3249 140.405,744.9788 135.442,756.4155 " fill="none" id="Token-Color" style="stroke:#181818;stroke-width:1.0;"/><polygon fill="#181818" points="156.019,709,149.9611,712.9117,151.2419,720.0081,157.2998,716.0964,156.019,709" style="stroke:#181818;stroke-width:1.0;"/><polygon fill="#181818" points="130.121,768.6784,137.3732,762.0147,132.1115,764.0917,130.0344,758.8299,130.121,768.6784" style="stroke:#181818;stroke-width:1.0;"/><line style="stroke:#181818;stroke-width:1.0;" x1="132.1115" x2="135.296" y1="764.0917" y2="756.753"/></g><!--link Player to Token--><g id="link_Player_Token"><path codeLine="34" d="M115.549,612.437 C124.575,625.24 133.832,638.37 141.912,649.832 " fill="none" id="Player-Token" style="stroke:#181818;stroke-width:1.0;"/><polygon fill="none" points="107.735,601.352,107.9229,608.5607,114.6493,611.1597,114.4614,603.9511,107.735,601.352" style="stroke:#181818;stroke-width:1.0;"/><polygon fill="#181818" points="149.547,660.662,147.6302,651.0015,146.6659,656.5755,141.0919,655.6112,149.547,660.662" style="stroke:#181818;stroke-width:1.0;"/><line style="stroke:#181818;stroke-width:1.0;" x1="146.6659" x2="142.057" y1="656.5755" y2="650.037"/><text fill="#000000" font-family="sans-serif" font-size="13" lengthAdjust="spacing" textLength="32" x="109.6366" y="649.9846">0..21</text></g><!--link Player to Color--><g id="link_Player_Color"><path codeLine="35" d="M83.1982,601.191 C92.5827,649.847 106.8317,723.7253 114.558,763.782 " fill="none" id="Player-to-Color" style="stroke:#181818;stroke-width:1.0;stroke-dasharray:7.0,7.0;"/><polygon fill="#181818" points="115.558,768.9675,117.7812,759.3728,114.6111,764.058,109.926,760.8879,115.558,768.9675" style="stroke:#181818;stroke-width:1.0;"/></g><!--link Board to Cell--><g id="link_Board_Cell"><path codeLine="37" d="M203.606,457.513 C203.536,468.469 203.462,479.886 203.391,490.832 " fill="none" id="Board-Cell" style="stroke:#181818;stroke-width:1.0;"/><polygon fill="#181818" points="203.692,444.27,199.6532,450.2439,203.6142,456.2697,207.653,450.2958,203.692,444.27" style="stroke:#181818;stroke-width:1.0;"/><polygon fill="#181818" points="203.307,503.888,207.3653,494.9141,203.3394,498.8881,199.3654,494.8623,203.307,503.888" style="stroke:#181818;stroke-width:1.0;"/><line style="stroke:#181818;stroke-width:1.0;" x1="203.3394" x2="203.391" y1="498.8881" y2="490.8885"/><text fill="#000000" font-family="sans-serif" font-size="13" lengthAdjust="spacing" textLength="40" x="160.5377" y="493.0812">0..6x7</text></g><!--link Cell to Token--><g id="link_Cell_Token"><path codeLine="38" d="M185.875,613.901 C182.563,625.582 179.192,637.47 176.19,648.059 " fill="none" id="Cell-Token" style="stroke:#181818;stroke-width:1.0;"/><polygon fill="none" points="189.433,601.352,183.9477,606.0329,186.1588,612.8967,191.6441,608.2157,189.433,601.352" style="stroke:#181818;stroke-width:1.0;"/><polygon fill="#181818" points="172.617,660.662,178.9203,653.0944,173.9809,655.8516,171.2237,650.9122,172.617,660.662" style="stroke:#181818;stroke-width:1.0;"/><line style="stroke:#181818;stroke-width:1.0;" x1="173.9809" x2="176.163" y1="655.8516" y2="648.155"/><text fill="#000000" font-family="sans-serif" font-size="13" lengthAdjust="spacing" textLength="8" x="165.2549" y="649.9846">1</text></g><!--SRC=[RL3B2i903BpdAvQUL6ZH8WeU1ArGl8c8zwKDMjnsPLjH4V_TRVPXVUGscSmacKpmkcQ9h2hCcZ5a19UIg_m1J5UORjUhsK8fVYTym2PLHTxh4pfVcfqyOQNXqsfJNkA-m2jx-DP6y3kghoRjiBtMgZxAQyV6Q2mNPb98vVQxZHOcBTTH9YY4qpNjw3zTZJ-74mQiBYKZo_PKSC6mGHZEMJ0A_7_W7pLK77J-_2QrplyBdJWyQthm3kLJ1tISQT9nreH96Xj6KQn7pGUMYI8tQbojenwTtAO1fGGKbNIRIFu2]--></g></svg>