<?xml version="1.0" encoding="UTF-8" standalone="no"?><svg xmlns="http://www.w3.org/2000/svg" xmlns:xlink="http://www.w3.org/1999/xlink" contentStyleType="text/css" height="1153px" preserveAspectRatio="none" style="width:666px;height:1153px;background:#FFFFFF;" version="1.1" viewBox="0 0 666 1153" width="666px" zoomAndPan="magnify"><defs/><g><!--MD5=[10b1f240992e2c34b6908209bf85bfd2]
class Connect4--><g id="elem_Connect4"><rect codeLine="1" fill="#F1F1F1" height="48" id="Connect4" rx="2.5" ry="2.5" style="stroke:#181818;stroke-width:0.5;" width="93" x="212.5" y="7"/><ellipse cx="227.5" cy="23" fill="#ADD1B2" rx="11" ry="11" style="stroke:#181818;stroke-width:1.0;"/><path d="M230.2656,18.875 Q230.4219,18.6563 230.6094,18.5469 Q230.7969,18.4375 231.0156,18.4375 Q231.3906,18.4375 231.625,18.7031 Q231.8594,18.9531 231.8594,19.5625 L231.8594,21.0156 Q231.8594,21.625 231.625,21.8906 Q231.3906,22.1563 231.0156,22.1563 Q230.6719,22.1563 230.4688,21.9531 Q230.2656,21.7656 230.1563,21.25 Q230.1094,20.8906 229.9219,20.7031 Q229.5938,20.3281 228.9844,20.1094 Q228.375,19.8906 227.75,19.8906 Q226.9844,19.8906 226.3438,20.2188 Q225.7188,20.5469 225.2188,21.2969 Q224.7344,22.0469 224.7344,23.0781 L224.7344,24.1719 Q224.7344,25.4063 225.625,26.2344 Q226.5156,27.0469 228.1094,27.0469 Q229.0469,27.0469 229.7031,26.7969 Q230.0938,26.6406 230.5156,26.2031 Q230.7813,25.9375 230.9219,25.8594 Q231.0781,25.7813 231.2813,25.7813 Q231.6094,25.7813 231.8594,26.0469 Q232.125,26.2969 232.125,26.6406 Q232.125,26.9844 231.7813,27.3906 Q231.2813,27.9688 230.4844,28.2969 Q229.4063,28.75 228.1094,28.75 Q226.5938,28.75 225.3906,28.125 Q224.4063,27.625 223.7188,26.5625 Q223.0313,25.4844 223.0313,24.2031 L223.0313,23.0469 Q223.0313,21.7188 223.6406,20.5781 Q224.2656,19.4219 225.3594,18.8125 Q226.4531,18.1875 227.6875,18.1875 Q228.4219,18.1875 229.0625,18.3594 Q229.7188,18.5156 230.2656,18.875 Z " fill="#000000"/><text fill="#000000" font-family="sans-serif" font-size="14" lengthAdjust="spacing" textLength="61" x="241.5" y="28.7285">Connect4</text><line style="stroke:#181818;stroke-width:0.5;" x1="213.5" x2="304.5" y1="39" y2="39"/><line style="stroke:#181818;stroke-width:0.5;" x1="213.5" x2="304.5" y1="47" y2="47"/></g><!--MD5=[02f7077ed79257124e28b791f351f1d7]
class Direction--><g id="elem_Direction"><rect codeLine="3" fill="#F1F1F1" height="188.875" id="Direction" rx="2.5" ry="2.5" style="stroke:#181818;stroke-width:0.5;" width="107" x="233.5" y="545"/><ellipse cx="257.05" cy="561" fill="#ADD1B2" rx="11" ry="11" style="stroke:#181818;stroke-width:1.0;"/><path d="M259.8156,556.875 Q259.9719,556.6563 260.1594,556.5469 Q260.3469,556.4375 260.5656,556.4375 Q260.9406,556.4375 261.175,556.7031 Q261.4094,556.9531 261.4094,557.5625 L261.4094,559.0156 Q261.4094,559.625 261.175,559.8906 Q260.9406,560.1563 260.5656,560.1563 Q260.2219,560.1563 260.0188,559.9531 Q259.8156,559.7656 259.7063,559.25 Q259.6594,558.8906 259.4719,558.7031 Q259.1438,558.3281 258.5344,558.1094 Q257.925,557.8906 257.3,557.8906 Q256.5344,557.8906 255.8938,558.2188 Q255.2688,558.5469 254.7688,559.2969 Q254.2844,560.0469 254.2844,561.0781 L254.2844,562.1719 Q254.2844,563.4063 255.175,564.2344 Q256.0656,565.0469 257.6594,565.0469 Q258.5969,565.0469 259.2531,564.7969 Q259.6438,564.6406 260.0656,564.2031 Q260.3313,563.9375 260.4719,563.8594 Q260.6281,563.7813 260.8313,563.7813 Q261.1594,563.7813 261.4094,564.0469 Q261.675,564.2969 261.675,564.6406 Q261.675,564.9844 261.3313,565.3906 Q260.8313,565.9688 260.0344,566.2969 Q258.9563,566.75 257.6594,566.75 Q256.1438,566.75 254.9406,566.125 Q253.9563,565.625 253.2688,564.5625 Q252.5813,563.4844 252.5813,562.2031 L252.5813,561.0469 Q252.5813,559.7188 253.1906,558.5781 Q253.8156,557.4219 254.9094,556.8125 Q256.0031,556.1875 257.2375,556.1875 Q257.9719,556.1875 258.6125,556.3594 Q259.2688,556.5156 259.8156,556.875 Z " fill="#000000"/><text fill="#000000" font-family="sans-serif" font-size="14" lengthAdjust="spacing" textLength="56" x="272.95" y="566.7285">Direction</text><line style="stroke:#181818;stroke-width:0.5;" x1="234.5" x2="339.5" y1="577" y2="577"/><text fill="#000000" font-family="sans-serif" font-size="14" lengthAdjust="spacing" text-decoration="underline" textLength="39" x="239.5" y="595.5332">NORT</text><text fill="#000000" font-family="sans-serif" font-size="14" lengthAdjust="spacing" text-decoration="underline" textLength="83" x="239.5" y="613.1426">NORT_EAST</text><text fill="#000000" font-family="sans-serif" font-size="14" lengthAdjust="spacing" text-decoration="underline" textLength="36" x="239.5" y="630.752">EAST</text><text fill="#000000" font-family="sans-serif" font-size="14" lengthAdjust="spacing" text-decoration="underline" textLength="91" x="239.5" y="648.3613">SOUTH_EAST</text><text fill="#000000" font-family="sans-serif" font-size="14" lengthAdjust="spacing" text-decoration="underline" textLength="47" x="239.5" y="665.9707">SOUTH</text><text fill="#000000" font-family="sans-serif" font-size="14" lengthAdjust="spacing" text-decoration="underline" textLength="95" x="239.5" y="683.5801">SOUTH_WEST</text><text fill="#000000" font-family="sans-serif" font-size="14" lengthAdjust="spacing" text-decoration="underline" textLength="40" x="239.5" y="701.1895">WEST</text><text fill="#000000" font-family="sans-serif" font-size="14" lengthAdjust="spacing" text-decoration="underline" textLength="87" x="239.5" y="718.7988">NORT_WEST</text><line style="stroke:#181818;stroke-width:0.5;" x1="234.5" x2="339.5" y1="725.875" y2="725.875"/></g><!--MD5=[9563755d011c5cec7ec66dc53565a59e]
class Board--><g id="elem_Board"><rect codeLine="14" fill="#F1F1F1" height="100.8281" id="Board" rx="2.5" ry="2.5" style="stroke:#181818;stroke-width:0.5;" width="98" x="143" y="366.5"/><ellipse cx="170.6" cy="382.5" fill="#ADD1B2" rx="11" ry="11" style="stroke:#181818;stroke-width:1.0;"/><path d="M173.3656,378.375 Q173.5219,378.1563 173.7094,378.0469 Q173.8969,377.9375 174.1156,377.9375 Q174.4906,377.9375 174.725,378.2031 Q174.9594,378.4531 174.9594,379.0625 L174.9594,380.5156 Q174.9594,381.125 174.725,381.3906 Q174.4906,381.6563 174.1156,381.6563 Q173.7719,381.6563 173.5688,381.4531 Q173.3656,381.2656 173.2563,380.75 Q173.2094,380.3906 173.0219,380.2031 Q172.6938,379.8281 172.0844,379.6094 Q171.475,379.3906 170.85,379.3906 Q170.0844,379.3906 169.4438,379.7188 Q168.8188,380.0469 168.3188,380.7969 Q167.8344,381.5469 167.8344,382.5781 L167.8344,383.6719 Q167.8344,384.9063 168.725,385.7344 Q169.6156,386.5469 171.2094,386.5469 Q172.1469,386.5469 172.8031,386.2969 Q173.1938,386.1406 173.6156,385.7031 Q173.8813,385.4375 174.0219,385.3594 Q174.1781,385.2813 174.3813,385.2813 Q174.7094,385.2813 174.9594,385.5469 Q175.225,385.7969 175.225,386.1406 Q175.225,386.4844 174.8813,386.8906 Q174.3813,387.4688 173.5844,387.7969 Q172.5063,388.25 171.2094,388.25 Q169.6938,388.25 168.4906,387.625 Q167.5063,387.125 166.8188,386.0625 Q166.1313,384.9844 166.1313,383.7031 L166.1313,382.5469 Q166.1313,381.2188 166.7406,380.0781 Q167.3656,378.9219 168.4594,378.3125 Q169.5531,377.6875 170.7875,377.6875 Q171.5219,377.6875 172.1625,377.8594 Q172.8188,378.0156 173.3656,378.375 Z " fill="#000000"/><text fill="#000000" font-family="sans-serif" font-size="14" lengthAdjust="spacing" textLength="38" x="187.4" y="388.2285">Board</text><line style="stroke:#181818;stroke-width:0.5;" x1="144" x2="240" y1="398.5" y2="398.5"/><rect fill="none" height="6" style="stroke:#C82930;stroke-width:1.0;" width="6" x="151" y="409.8047"/><text fill="#000000" font-family="sans-serif" font-size="14" lengthAdjust="spacing" textLength="72" x="163" y="417.0332">GRID:Array</text><line style="stroke:#181818;stroke-width:0.5;" x1="144" x2="240" y1="424.1094" y2="424.1094"/><text fill="#000000" font-family="sans-serif" font-size="14" lengthAdjust="spacing" textLength="57" x="149" y="442.6426">getGrid()</text><text fill="#000000" font-family="sans-serif" font-size="14" lengthAdjust="spacing" textLength="70" x="149" y="460.252">putToken()</text></g><!--MD5=[5d3822d29342fbd355d1b65ea3562ec9]
class GameView--><g id="elem_GameView"><rect codeLine="19" fill="#F1F1F1" height="48" id="GameView" rx="2.5" ry="2.5" style="stroke:#181818;stroke-width:0.5;" width="99" x="209.5" y="115"/><ellipse cx="224.5" cy="131" fill="#ADD1B2" rx="11" ry="11" style="stroke:#181818;stroke-width:1.0;"/><path d="M227.2656,126.875 Q227.4219,126.6563 227.6094,126.5469 Q227.7969,126.4375 228.0156,126.4375 Q228.3906,126.4375 228.625,126.7031 Q228.8594,126.9531 228.8594,127.5625 L228.8594,129.0156 Q228.8594,129.625 228.625,129.8906 Q228.3906,130.1563 228.0156,130.1563 Q227.6719,130.1563 227.4688,129.9531 Q227.2656,129.7656 227.1563,129.25 Q227.1094,128.8906 226.9219,128.7031 Q226.5938,128.3281 225.9844,128.1094 Q225.375,127.8906 224.75,127.8906 Q223.9844,127.8906 223.3438,128.2188 Q222.7188,128.5469 222.2188,129.2969 Q221.7344,130.0469 221.7344,131.0781 L221.7344,132.1719 Q221.7344,133.4063 222.625,134.2344 Q223.5156,135.0469 225.1094,135.0469 Q226.0469,135.0469 226.7031,134.7969 Q227.0938,134.6406 227.5156,134.2031 Q227.7813,133.9375 227.9219,133.8594 Q228.0781,133.7813 228.2813,133.7813 Q228.6094,133.7813 228.8594,134.0469 Q229.125,134.2969 229.125,134.6406 Q229.125,134.9844 228.7813,135.3906 Q228.2813,135.9688 227.4844,136.2969 Q226.4063,136.75 225.1094,136.75 Q223.5938,136.75 222.3906,136.125 Q221.4063,135.625 220.7188,134.5625 Q220.0313,133.4844 220.0313,132.2031 L220.0313,131.0469 Q220.0313,129.7188 220.6406,128.5781 Q221.2656,127.4219 222.3594,126.8125 Q223.4531,126.1875 224.6875,126.1875 Q225.4219,126.1875 226.0625,126.3594 Q226.7188,126.5156 227.2656,126.875 Z " fill="#000000"/><text fill="#000000" font-family="sans-serif" font-size="14" lengthAdjust="spacing" textLength="67" x="238.5" y="136.7285">GameView</text><line style="stroke:#181818;stroke-width:0.5;" x1="210.5" x2="307.5" y1="147" y2="147"/><line style="stroke:#181818;stroke-width:0.5;" x1="210.5" x2="307.5" y1="155" y2="155"/></g><!--MD5=[af194e474b2c37e443a340884399de77]
class PlayerView--><g id="elem_PlayerView"><rect codeLine="21" fill="#F1F1F1" height="48" id="PlayerView" rx="2.5" ry="2.5" style="stroke:#181818;stroke-width:0.5;" width="101" x="276.5" y="232"/><ellipse cx="291.5" cy="248" fill="#ADD1B2" rx="11" ry="11" style="stroke:#181818;stroke-width:1.0;"/><path d="M294.2656,243.875 Q294.4219,243.6563 294.6094,243.5469 Q294.7969,243.4375 295.0156,243.4375 Q295.3906,243.4375 295.625,243.7031 Q295.8594,243.9531 295.8594,244.5625 L295.8594,246.0156 Q295.8594,246.625 295.625,246.8906 Q295.3906,247.1563 295.0156,247.1563 Q294.6719,247.1563 294.4688,246.9531 Q294.2656,246.7656 294.1563,246.25 Q294.1094,245.8906 293.9219,245.7031 Q293.5938,245.3281 292.9844,245.1094 Q292.375,244.8906 291.75,244.8906 Q290.9844,244.8906 290.3438,245.2188 Q289.7188,245.5469 289.2188,246.2969 Q288.7344,247.0469 288.7344,248.0781 L288.7344,249.1719 Q288.7344,250.4063 289.625,251.2344 Q290.5156,252.0469 292.1094,252.0469 Q293.0469,252.0469 293.7031,251.7969 Q294.0938,251.6406 294.5156,251.2031 Q294.7813,250.9375 294.9219,250.8594 Q295.0781,250.7813 295.2813,250.7813 Q295.6094,250.7813 295.8594,251.0469 Q296.125,251.2969 296.125,251.6406 Q296.125,251.9844 295.7813,252.3906 Q295.2813,252.9688 294.4844,253.2969 Q293.4063,253.75 292.1094,253.75 Q290.5938,253.75 289.3906,253.125 Q288.4063,252.625 287.7188,251.5625 Q287.0313,250.4844 287.0313,249.2031 L287.0313,248.0469 Q287.0313,246.7188 287.6406,245.5781 Q288.2656,244.4219 289.3594,243.8125 Q290.4531,243.1875 291.6875,243.1875 Q292.4219,243.1875 293.0625,243.3594 Q293.7188,243.5156 294.2656,243.875 Z " fill="#000000"/><text fill="#000000" font-family="sans-serif" font-size="14" lengthAdjust="spacing" textLength="69" x="305.5" y="253.7285">PlayerView</text><line style="stroke:#181818;stroke-width:0.5;" x1="277.5" x2="376.5" y1="264" y2="264"/><line style="stroke:#181818;stroke-width:0.5;" x1="277.5" x2="376.5" y1="272" y2="272"/></g><!--MD5=[9b237e88d697a058bd530d6510c96c00]
class BoardView--><g id="elem_BoardView"><rect codeLine="23" fill="#F1F1F1" height="65.6094" id="BoardView" rx="2.5" ry="2.5" style="stroke:#181818;stroke-width:0.5;" width="99" x="142.5" y="223"/><ellipse cx="157.5" cy="239" fill="#ADD1B2" rx="11" ry="11" style="stroke:#181818;stroke-width:1.0;"/><path d="M160.2656,234.875 Q160.4219,234.6563 160.6094,234.5469 Q160.7969,234.4375 161.0156,234.4375 Q161.3906,234.4375 161.625,234.7031 Q161.8594,234.9531 161.8594,235.5625 L161.8594,237.0156 Q161.8594,237.625 161.625,237.8906 Q161.3906,238.1563 161.0156,238.1563 Q160.6719,238.1563 160.4688,237.9531 Q160.2656,237.7656 160.1563,237.25 Q160.1094,236.8906 159.9219,236.7031 Q159.5938,236.3281 158.9844,236.1094 Q158.375,235.8906 157.75,235.8906 Q156.9844,235.8906 156.3438,236.2188 Q155.7188,236.5469 155.2188,237.2969 Q154.7344,238.0469 154.7344,239.0781 L154.7344,240.1719 Q154.7344,241.4063 155.625,242.2344 Q156.5156,243.0469 158.1094,243.0469 Q159.0469,243.0469 159.7031,242.7969 Q160.0938,242.6406 160.5156,242.2031 Q160.7813,241.9375 160.9219,241.8594 Q161.0781,241.7813 161.2813,241.7813 Q161.6094,241.7813 161.8594,242.0469 Q162.125,242.2969 162.125,242.6406 Q162.125,242.9844 161.7813,243.3906 Q161.2813,243.9688 160.4844,244.2969 Q159.4063,244.75 158.1094,244.75 Q156.5938,244.75 155.3906,244.125 Q154.4063,243.625 153.7188,242.5625 Q153.0313,241.4844 153.0313,240.2031 L153.0313,239.0469 Q153.0313,237.7188 153.6406,236.5781 Q154.2656,235.4219 155.3594,234.8125 Q156.4531,234.1875 157.6875,234.1875 Q158.4219,234.1875 159.0625,234.3594 Q159.7188,234.5156 160.2656,234.875 Z " fill="#000000"/><text fill="#000000" font-family="sans-serif" font-size="14" lengthAdjust="spacing" textLength="67" x="171.5" y="244.7285">BoardView</text><line style="stroke:#181818;stroke-width:0.5;" x1="143.5" x2="240.5" y1="255" y2="255"/><line style="stroke:#181818;stroke-width:0.5;" x1="143.5" x2="240.5" y1="263" y2="263"/><text fill="#000000" font-family="sans-serif" font-size="14" lengthAdjust="spacing" textLength="42" x="148.5" y="281.5332">show()</text></g><!--MD5=[2cb47ba637a0d19583e6199456f6ad0b]
class Player--><g id="elem_Player"><rect codeLine="26" fill="#F1F1F1" height="118.4375" id="Player" rx="2.5" ry="2.5" style="stroke:#181818;stroke-width:0.5;" width="145" x="388.5" y="794"/><ellipse cx="436.75" cy="810" fill="#ADD1B2" rx="11" ry="11" style="stroke:#181818;stroke-width:1.0;"/><path d="M439.5156,805.875 Q439.6719,805.6563 439.8594,805.5469 Q440.0469,805.4375 440.2656,805.4375 Q440.6406,805.4375 440.875,805.7031 Q441.1094,805.9531 441.1094,806.5625 L441.1094,808.0156 Q441.1094,808.625 440.875,808.8906 Q440.6406,809.1563 440.2656,809.1563 Q439.9219,809.1563 439.7188,808.9531 Q439.5156,808.7656 439.4063,808.25 Q439.3594,807.8906 439.1719,807.7031 Q438.8438,807.3281 438.2344,807.1094 Q437.625,806.8906 437,806.8906 Q436.2344,806.8906 435.5938,807.2188 Q434.9688,807.5469 434.4688,808.2969 Q433.9844,809.0469 433.9844,810.0781 L433.9844,811.1719 Q433.9844,812.4063 434.875,813.2344 Q435.7656,814.0469 437.3594,814.0469 Q438.2969,814.0469 438.9531,813.7969 Q439.3438,813.6406 439.7656,813.2031 Q440.0313,812.9375 440.1719,812.8594 Q440.3281,812.7813 440.5313,812.7813 Q440.8594,812.7813 441.1094,813.0469 Q441.375,813.2969 441.375,813.6406 Q441.375,813.9844 441.0313,814.3906 Q440.5313,814.9688 439.7344,815.2969 Q438.6563,815.75 437.3594,815.75 Q435.8438,815.75 434.6406,815.125 Q433.6563,814.625 432.9688,813.5625 Q432.2813,812.4844 432.2813,811.2031 L432.2813,810.0469 Q432.2813,808.7188 432.8906,807.5781 Q433.5156,806.4219 434.6094,805.8125 Q435.7031,805.1875 436.9375,805.1875 Q437.6719,805.1875 438.3125,805.3594 Q438.9688,805.5156 439.5156,805.875 Z " fill="#000000"/><text fill="#000000" font-family="sans-serif" font-size="14" lengthAdjust="spacing" textLength="40" x="457.25" y="815.7285">Player</text><line style="stroke:#181818;stroke-width:0.5;" x1="389.5" x2="532.5" y1="826" y2="826"/><rect fill="none" height="6" style="stroke:#C82930;stroke-width:1.0;" width="6" x="396.5" y="837.3047"/><text fill="#000000" font-family="sans-serif" font-size="14" lengthAdjust="spacing" textLength="31" x="408.5" y="844.5332">color</text><line style="stroke:#181818;stroke-width:0.5;" x1="389.5" x2="532.5" y1="851.6094" y2="851.6094"/><text fill="#000000" font-family="sans-serif" font-size="14" lengthAdjust="spacing" textLength="70" x="394.5" y="870.1426">getToken()</text><text fill="#000000" font-family="sans-serif" font-size="14" lengthAdjust="spacing" textLength="64" x="394.5" y="887.752">getColor()</text><text fill="#000000" font-family="sans-serif" font-size="14" font-style="italic" lengthAdjust="spacing" textLength="133" x="394.5" y="905.3613">getSelectedColumn()</text></g><!--MD5=[d159557bab43e1f13b9627fe22d6ac69]
class UserPlayer--><g id="elem_UserPlayer"><rect codeLine="32" fill="#F1F1F1" height="65.6094" id="UserPlayer" rx="2.5" ry="2.5" style="stroke:#181818;stroke-width:0.5;" width="145" x="514.5" y="972"/><ellipse cx="549.3" cy="988" fill="#ADD1B2" rx="11" ry="11" style="stroke:#181818;stroke-width:1.0;"/><path d="M552.0656,983.875 Q552.2219,983.6563 552.4094,983.5469 Q552.5969,983.4375 552.8156,983.4375 Q553.1906,983.4375 553.425,983.7031 Q553.6594,983.9531 553.6594,984.5625 L553.6594,986.0156 Q553.6594,986.625 553.425,986.8906 Q553.1906,987.1563 552.8156,987.1563 Q552.4719,987.1563 552.2688,986.9531 Q552.0656,986.7656 551.9563,986.25 Q551.9094,985.8906 551.7219,985.7031 Q551.3938,985.3281 550.7844,985.1094 Q550.175,984.8906 549.55,984.8906 Q548.7844,984.8906 548.1438,985.2188 Q547.5188,985.5469 547.0188,986.2969 Q546.5344,987.0469 546.5344,988.0781 L546.5344,989.1719 Q546.5344,990.4063 547.425,991.2344 Q548.3156,992.0469 549.9094,992.0469 Q550.8469,992.0469 551.5031,991.7969 Q551.8938,991.6406 552.3156,991.2031 Q552.5813,990.9375 552.7219,990.8594 Q552.8781,990.7813 553.0813,990.7813 Q553.4094,990.7813 553.6594,991.0469 Q553.925,991.2969 553.925,991.6406 Q553.925,991.9844 553.5813,992.3906 Q553.0813,992.9688 552.2844,993.2969 Q551.2063,993.75 549.9094,993.75 Q548.3938,993.75 547.1906,993.125 Q546.2063,992.625 545.5188,991.5625 Q544.8313,990.4844 544.8313,989.2031 L544.8313,988.0469 Q544.8313,986.7188 545.4406,985.5781 Q546.0656,984.4219 547.1594,983.8125 Q548.2531,983.1875 549.4875,983.1875 Q550.2219,983.1875 550.8625,983.3594 Q551.5188,983.5156 552.0656,983.875 Z " fill="#000000"/><text fill="#000000" font-family="sans-serif" font-size="14" lengthAdjust="spacing" textLength="69" x="567.7" y="993.7285">UserPlayer</text><line style="stroke:#181818;stroke-width:0.5;" x1="515.5" x2="658.5" y1="1004" y2="1004"/><line style="stroke:#181818;stroke-width:0.5;" x1="515.5" x2="658.5" y1="1012" y2="1012"/><text fill="#000000" font-family="sans-serif" font-size="14" lengthAdjust="spacing" textLength="133" x="520.5" y="1030.5332">getSelectedColumn()</text></g><!--MD5=[174b845aece9e2b8fe56c79fce093b97]
class BotPlayer--><g id="elem_BotPlayer"><rect codeLine="35" fill="#F1F1F1" height="65.6094" id="BotPlayer" rx="2.5" ry="2.5" style="stroke:#181818;stroke-width:0.5;" width="145" x="262.5" y="972"/><ellipse cx="300.9" cy="988" fill="#ADD1B2" rx="11" ry="11" style="stroke:#181818;stroke-width:1.0;"/><path d="M303.6656,983.875 Q303.8219,983.6563 304.0094,983.5469 Q304.1969,983.4375 304.4156,983.4375 Q304.7906,983.4375 305.025,983.7031 Q305.2594,983.9531 305.2594,984.5625 L305.2594,986.0156 Q305.2594,986.625 305.025,986.8906 Q304.7906,987.1563 304.4156,987.1563 Q304.0719,987.1563 303.8688,986.9531 Q303.6656,986.7656 303.5563,986.25 Q303.5094,985.8906 303.3219,985.7031 Q302.9938,985.3281 302.3844,985.1094 Q301.775,984.8906 301.15,984.8906 Q300.3844,984.8906 299.7438,985.2188 Q299.1188,985.5469 298.6188,986.2969 Q298.1344,987.0469 298.1344,988.0781 L298.1344,989.1719 Q298.1344,990.4063 299.025,991.2344 Q299.9156,992.0469 301.5094,992.0469 Q302.4469,992.0469 303.1031,991.7969 Q303.4938,991.6406 303.9156,991.2031 Q304.1813,990.9375 304.3219,990.8594 Q304.4781,990.7813 304.6813,990.7813 Q305.0094,990.7813 305.2594,991.0469 Q305.525,991.2969 305.525,991.6406 Q305.525,991.9844 305.1813,992.3906 Q304.6813,992.9688 303.8844,993.2969 Q302.8063,993.75 301.5094,993.75 Q299.9938,993.75 298.7906,993.125 Q297.8063,992.625 297.1188,991.5625 Q296.4313,990.4844 296.4313,989.2031 L296.4313,988.0469 Q296.4313,986.7188 297.0406,985.5781 Q297.6656,984.4219 298.7594,983.8125 Q299.8531,983.1875 301.0875,983.1875 Q301.8219,983.1875 302.4625,983.3594 Q303.1188,983.5156 303.6656,983.875 Z " fill="#000000"/><text fill="#000000" font-family="sans-serif" font-size="14" lengthAdjust="spacing" textLength="61" x="320.1" y="993.7285">BotPlayer</text><line style="stroke:#181818;stroke-width:0.5;" x1="263.5" x2="406.5" y1="1004" y2="1004"/><line style="stroke:#181818;stroke-width:0.5;" x1="263.5" x2="406.5" y1="1012" y2="1012"/><text fill="#000000" font-family="sans-serif" font-size="14" lengthAdjust="spacing" textLength="133" x="268.5" y="1030.5332">getSelectedColumn()</text></g><!--MD5=[fea3dc74c7473bae0133d22265a91e2f]
class Cell--><g id="elem_Cell"><rect codeLine="38" fill="#F1F1F1" height="100.8281" id="Cell" rx="2.5" ry="2.5" style="stroke:#181818;stroke-width:0.5;" width="82" x="143" y="802.5"/><ellipse cx="169.7" cy="818.5" fill="#ADD1B2" rx="11" ry="11" style="stroke:#181818;stroke-width:1.0;"/><path d="M172.4656,814.375 Q172.6219,814.1563 172.8094,814.0469 Q172.9969,813.9375 173.2156,813.9375 Q173.5906,813.9375 173.825,814.2031 Q174.0594,814.4531 174.0594,815.0625 L174.0594,816.5156 Q174.0594,817.125 173.825,817.3906 Q173.5906,817.6563 173.2156,817.6563 Q172.8719,817.6563 172.6688,817.4531 Q172.4656,817.2656 172.3563,816.75 Q172.3094,816.3906 172.1219,816.2031 Q171.7938,815.8281 171.1844,815.6094 Q170.575,815.3906 169.95,815.3906 Q169.1844,815.3906 168.5438,815.7188 Q167.9188,816.0469 167.4188,816.7969 Q166.9344,817.5469 166.9344,818.5781 L166.9344,819.6719 Q166.9344,820.9063 167.825,821.7344 Q168.7156,822.5469 170.3094,822.5469 Q171.2469,822.5469 171.9031,822.2969 Q172.2938,822.1406 172.7156,821.7031 Q172.9813,821.4375 173.1219,821.3594 Q173.2781,821.2813 173.4813,821.2813 Q173.8094,821.2813 174.0594,821.5469 Q174.325,821.7969 174.325,822.1406 Q174.325,822.4844 173.9813,822.8906 Q173.4813,823.4688 172.6844,823.7969 Q171.6063,824.25 170.3094,824.25 Q168.7938,824.25 167.5906,823.625 Q166.6063,823.125 165.9188,822.0625 Q165.2313,820.9844 165.2313,819.7031 L165.2313,818.5469 Q165.2313,817.2188 165.8406,816.0781 Q166.4656,814.9219 167.5594,814.3125 Q168.6531,813.6875 169.8875,813.6875 Q170.6219,813.6875 171.2625,813.8594 Q171.9188,814.0156 172.4656,814.375 Z " fill="#000000"/><text fill="#000000" font-family="sans-serif" font-size="14" lengthAdjust="spacing" textLength="24" x="186.3" y="824.2285">Cell</text><line style="stroke:#181818;stroke-width:0.5;" x1="144" x2="224" y1="834.5" y2="834.5"/><rect fill="none" height="6" style="stroke:#C82930;stroke-width:1.0;" width="6" x="151" y="845.8047"/><text fill="#000000" font-family="sans-serif" font-size="14" lengthAdjust="spacing" textLength="35" x="163" y="853.0332">token</text><line style="stroke:#181818;stroke-width:0.5;" x1="144" x2="224" y1="860.1094" y2="860.1094"/><text fill="#000000" font-family="sans-serif" font-size="14" lengthAdjust="spacing" textLength="70" x="149" y="878.6426">getToken()</text><text fill="#000000" font-family="sans-serif" font-size="14" lengthAdjust="spacing" textLength="69" x="149" y="896.252">setToken()</text></g><!--MD5=[8c7d7abc12e214c3cc12c9ab70edee11]
class Coordinate--><g id="elem_Coordinate"><rect codeLine="43" fill="#F1F1F1" height="136.0469" id="Coordinate" rx="2.5" ry="2.5" style="stroke:#181818;stroke-width:0.5;" width="102" x="299" y="349"/><ellipse cx="314" cy="365" fill="#ADD1B2" rx="11" ry="11" style="stroke:#181818;stroke-width:1.0;"/><path d="M316.7656,360.875 Q316.9219,360.6563 317.1094,360.5469 Q317.2969,360.4375 317.5156,360.4375 Q317.8906,360.4375 318.125,360.7031 Q318.3594,360.9531 318.3594,361.5625 L318.3594,363.0156 Q318.3594,363.625 318.125,363.8906 Q317.8906,364.1563 317.5156,364.1563 Q317.1719,364.1563 316.9688,363.9531 Q316.7656,363.7656 316.6563,363.25 Q316.6094,362.8906 316.4219,362.7031 Q316.0938,362.3281 315.4844,362.1094 Q314.875,361.8906 314.25,361.8906 Q313.4844,361.8906 312.8438,362.2188 Q312.2188,362.5469 311.7188,363.2969 Q311.2344,364.0469 311.2344,365.0781 L311.2344,366.1719 Q311.2344,367.4063 312.125,368.2344 Q313.0156,369.0469 314.6094,369.0469 Q315.5469,369.0469 316.2031,368.7969 Q316.5938,368.6406 317.0156,368.2031 Q317.2813,367.9375 317.4219,367.8594 Q317.5781,367.7813 317.7813,367.7813 Q318.1094,367.7813 318.3594,368.0469 Q318.625,368.2969 318.625,368.6406 Q318.625,368.9844 318.2813,369.3906 Q317.7813,369.9688 316.9844,370.2969 Q315.9063,370.75 314.6094,370.75 Q313.0938,370.75 311.8906,370.125 Q310.9063,369.625 310.2188,368.5625 Q309.5313,367.4844 309.5313,366.2031 L309.5313,365.0469 Q309.5313,363.7188 310.1406,362.5781 Q310.7656,361.4219 311.8594,360.8125 Q312.9531,360.1875 314.1875,360.1875 Q314.9219,360.1875 315.5625,360.3594 Q316.2188,360.5156 316.7656,360.875 Z " fill="#000000"/><text fill="#000000" font-family="sans-serif" font-size="14" lengthAdjust="spacing" textLength="70" x="328" y="370.7285">Coordinate</text><line style="stroke:#181818;stroke-width:0.5;" x1="300" x2="400" y1="381" y2="381"/><line style="stroke:#181818;stroke-width:0.5;" x1="300" x2="400" y1="389" y2="389"/><text fill="#000000" font-family="sans-serif" font-size="14" lengthAdjust="spacing" textLength="74" x="305" y="407.5332">getShifted()</text><text fill="#000000" font-family="sans-serif" font-size="14" lengthAdjust="spacing" textLength="51" x="305" y="425.1426">getCol()</text><text fill="#000000" font-family="sans-serif" font-size="14" lengthAdjust="spacing" textLength="50" x="305" y="442.752">setCol()</text><text fill="#000000" font-family="sans-serif" font-size="14" lengthAdjust="spacing" textLength="57" x="305" y="460.3613">getRow()</text><text fill="#000000" font-family="sans-serif" font-size="14" lengthAdjust="spacing" textLength="56" x="305" y="477.9707">setRow()</text></g><!--MD5=[d8c8cfd5ca149094f5b67f9f607a5ec7]
class Token--><g id="elem_Token"><rect codeLine="50" fill="#F1F1F1" height="48" id="Token" rx="2.5" ry="2.5" style="stroke:#181818;stroke-width:0.5;" width="72" x="155" y="981"/><ellipse cx="170" cy="997" fill="#ADD1B2" rx="11" ry="11" style="stroke:#181818;stroke-width:1.0;"/><path d="M172.7656,992.875 Q172.9219,992.6563 173.1094,992.5469 Q173.2969,992.4375 173.5156,992.4375 Q173.8906,992.4375 174.125,992.7031 Q174.3594,992.9531 174.3594,993.5625 L174.3594,995.0156 Q174.3594,995.625 174.125,995.8906 Q173.8906,996.1563 173.5156,996.1563 Q173.1719,996.1563 172.9688,995.9531 Q172.7656,995.7656 172.6563,995.25 Q172.6094,994.8906 172.4219,994.7031 Q172.0938,994.3281 171.4844,994.1094 Q170.875,993.8906 170.25,993.8906 Q169.4844,993.8906 168.8438,994.2188 Q168.2188,994.5469 167.7188,995.2969 Q167.2344,996.0469 167.2344,997.0781 L167.2344,998.1719 Q167.2344,999.4063 168.125,1000.2344 Q169.0156,1001.0469 170.6094,1001.0469 Q171.5469,1001.0469 172.2031,1000.7969 Q172.5938,1000.6406 173.0156,1000.2031 Q173.2813,999.9375 173.4219,999.8594 Q173.5781,999.7813 173.7813,999.7813 Q174.1094,999.7813 174.3594,1000.0469 Q174.625,1000.2969 174.625,1000.6406 Q174.625,1000.9844 174.2813,1001.3906 Q173.7813,1001.9688 172.9844,1002.2969 Q171.9063,1002.75 170.6094,1002.75 Q169.0938,1002.75 167.8906,1002.125 Q166.9063,1001.625 166.2188,1000.5625 Q165.5313,999.4844 165.5313,998.2031 L165.5313,997.0469 Q165.5313,995.7188 166.1406,994.5781 Q166.7656,993.4219 167.8594,992.8125 Q168.9531,992.1875 170.1875,992.1875 Q170.9219,992.1875 171.5625,992.3594 Q172.2188,992.5156 172.7656,992.875 Z " fill="#000000"/><text fill="#000000" font-family="sans-serif" font-size="14" lengthAdjust="spacing" textLength="40" x="184" y="1002.7285">Token</text><line style="stroke:#181818;stroke-width:0.5;" x1="156" x2="226" y1="1013" y2="1013"/><line style="stroke:#181818;stroke-width:0.5;" x1="156" x2="226" y1="1021" y2="1021"/></g><!--MD5=[18eee71c88ab61f27581b8cbdd3ef5ee]
class Color--><g id="elem_Color"><rect codeLine="51" fill="#F1F1F1" height="48" id="Color" rx="2.5" ry="2.5" style="stroke:#181818;stroke-width:0.5;" width="66" x="293" y="1098"/><ellipse cx="308" cy="1114" fill="#ADD1B2" rx="11" ry="11" style="stroke:#181818;stroke-width:1.0;"/><path d="M310.7656,1109.875 Q310.9219,1109.6563 311.1094,1109.5469 Q311.2969,1109.4375 311.5156,1109.4375 Q311.8906,1109.4375 312.125,1109.7031 Q312.3594,1109.9531 312.3594,1110.5625 L312.3594,1112.0156 Q312.3594,1112.625 312.125,1112.8906 Q311.8906,1113.1563 311.5156,1113.1563 Q311.1719,1113.1563 310.9688,1112.9531 Q310.7656,1112.7656 310.6563,1112.25 Q310.6094,1111.8906 310.4219,1111.7031 Q310.0938,1111.3281 309.4844,1111.1094 Q308.875,1110.8906 308.25,1110.8906 Q307.4844,1110.8906 306.8438,1111.2188 Q306.2188,1111.5469 305.7188,1112.2969 Q305.2344,1113.0469 305.2344,1114.0781 L305.2344,1115.1719 Q305.2344,1116.4063 306.125,1117.2344 Q307.0156,1118.0469 308.6094,1118.0469 Q309.5469,1118.0469 310.2031,1117.7969 Q310.5938,1117.6406 311.0156,1117.2031 Q311.2813,1116.9375 311.4219,1116.8594 Q311.5781,1116.7813 311.7813,1116.7813 Q312.1094,1116.7813 312.3594,1117.0469 Q312.625,1117.2969 312.625,1117.6406 Q312.625,1117.9844 312.2813,1118.3906 Q311.7813,1118.9688 310.9844,1119.2969 Q309.9063,1119.75 308.6094,1119.75 Q307.0938,1119.75 305.8906,1119.125 Q304.9063,1118.625 304.2188,1117.5625 Q303.5313,1116.4844 303.5313,1115.2031 L303.5313,1114.0469 Q303.5313,1112.7188 304.1406,1111.5781 Q304.7656,1110.4219 305.8594,1109.8125 Q306.9531,1109.1875 308.1875,1109.1875 Q308.9219,1109.1875 309.5625,1109.3594 Q310.2188,1109.5156 310.7656,1109.875 Z " fill="#000000"/><text fill="#000000" font-family="sans-serif" font-size="14" lengthAdjust="spacing" textLength="34" x="322" y="1119.7285">Color</text><line style="stroke:#181818;stroke-width:0.5;" x1="294" x2="358" y1="1130" y2="1130"/><line style="stroke:#181818;stroke-width:0.5;" x1="294" x2="358" y1="1138" y2="1138"/></g><!--MD5=[290869c0dc9090651d43d12b153728a8]
class Connect4Line--><g id="elem_Connect4Line"><rect codeLine="53" fill="#F1F1F1" height="65.6094" id="Connect4Line" rx="2.5" ry="2.5" style="stroke:#181818;stroke-width:0.5;" width="120" x="7" y="606.5"/><ellipse cx="22" cy="622.5" fill="#ADD1B2" rx="11" ry="11" style="stroke:#181818;stroke-width:1.0;"/><path d="M24.7656,618.375 Q24.9219,618.1563 25.1094,618.0469 Q25.2969,617.9375 25.5156,617.9375 Q25.8906,617.9375 26.125,618.2031 Q26.3594,618.4531 26.3594,619.0625 L26.3594,620.5156 Q26.3594,621.125 26.125,621.3906 Q25.8906,621.6563 25.5156,621.6563 Q25.1719,621.6563 24.9688,621.4531 Q24.7656,621.2656 24.6563,620.75 Q24.6094,620.3906 24.4219,620.2031 Q24.0938,619.8281 23.4844,619.6094 Q22.875,619.3906 22.25,619.3906 Q21.4844,619.3906 20.8438,619.7188 Q20.2188,620.0469 19.7188,620.7969 Q19.2344,621.5469 19.2344,622.5781 L19.2344,623.6719 Q19.2344,624.9063 20.125,625.7344 Q21.0156,626.5469 22.6094,626.5469 Q23.5469,626.5469 24.2031,626.2969 Q24.5938,626.1406 25.0156,625.7031 Q25.2813,625.4375 25.4219,625.3594 Q25.5781,625.2813 25.7813,625.2813 Q26.1094,625.2813 26.3594,625.5469 Q26.625,625.7969 26.625,626.1406 Q26.625,626.4844 26.2813,626.8906 Q25.7813,627.4688 24.9844,627.7969 Q23.9063,628.25 22.6094,628.25 Q21.0938,628.25 19.8906,627.625 Q18.9063,627.125 18.2188,626.0625 Q17.5313,624.9844 17.5313,623.7031 L17.5313,622.5469 Q17.5313,621.2188 18.1406,620.0781 Q18.7656,618.9219 19.8594,618.3125 Q20.9531,617.6875 22.1875,617.6875 Q22.9219,617.6875 23.5625,617.8594 Q24.2188,618.0156 24.7656,618.375 Z " fill="#000000"/><text fill="#000000" font-family="sans-serif" font-size="14" lengthAdjust="spacing" textLength="88" x="36" y="628.2285">Connect4Line</text><line style="stroke:#181818;stroke-width:0.5;" x1="8" x2="126" y1="638.5" y2="638.5"/><line style="stroke:#181818;stroke-width:0.5;" x1="8" x2="126" y1="646.5" y2="646.5"/><text fill="#000000" font-family="sans-serif" font-size="14" lengthAdjust="spacing" textLength="74" x="13" y="665.0332">isConnet4()</text></g><!--MD5=[a91b94de6208628ae3e5edb2825872d9]
link Connect4 to GameView--><g id="link_Connect4_GameView"><path codeLine="57" d="M259,67 C259,67 259,90.68 259,101.36 " fill="none" id="Connect4-GameView" style="stroke:#181818;stroke-width:1.0;"/><polygon fill="#181818" points="259,114.68,263,105.68,259,109.68,255,105.68,259,114.68" style="stroke:#181818;stroke-width:1.0;"/><line style="stroke:#181818;stroke-width:1.0;" x1="259" x2="259" y1="109.68" y2="101.68"/><polygon fill="#181818" points="259,55,255,61,259,67,263,61,259,55" style="stroke:#181818;stroke-width:1.0;"/><text fill="#000000" font-family="sans-serif" font-size="13" lengthAdjust="spacing" textLength="7" x="251.1469" y="104.34">1</text></g><!--MD5=[5f024f8eb4a0ae83d9027afef1d98dd6]
link GameView to PlayerView--><g id="link_GameView_PlayerView"><path codeLine="58" d="M278.8679,173.5993 C278.8679,173.5993 297.88,205.74 306.44,220.23 " fill="none" id="GameView-PlayerView" style="stroke:#181818;stroke-width:1.0;"/><polygon fill="#181818" points="313.26,231.76,312.1222,221.9771,310.7151,227.4561,305.236,226.049,313.26,231.76" style="stroke:#181818;stroke-width:1.0;"/><line style="stroke:#181818;stroke-width:1.0;" x1="310.7151" x2="306.645" y1="227.4561" y2="220.575"/><polygon fill="#181818" points="272.76,163.27,272.3708,170.4706,278.8679,173.5993,279.257,166.3987,272.76,163.27" style="stroke:#181818;stroke-width:1.0;"/><text fill="#000000" font-family="sans-serif" font-size="13" lengthAdjust="spacing" textLength="7" x="301.8423" y="221.0387">2</text></g><!--MD5=[c2d12ea21a8ed9d7b07c5ed2223bb09d]
link GameView to BoardView--><g id="link_GameView_BoardView"><path codeLine="59" d="M239.3886,173.6325 C239.3886,173.6325 224.46,199.28 217.42,211.37 " fill="none" id="GameView-BoardView" style="stroke:#181818;stroke-width:1.0;"/><polygon fill="#181818" points="210.87,222.61,218.854,216.8433,213.3849,218.2885,211.9397,212.8194,210.87,222.61" style="stroke:#181818;stroke-width:1.0;"/><line style="stroke:#181818;stroke-width:1.0;" x1="213.3849" x2="217.415" y1="218.2885" y2="211.38"/><polygon fill="#181818" points="245.44,163.27,238.9602,166.4341,239.3886,173.6325,245.8685,170.4684,245.44,163.27" style="stroke:#181818;stroke-width:1.0;"/><text fill="#000000" font-family="sans-serif" font-size="13" lengthAdjust="spacing" textLength="7" x="206.896" y="212.0295">1</text></g><!--MD5=[d7c49a2c67de04dd46fc6efbc83b34f6]
link PlayerView to Player--><g id="link_PlayerView_Player"><path codeLine="60" d="M368.5196,287.7688 C368.5196,287.7688 407.16,325.53 418,349 C483.58,491.02 478.62,679.52 469.6,780.64 " fill="none" id="PlayerView-Player" style="stroke:#181818;stroke-width:1.0;"/><polygon fill="#181818" points="468.37,793.72,473.2026,785.1383,468.8425,788.7424,465.2384,784.3823,468.37,793.72" style="stroke:#181818;stroke-width:1.0;"/><line style="stroke:#181818;stroke-width:1.0;" x1="468.8425" x2="469.59" y1="788.7424" y2="780.78"/><polygon fill="#181818" points="359.34,280.04,361.3535,286.9643,368.5196,287.7688,366.5061,280.8445,359.34,280.04" style="stroke:#181818;stroke-width:1.0;"/><text fill="#000000" font-family="sans-serif" font-size="13" lengthAdjust="spacing" textLength="7" x="461.8417" y="783.0101">1</text></g><!--MD5=[87ac28f7ff846e55e34c2c863c6ff220]
link BoardView to Board--><g id="link_BoardView_Board"><path codeLine="61" d="M192,301.18 C192,301.18 192,336.29 192,353.29 " fill="none" id="BoardView-Board" style="stroke:#181818;stroke-width:1.0;"/><polygon fill="#181818" points="192,366.33,196,357.33,192,361.33,188,357.33,192,366.33" style="stroke:#181818;stroke-width:1.0;"/><line style="stroke:#181818;stroke-width:1.0;" x1="192" x2="192" y1="361.33" y2="353.33"/><polygon fill="#181818" points="192,289.18,188,295.18,192,301.18,196,295.18,192,289.18" style="stroke:#181818;stroke-width:1.0;"/><text fill="#000000" font-family="sans-serif" font-size="13" lengthAdjust="spacing" textLength="7" x="184.5078" y="355.6115">1</text></g><!--MD5=[adaa5bc42748f6487e75f8b1802e217c]
link Connect4Line to Cell--><g id="link_Connect4Line_Cell"><path codeLine="62" d="M90.5753,683.1223 C90.5753,683.1223 131.14,756.45 149.99,790.52 " fill="none" id="Connect4Line-Cell" style="stroke:#181818;stroke-width:1.0;"/><polygon fill="#181818" points="156.47,802.23,155.6168,792.4182,154.0511,797.854,148.6153,796.2884,156.47,802.23" style="stroke:#181818;stroke-width:1.0;"/><line style="stroke:#181818;stroke-width:1.0;" x1="154.0511" x2="150.18" y1="797.854" y2="790.86"/><polygon fill="#181818" points="84.77,672.62,84.1719,679.8063,90.5753,683.1223,91.1734,675.9361,84.77,672.62" style="stroke:#181818;stroke-width:1.0;"/><text fill="#000000" font-family="sans-serif" font-size="13" lengthAdjust="spacing" textLength="22" x="129.0517" y="791.4974">1..4</text></g><!--MD5=[ceaac0422dc14080f034737aa6d658e3]
link Board to Connect4Line--><g id="link_Board_Connect4Line"><path codeLine="63" d="M163.79,467.76 C140.68,508.53 108.51,565.28 87.72,601.95 " fill="none" id="Board-to-Connect4Line" style="stroke:#181818;stroke-width:1.0;"/><polygon fill="#181818" points="85.24,606.32,93.1596,600.4651,87.7069,601.9709,86.2011,596.5181,85.24,606.32" style="stroke:#181818;stroke-width:1.0;"/></g><!--MD5=[a676224b545de2f8b00c905b7798379b]
link Board to Direction--><g id="link_Board_Direction"><path codeLine="64" d="M213.44,467.76 C222.66,489.16 233.78,514.97 244.55,539.97 " fill="none" id="Board-to-Direction" style="stroke:#181818;stroke-width:1.0;stroke-dasharray:7.0,7.0;"/><polygon fill="#181818" points="246.56,544.63,246.6543,534.7816,244.5732,540.0417,239.3131,537.9605,246.56,544.63" style="stroke:#181818;stroke-width:1.0;"/></g><!--MD5=[304335c530676c0c2555e056aeeb939b]
link Token to Color--><g id="link_Token_Color"><path codeLine="65" d="M227.4506,1037.0567 C227.4506,1037.0567 269.96,1073.27 288.74,1089.26 " fill="none" id="Token-Color" style="stroke:#181818;stroke-width:1.0;"/><polygon fill="#181818" points="298.72,1097.76,294.4676,1088.8765,294.9156,1094.5155,289.2765,1094.9635,298.72,1097.76" style="stroke:#181818;stroke-width:1.0;"/><line style="stroke:#181818;stroke-width:1.0;" x1="294.9156" x2="288.825" y1="1094.5155" y2="1089.335"/><polygon fill="#181818" points="218.32,1029.27,220.2897,1036.2069,227.4506,1037.0567,225.4809,1030.1198,218.32,1029.27" style="stroke:#181818;stroke-width:1.0;"/><text fill="#000000" font-family="sans-serif" font-size="13" lengthAdjust="spacing" textLength="7" x="283.8326" y="1087.0387">1</text></g><!--MD5=[3034702471a0933d7259313508c0a768]
link PlayerView to Board--><g id="link_PlayerView_Board"><path codeLine="66" d="M307.37,280.12 C289.18,301.55 261.43,334.23 237.7,362.17 " fill="none" id="PlayerView-to-Board" style="stroke:#181818;stroke-width:1.0;stroke-dasharray:7.0,7.0;"/><polygon fill="#181818" points="234.23,366.26,243.1149,362.0106,237.4757,362.4567,237.0296,356.8174,234.23,366.26" style="stroke:#181818;stroke-width:1.0;"/><text fill="#000000" font-family="sans-serif" font-size="13" lengthAdjust="spacing" textLength="7" x="232.6764" y="355.5316">1</text></g><!--MD5=[525e20984b3f0335f86e1ed389de5b3d]
link Player to Token--><g id="link_Player_Token"><path codeLine="67" d="M388.16,892.97 C346.11,915.67 292.35,945.05 245,972 C240.67,974.47 236.16,977.07 231.67,979.69 " fill="none" id="Player-to-Token" style="stroke:#181818;stroke-width:1.0;stroke-dasharray:7.0,7.0;"/><polygon fill="#181818" points="227.21,982.31,236.9973,981.2101,231.5237,979.7818,232.9521,974.3082,227.21,982.31" style="stroke:#181818;stroke-width:1.0;"/><text fill="#000000" font-family="sans-serif" font-size="13" lengthAdjust="spacing" textLength="29" x="234.9675" y="973.3679">0..21</text></g><!--MD5=[ebf52a6f230ff8b0d594dd9ce4cd7c5b]
link Player to Color--><g id="link_Player_Color"><path codeLine="68" d="M459.52,912.26 C456.25,950.33 447.5,999.88 425,1038 C410.15,1063.17 384.76,1084.22 363.42,1098.83 " fill="none" id="Player-to-Color" style="stroke:#181818;stroke-width:1.0;stroke-dasharray:7.0,7.0;"/><polygon fill="#181818" points="359.21,1101.66,368.9106,1099.9574,363.3592,1098.87,364.4466,1093.3187,359.21,1101.66" style="stroke:#181818;stroke-width:1.0;"/><text fill="#000000" font-family="sans-serif" font-size="13" lengthAdjust="spacing" textLength="7" x="366.7814" y="1093.3462">1</text></g><!--MD5=[5f3eff46017ea40d2ca7f35522a8d7fb]
reverse link Player to UserPlayer--><g id="link_Player_UserPlayer"><path codeLine="69" d="M523.01,927.82 C536.04,943.34 549.13,958.92 560.05,971.92 " fill="none" id="Player-backto-UserPlayer" style="stroke:#181818;stroke-width:1.0;"/><polygon fill="none" points="517.58,932.24,510.08,912.42,528.3,923.24,517.58,932.24" style="stroke:#181818;stroke-width:1.0;"/></g><!--MD5=[b416ad59bd543746be7c071034d95508]
reverse link Player to BotPlayer--><g id="link_Player_BotPlayer"><path codeLine="70" d="M398.99,927.82 C385.96,943.34 372.87,958.92 361.95,971.92 " fill="none" id="Player-backto-BotPlayer" style="stroke:#181818;stroke-width:1.0;"/><polygon fill="none" points="393.7,923.24,411.92,912.42,404.42,932.24,393.7,923.24" style="stroke:#181818;stroke-width:1.0;"/></g><!--MD5=[43768750d0920d3e29e022678001fe5b]
reverse link Coordinate to Cell--><g id="link_Coordinate_Cell"><path codeLine="71" d="M374.23,505.05 C387.75,571.65 395.27,663.69 358,734 C330.13,786.57 267.21,820.03 225.17,837.41 " fill="none" id="Coordinate-backto-Cell" style="stroke:#181818;stroke-width:1.0;"/><polygon fill="none" points="367.33,506.29,369.88,485.26,381.01,503.29,367.33,506.29" style="stroke:#181818;stroke-width:1.0;"/></g><!--MD5=[2ece631038b7899e5b9aaea57adaf24e]
link Coordinate to Direction--><g id="link_Coordinate_Direction"><path codeLine="72" d="M330.84,485.06 C325.91,502.31 320.5,521.25 315.22,539.74 " fill="none" id="Coordinate-to-Direction" style="stroke:#181818;stroke-width:1.0;stroke-dasharray:7.0,7.0;"/><polygon fill="#181818" points="313.73,544.95,320.0427,537.3902,315.0998,540.1413,312.3487,535.1985,313.73,544.95" style="stroke:#181818;stroke-width:1.0;"/></g><!--MD5=[c148346f61f96d5968c9850ebe71e5d5]
link Board to Cell--><g id="link_Board_Cell"><path codeLine="73" d="M190.8559,479.7879 C190.8559,479.7879 186.67,706.99 185.16,789.31 " fill="none" id="Board-Cell" style="stroke:#181818;stroke-width:1.0;"/><polygon fill="#181818" points="184.91,802.46,189.0774,793.5363,185.0034,797.4609,181.0788,793.3869,184.91,802.46" style="stroke:#181818;stroke-width:1.0;"/><line style="stroke:#181818;stroke-width:1.0;" x1="185.0034" x2="185.15" y1="797.4609" y2="789.465"/><polygon fill="#181818" points="191.08,467.79,186.9686,473.7142,190.8559,479.7879,194.9672,473.8637,191.08,467.79" style="stroke:#181818;stroke-width:1.0;"/><text fill="#000000" font-family="sans-serif" font-size="13" lengthAdjust="spacing" textLength="36" x="187.5692" y="791.7597">0..6x7</text></g><!--MD5=[fce0ecac75e8c80d670912ff12805e20]
link Cell to Token--><g id="link_Cell_Token"><path codeLine="74" d="M186.8639,915.5172 C186.8639,915.5172 188.6,952.48 189.31,967.83 " fill="none" id="Cell-Token" style="stroke:#181818;stroke-width:1.0;"/><polygon fill="#181818" points="189.93,980.98,193.5103,971.805,189.6992,975.9853,185.5189,972.1742,189.93,980.98" style="stroke:#181818;stroke-width:1.0;"/><line style="stroke:#181818;stroke-width:1.0;" x1="189.6992" x2="189.315" y1="975.9853" y2="967.99"/><polygon fill="none" points="186.31,903.53,182.5912,909.7082,186.8639,915.5172,190.5827,909.339,186.31,903.53" style="stroke:#181818;stroke-width:1.0;"/><text fill="#000000" font-family="sans-serif" font-size="13" lengthAdjust="spacing" textLength="7" x="181.7589" y="970.315">1</text></g><!--MD5=[586a9e00ea736867f93bf237e4ad2c76]
@startuml Connect4
class Connect4

class Direction {
    {static} NORT
    {static} NORT_EAST
    {static} EAST
    {static} SOUTH_EAST
    {static} SOUTH
    {static} SOUTH_WEST
    {static} WEST
    {static} NORT_WEST
}

class Board{
    -GRID:Array
    getGrid()
    putToken()
}
class GameView {
}
class PlayerView {
}
class BoardView {
    show()
}
class Player {
    -color
    getToken()
    getColor()
    {abstract} getSelectedColumn()
}
class UserPlayer {
    getSelectedColumn()
}
class BotPlayer {
    getSelectedColumn()
}
class Cell {
    -token
    getToken()
    setToken()
}
class Coordinate {
    getShifted()
    getCol()
    setCol()
    getRow()
    setRow()
}
class Token
class Color{
}
class Connect4Line {
    isConnet4()
}

Connect4 *- -> "1" GameView
GameView *- -> "2" PlayerView
GameView *- -> "1" BoardView
PlayerView *- -> "1" Player
BoardView *- -> "1" Board
Connect4Line *- -> "1..4" Cell
Board - -> Connect4Line
Board ..> Direction
Token *- -> "1" Color
PlayerView ..> "1" Board
Player ..> "0..21" Token
Player ..> "1"Color
Player <|- - UserPlayer
Player <|- - BotPlayer
Coordinate <|- - Cell
Coordinate ..> Direction
Board *- - -> "0..6x7" Cell
Cell o- -> "1" Token
@enduml

PlantUML version 1.2022.7(Mon Aug 22 11:01:30 GMT-06:00 2022)
(GPL source distribution)
Java Runtime: OpenJDK Runtime Environment
JVM: OpenJDK 64-Bit Server VM
Default Encoding: Cp1252
Language: es
Country: MX
--></g></svg>