<?xml version="1.0" encoding="us-ascii" standalone="no"?><svg xmlns="http://www.w3.org/2000/svg" xmlns:xlink="http://www.w3.org/1999/xlink" contentStyleType="text/css" height="592px" preserveAspectRatio="none" style="width:361px;height:592px;background:#FFFFFF;" version="1.1" viewBox="0 0 361 592" width="361px" zoomAndPan="magnify"><defs/><g><!--class Connect4--><g id="elem_Connect4"><rect codeLine="1" fill="#F1F1F1" height="48" id="Connect4" rx="2.5" ry="2.5" style="stroke:#181818;stroke-width:0.5;" width="101" x="151" y="7"/><ellipse cx="166" cy="23" fill="#ADD1B2" rx="11" ry="11" style="stroke:#181818;stroke-width:1.0;"/><path d="M168.3438,18.6719 C167.4063,18.2344 166.8125,18.0938 165.9375,18.0938 C163.3125,18.0938 161.3125,20.1719 161.3125,22.8906 L161.3125,24.0156 C161.3125,26.5938 163.4219,28.4844 166.3125,28.4844 C167.5313,28.4844 168.6875,28.1875 169.4375,27.6406 C170.0156,27.2344 170.3438,26.7813 170.3438,26.3906 C170.3438,25.9375 169.9531,25.5469 169.4844,25.5469 C169.2656,25.5469 169.0625,25.625 168.875,25.8125 C168.4219,26.2969 168.4219,26.2969 168.2344,26.3906 C167.8125,26.6563 167.125,26.7813 166.3594,26.7813 C164.3125,26.7813 163.0156,25.6875 163.0156,23.9844 L163.0156,22.8906 C163.0156,21.1094 164.2656,19.7969 166,19.7969 C166.5781,19.7969 167.1875,19.9531 167.6563,20.2031 C168.1406,20.4844 168.3125,20.7031 168.4063,21.1094 C168.4688,21.5156 168.5,21.6406 168.6406,21.7656 C168.7813,21.9063 169.0156,22.0156 169.2344,22.0156 C169.5,22.0156 169.7656,21.875 169.9375,21.6563 C170.0469,21.5 170.0781,21.3125 170.0781,20.8906 L170.0781,19.4688 C170.0781,19.0313 170.0625,18.9063 169.9688,18.75 C169.8125,18.4844 169.5313,18.3438 169.2344,18.3438 C168.9375,18.3438 168.7344,18.4375 168.5156,18.75 L168.3438,18.6719 Z " fill="#000000"/><text fill="#000000" font-family="sans-serif" font-size="14" lengthAdjust="spacing" textLength="69" x="180" y="27.8467">Connect4</text><line style="stroke:#181818;stroke-width:0.5;" x1="152" x2="251" y1="39" y2="39"/><line style="stroke:#181818;stroke-width:0.5;" x1="152" x2="251" y1="47" y2="47"/></g><!--class Board--><g id="elem_Board"><rect codeLine="2" fill="#F1F1F1" height="96.8906" id="Board" rx="2.5" ry="2.5" style="stroke:#181818;stroke-width:0.5;" width="105" x="7" y="115"/><ellipse cx="35.95" cy="131" fill="#ADD1B2" rx="11" ry="11" style="stroke:#181818;stroke-width:1.0;"/><path d="M38.2938,126.6719 C37.3563,126.2344 36.7625,126.0938 35.8875,126.0938 C33.2625,126.0938 31.2625,128.1719 31.2625,130.8906 L31.2625,132.0156 C31.2625,134.5938 33.3719,136.4844 36.2625,136.4844 C37.4813,136.4844 38.6375,136.1875 39.3875,135.6406 C39.9656,135.2344 40.2938,134.7813 40.2938,134.3906 C40.2938,133.9375 39.9031,133.5469 39.4344,133.5469 C39.2156,133.5469 39.0125,133.625 38.825,133.8125 C38.3719,134.2969 38.3719,134.2969 38.1844,134.3906 C37.7625,134.6563 37.075,134.7813 36.3094,134.7813 C34.2625,134.7813 32.9656,133.6875 32.9656,131.9844 L32.9656,130.8906 C32.9656,129.1094 34.2156,127.7969 35.95,127.7969 C36.5281,127.7969 37.1375,127.9531 37.6063,128.2031 C38.0906,128.4844 38.2625,128.7031 38.3563,129.1094 C38.4188,129.5156 38.45,129.6406 38.5906,129.7656 C38.7313,129.9063 38.9656,130.0156 39.1844,130.0156 C39.45,130.0156 39.7156,129.875 39.8875,129.6563 C39.9969,129.5 40.0281,129.3125 40.0281,128.8906 L40.0281,127.4688 C40.0281,127.0313 40.0125,126.9063 39.9188,126.75 C39.7625,126.4844 39.4813,126.3438 39.1844,126.3438 C38.8875,126.3438 38.6844,126.4375 38.4656,126.75 L38.2938,126.6719 Z " fill="#000000"/><text fill="#000000" font-family="sans-serif" font-size="14" lengthAdjust="spacing" textLength="42" x="53.05" y="135.8467">Board</text><line style="stroke:#181818;stroke-width:0.5;" x1="8" x2="111" y1="147" y2="147"/><rect fill="none" height="6" style="stroke:#C82930;stroke-width:1.0;" width="6" x="15" y="157.6484"/><text fill="#000000" font-family="sans-serif" font-size="14" lengthAdjust="spacing" textLength="79" x="27" y="163.9951">GRID:Array</text><line style="stroke:#181818;stroke-width:0.5;" x1="8" x2="111" y1="171.2969" y2="171.2969"/><text fill="#000000" font-family="sans-serif" font-size="14" lengthAdjust="spacing" textLength="65" x="13" y="188.292">getGrid()</text><text fill="#000000" font-family="sans-serif" font-size="14" lengthAdjust="spacing" textLength="62" x="13" y="204.5889">getCell()</text></g><!--class BoardView--><g id="elem_BoardView"><rect codeLine="8" fill="#F1F1F1" height="64.2969" id="BoardView" rx="2.5" ry="2.5" style="stroke:#181818;stroke-width:0.5;" width="108" x="147.5" y="131.5"/><ellipse cx="162.5" cy="147.5" fill="#ADD1B2" rx="11" ry="11" style="stroke:#181818;stroke-width:1.0;"/><path d="M164.8438,143.1719 C163.9063,142.7344 163.3125,142.5938 162.4375,142.5938 C159.8125,142.5938 157.8125,144.6719 157.8125,147.3906 L157.8125,148.5156 C157.8125,151.0938 159.9219,152.9844 162.8125,152.9844 C164.0313,152.9844 165.1875,152.6875 165.9375,152.1406 C166.5156,151.7344 166.8438,151.2813 166.8438,150.8906 C166.8438,150.4375 166.4531,150.0469 165.9844,150.0469 C165.7656,150.0469 165.5625,150.125 165.375,150.3125 C164.9219,150.7969 164.9219,150.7969 164.7344,150.8906 C164.3125,151.1563 163.625,151.2813 162.8594,151.2813 C160.8125,151.2813 159.5156,150.1875 159.5156,148.4844 L159.5156,147.3906 C159.5156,145.6094 160.7656,144.2969 162.5,144.2969 C163.0781,144.2969 163.6875,144.4531 164.1563,144.7031 C164.6406,144.9844 164.8125,145.2031 164.9063,145.6094 C164.9688,146.0156 165,146.1406 165.1406,146.2656 C165.2813,146.4063 165.5156,146.5156 165.7344,146.5156 C166,146.5156 166.2656,146.375 166.4375,146.1563 C166.5469,146 166.5781,145.8125 166.5781,145.3906 L166.5781,143.9688 C166.5781,143.5313 166.5625,143.4063 166.4688,143.25 C166.3125,142.9844 166.0313,142.8438 165.7344,142.8438 C165.4375,142.8438 165.2344,142.9375 165.0156,143.25 L164.8438,143.1719 Z " fill="#000000"/><text fill="#000000" font-family="sans-serif" font-size="14" lengthAdjust="spacing" textLength="76" x="176.5" y="152.3467">BoardView</text><line style="stroke:#181818;stroke-width:0.5;" x1="148.5" x2="254.5" y1="163.5" y2="163.5"/><line style="stroke:#181818;stroke-width:0.5;" x1="148.5" x2="254.5" y1="171.5" y2="171.5"/><text fill="#000000" font-family="sans-serif" font-size="14" lengthAdjust="spacing" textLength="88" x="153.5" y="188.4951">showBoard()</text></g><!--class Player--><g id="elem_Player"><rect codeLine="11" fill="#F1F1F1" height="96.8906" id="Player" rx="2.5" ry="2.5" style="stroke:#181818;stroke-width:0.5;" width="92" x="262.5" y="272"/><ellipse cx="284.7" cy="288" fill="#ADD1B2" rx="11" ry="11" style="stroke:#181818;stroke-width:1.0;"/><path d="M287.0438,283.6719 C286.1063,283.2344 285.5125,283.0938 284.6375,283.0938 C282.0125,283.0938 280.0125,285.1719 280.0125,287.8906 L280.0125,289.0156 C280.0125,291.5938 282.1219,293.4844 285.0125,293.4844 C286.2313,293.4844 287.3875,293.1875 288.1375,292.6406 C288.7156,292.2344 289.0438,291.7813 289.0438,291.3906 C289.0438,290.9375 288.6531,290.5469 288.1844,290.5469 C287.9656,290.5469 287.7625,290.625 287.575,290.8125 C287.1219,291.2969 287.1219,291.2969 286.9344,291.3906 C286.5125,291.6563 285.825,291.7813 285.0594,291.7813 C283.0125,291.7813 281.7156,290.6875 281.7156,288.9844 L281.7156,287.8906 C281.7156,286.1094 282.9656,284.7969 284.7,284.7969 C285.2781,284.7969 285.8875,284.9531 286.3563,285.2031 C286.8406,285.4844 287.0125,285.7031 287.1063,286.1094 C287.1688,286.5156 287.2,286.6406 287.3406,286.7656 C287.4813,286.9063 287.7156,287.0156 287.9344,287.0156 C288.2,287.0156 288.4656,286.875 288.6375,286.6563 C288.7469,286.5 288.7781,286.3125 288.7781,285.8906 L288.7781,284.4688 C288.7781,284.0313 288.7625,283.9063 288.6688,283.75 C288.5125,283.4844 288.2313,283.3438 287.9344,283.3438 C287.6375,283.3438 287.4344,283.4375 287.2156,283.75 L287.0438,283.6719 Z " fill="#000000"/><text fill="#000000" font-family="sans-serif" font-size="14" lengthAdjust="spacing" textLength="44" x="300.3" y="292.8467">Player</text><line style="stroke:#181818;stroke-width:0.5;" x1="263.5" x2="353.5" y1="304" y2="304"/><rect fill="none" height="6" style="stroke:#C82930;stroke-width:1.0;" width="6" x="270.5" y="314.6484"/><text fill="#000000" font-family="sans-serif" font-size="14" lengthAdjust="spacing" textLength="36" x="282.5" y="320.9951">color</text><line style="stroke:#181818;stroke-width:0.5;" x1="263.5" x2="353.5" y1="328.2969" y2="328.2969"/><text fill="#000000" font-family="sans-serif" font-size="14" lengthAdjust="spacing" textLength="80" x="268.5" y="345.292">getToken()</text><text fill="#000000" font-family="sans-serif" font-size="14" lengthAdjust="spacing" textLength="73" x="268.5" y="361.5889">getColor()</text></g><!--class Cell--><g id="elem_Cell"><rect codeLine="16" fill="#F1F1F1" height="96.8906" id="Cell" rx="2.5" ry="2.5" style="stroke:#181818;stroke-width:0.5;" width="92" x="135.5" y="272"/><ellipse cx="165.35" cy="288" fill="#ADD1B2" rx="11" ry="11" style="stroke:#181818;stroke-width:1.0;"/><path d="M167.6938,283.6719 C166.7563,283.2344 166.1625,283.0938 165.2875,283.0938 C162.6625,283.0938 160.6625,285.1719 160.6625,287.8906 L160.6625,289.0156 C160.6625,291.5938 162.7719,293.4844 165.6625,293.4844 C166.8813,293.4844 168.0375,293.1875 168.7875,292.6406 C169.3656,292.2344 169.6938,291.7813 169.6938,291.3906 C169.6938,290.9375 169.3031,290.5469 168.8344,290.5469 C168.6156,290.5469 168.4125,290.625 168.225,290.8125 C167.7719,291.2969 167.7719,291.2969 167.5844,291.3906 C167.1625,291.6563 166.475,291.7813 165.7094,291.7813 C163.6625,291.7813 162.3656,290.6875 162.3656,288.9844 L162.3656,287.8906 C162.3656,286.1094 163.6156,284.7969 165.35,284.7969 C165.9281,284.7969 166.5375,284.9531 167.0063,285.2031 C167.4906,285.4844 167.6625,285.7031 167.7563,286.1094 C167.8188,286.5156 167.85,286.6406 167.9906,286.7656 C168.1313,286.9063 168.3656,287.0156 168.5844,287.0156 C168.85,287.0156 169.1156,286.875 169.2875,286.6563 C169.3969,286.5 169.4281,286.3125 169.4281,285.8906 L169.4281,284.4688 C169.4281,284.0313 169.4125,283.9063 169.3188,283.75 C169.1625,283.4844 168.8813,283.3438 168.5844,283.3438 C168.2875,283.3438 168.0844,283.4375 167.8656,283.75 L167.6938,283.6719 Z " fill="#000000"/><text fill="#000000" font-family="sans-serif" font-size="14" lengthAdjust="spacing" textLength="27" x="182.65" y="292.8467">Cell</text><line style="stroke:#181818;stroke-width:0.5;" x1="136.5" x2="226.5" y1="304" y2="304"/><rect fill="none" height="6" style="stroke:#C82930;stroke-width:1.0;" width="6" x="143.5" y="314.6484"/><text fill="#000000" font-family="sans-serif" font-size="14" lengthAdjust="spacing" textLength="43" x="155.5" y="320.9951">token</text><line style="stroke:#181818;stroke-width:0.5;" x1="136.5" x2="226.5" y1="328.2969" y2="328.2969"/><text fill="#000000" font-family="sans-serif" font-size="14" lengthAdjust="spacing" textLength="80" x="141.5" y="345.292">getToken()</text><text fill="#000000" font-family="sans-serif" font-size="14" lengthAdjust="spacing" textLength="78" x="141.5" y="361.5889">setToken()</text></g><!--class Token--><g id="elem_Token"><rect codeLine="21" fill="#F1F1F1" height="48" id="Token" rx="2.5" ry="2.5" style="stroke:#181818;stroke-width:0.5;" width="77" x="178" y="429"/><ellipse cx="193" cy="445" fill="#ADD1B2" rx="11" ry="11" style="stroke:#181818;stroke-width:1.0;"/><path d="M195.3438,440.6719 C194.4063,440.2344 193.8125,440.0938 192.9375,440.0938 C190.3125,440.0938 188.3125,442.1719 188.3125,444.8906 L188.3125,446.0156 C188.3125,448.5938 190.4219,450.4844 193.3125,450.4844 C194.5313,450.4844 195.6875,450.1875 196.4375,449.6406 C197.0156,449.2344 197.3438,448.7813 197.3438,448.3906 C197.3438,447.9375 196.9531,447.5469 196.4844,447.5469 C196.2656,447.5469 196.0625,447.625 195.875,447.8125 C195.4219,448.2969 195.4219,448.2969 195.2344,448.3906 C194.8125,448.6563 194.125,448.7813 193.3594,448.7813 C191.3125,448.7813 190.0156,447.6875 190.0156,445.9844 L190.0156,444.8906 C190.0156,443.1094 191.2656,441.7969 193,441.7969 C193.5781,441.7969 194.1875,441.9531 194.6563,442.2031 C195.1406,442.4844 195.3125,442.7031 195.4063,443.1094 C195.4688,443.5156 195.5,443.6406 195.6406,443.7656 C195.7813,443.9063 196.0156,444.0156 196.2344,444.0156 C196.5,444.0156 196.7656,443.875 196.9375,443.6563 C197.0469,443.5 197.0781,443.3125 197.0781,442.8906 L197.0781,441.4688 C197.0781,441.0313 197.0625,440.9063 196.9688,440.75 C196.8125,440.4844 196.5313,440.3438 196.2344,440.3438 C195.9375,440.3438 195.7344,440.4375 195.5156,440.75 L195.3438,440.6719 Z " fill="#000000"/><text fill="#000000" font-family="sans-serif" font-size="14" lengthAdjust="spacing" textLength="45" x="207" y="449.8467">Token</text><line style="stroke:#181818;stroke-width:0.5;" x1="179" x2="254" y1="461" y2="461"/><line style="stroke:#181818;stroke-width:0.5;" x1="179" x2="254" y1="469" y2="469"/></g><!--class Color--><g id="elem_Color"><rect codeLine="22" fill="#F1F1F1" height="48" id="Color" rx="2.5" ry="2.5" style="stroke:#181818;stroke-width:0.5;" width="70" x="227.5" y="537"/><ellipse cx="242.5" cy="553" fill="#EB937F" rx="11" ry="11" style="stroke:#181818;stroke-width:1.0;"/><path d="M241.2969,553.875 L242.75,553.875 L242.75,553.9844 C242.75,554.3906 242.7813,554.5469 242.8594,554.7031 C243.0156,554.9531 243.2969,555.1094 243.5938,555.1094 C243.8438,555.1094 244.1094,554.9688 244.2656,554.75 C244.3906,554.5938 244.4219,554.4375 244.4219,553.9844 L244.4219,552.0625 C244.4219,551.9063 244.4219,551.8594 244.4063,551.7031 C244.3438,551.2344 244.0313,550.9219 243.5781,550.9219 C243.3281,550.9219 243.0625,551.0625 242.8906,551.2813 C242.7813,551.4531 242.75,551.6094 242.75,552.0625 L242.75,552.1875 L241.2969,552.1875 L241.2969,549.7813 L245.2813,549.7813 L245.2813,550.6406 C245.2813,551.0469 245.3125,551.2188 245.3906,551.375 C245.5625,551.625 245.8438,551.7813 246.125,551.7813 C246.3906,551.7813 246.6563,551.6406 246.8281,551.4219 C246.9375,551.25 246.9688,551.1094 246.9688,550.6406 L246.9688,548.0938 L239.3438,548.0938 C238.9063,548.0938 238.7813,548.1094 238.625,548.2031 C238.375,548.3594 238.2188,548.6563 238.2188,548.9375 C238.2188,549.2188 238.3594,549.4688 238.5781,549.6406 C238.7344,549.75 238.9219,549.7813 239.3438,549.7813 L239.5938,549.7813 L239.5938,556.2969 L239.3438,556.2969 C238.9375,556.2969 238.7813,556.3125 238.625,556.4219 C238.375,556.5938 238.2188,556.8594 238.2188,557.1563 C238.2188,557.4219 238.3594,557.6719 238.5781,557.8281 C238.7188,557.9531 238.9531,558 239.3438,558 L247.3438,558 L247.3438,555.4219 C247.3438,554.9844 247.3125,554.8438 247.2344,554.6875 C247.0625,554.4375 246.7813,554.2813 246.5,554.2813 C246.2344,554.2813 245.9688,554.3906 245.7969,554.6406 C245.6875,554.7969 245.6563,554.9375 245.6563,555.4219 L245.6563,556.2969 L241.2969,556.2969 L241.2969,553.875 Z " fill="#000000"/><text fill="#000000" font-family="sans-serif" font-size="14" lengthAdjust="spacing" textLength="38" x="256.5" y="557.8467">Color</text><line style="stroke:#181818;stroke-width:0.5;" x1="228.5" x2="296.5" y1="569" y2="569"/><line style="stroke:#181818;stroke-width:0.5;" x1="228.5" x2="296.5" y1="577" y2="577"/></g><!--link Connect4 to Board--><g id="link_Connect4_Board"><path codeLine="24" d="M166.599,64.074 C152.827,76.731 136.586,91.657 120.971,106.007 " fill="none" id="Connect4-Board" style="stroke:#181818;stroke-width:1.0;"/><polygon fill="#181818" points="176.44,55.03,169.3156,56.1452,167.6049,63.1504,174.7292,62.0352,176.44,55.03" style="stroke:#181818;stroke-width:1.0;"/><polygon fill="#181818" points="111.357,114.843,120.6901,111.6977,115.0383,111.4595,115.2765,105.8077,111.357,114.843" style="stroke:#181818;stroke-width:1.0;"/><line style="stroke:#181818;stroke-width:1.0;" x1="115.0383" x2="120.929" y1="111.4595" y2="106.046"/><text fill="#000000" font-family="sans-serif" font-size="13" lengthAdjust="spacing" textLength="8" x="110.0869" y="104.0298">1</text></g><!--link Connect4 to BoardView--><g id="link_Connect4_BoardView"><path codeLine="25" d="M201.5,68.232 C201.5,83.73 201.5,101.971 201.5,118.258 " fill="none" id="Connect4-BoardView" style="stroke:#181818;stroke-width:1.0;"/><polygon fill="#181818" points="201.5,55.03,197.5,61.03,201.5,67.03,205.5,61.03,201.5,55.03" style="stroke:#181818;stroke-width:1.0;"/><polygon fill="#181818" points="201.5,131.375,205.5,122.375,201.5,126.375,197.5,122.375,201.5,131.375" style="stroke:#181818;stroke-width:1.0;"/><line style="stroke:#181818;stroke-width:1.0;" x1="201.5" x2="201.5" y1="126.375" y2="118.375"/><text fill="#000000" font-family="sans-serif" font-size="13" lengthAdjust="spacing" textLength="8" x="192.675" y="120.2523">1</text></g><!--link Connect4 to Player--><g id="link_Connect4_Player"><path codeLine="26" d="M236.849,64.964 C250.01,79.133 263.838,96.647 272.5,115 C293.88,160.303 302.657,216.679 306.213,258.759 " fill="none" id="Connect4-Player" style="stroke:#181818;stroke-width:1.0;"/><polygon fill="#181818" points="227.466,55.274,228.7663,62.3669,235.8137,63.8947,234.5134,56.8018,227.466,55.274" style="stroke:#181818;stroke-width:1.0;"/><polygon fill="#181818" points="307.193,271.887,310.5113,262.614,306.8204,266.9009,302.5335,263.2101,307.193,271.887" style="stroke:#181818;stroke-width:1.0;"/><line style="stroke:#181818;stroke-width:1.0;" x1="306.8204" x2="306.225" y1="266.9009" y2="258.923"/><text fill="#000000" font-family="sans-serif" font-size="13" lengthAdjust="spacing" textLength="8" x="298.4467" y="261.08">2</text></g><!--link BoardView to Cell--><g id="link_BoardView_Cell"><path codeLine="27" d="M197.453,195.867 C194.821,216.265 191.323,243.368 188.274,266.998 " fill="none" id="BoardView-to-Cell" style="stroke:#181818;stroke-width:1.0;stroke-dasharray:7.0,7.0;"/><polygon fill="#181818" points="187.631,271.984,192.7499,263.5699,188.2709,267.0251,184.8156,262.5461,187.631,271.984" style="stroke:#181818;stroke-width:1.0;"/></g><!--link Player to Token--><g id="link_Player_Token"><path codeLine="28" d="M266.951,380.437 C257.925,393.24 248.668,406.37 240.588,417.832 " fill="none" id="Player-Token" style="stroke:#181818;stroke-width:1.0;"/><polygon fill="none" points="274.765,369.352,268.0386,371.9511,267.8507,379.1597,274.5771,376.5607,274.765,369.352" style="stroke:#181818;stroke-width:1.0;"/><polygon fill="#181818" points="232.953,428.662,241.4081,423.6112,235.8341,424.5755,234.8698,419.0015,232.953,428.662" style="stroke:#181818;stroke-width:1.0;"/><line style="stroke:#181818;stroke-width:1.0;" x1="235.8341" x2="240.443" y1="424.5755" y2="418.037"/></g><!--link Token to Color--><g id="link_Token_Color"><path codeLine="29" d="M231.661,488.9353 C236.603,500.3249 242.095,512.9788 247.058,524.4155 " fill="none" id="Token-Color" style="stroke:#181818;stroke-width:1.0;"/><polygon fill="#181818" points="226.481,477,225.2002,484.0964,231.2581,488.0081,232.5389,480.9117,226.481,477" style="stroke:#181818;stroke-width:1.0;"/><polygon fill="#181818" points="252.379,536.6784,252.4656,526.8299,250.3885,532.0917,245.1268,530.0147,252.379,536.6784" style="stroke:#181818;stroke-width:1.0;"/><line style="stroke:#181818;stroke-width:1.0;" x1="250.3885" x2="247.204" y1="532.0917" y2="524.753"/></g><!--link Player to Color--><g id="link_Player_Color"><path codeLine="30" d="M299.302,369.191 C289.917,417.847 275.668,491.7253 267.942,531.782 " fill="none" id="Player-to-Color" style="stroke:#181818;stroke-width:1.0;stroke-dasharray:7.0,7.0;"/><polygon fill="#181818" points="266.942,536.9675,272.574,528.8879,267.8889,532.058,264.7188,527.3728,266.942,536.9675" style="stroke:#181818;stroke-width:1.0;"/></g><!--link Board to Cell--><g id="link_Board_Cell"><path codeLine="32" d="M105.3258,222.721 C115.298,235.391 125.848,248.795 135.815,261.458 " fill="none" id="Board-Cell" style="stroke:#181818;stroke-width:1.0;"/><polygon fill="#181818" points="97.0995,212.27,97.6673,219.4587,104.5214,221.6995,103.9536,214.5108,97.0995,212.27" style="stroke:#181818;stroke-width:1.0;"/><polygon fill="#181818" points="144.025,271.888,141.6013,262.342,140.9324,267.9592,135.3152,267.2902,144.025,271.888" style="stroke:#181818;stroke-width:1.0;"/><line style="stroke:#181818;stroke-width:1.0;" x1="140.9324" x2="135.9845" y1="267.9592" y2="261.6725"/><text fill="#000000" font-family="sans-serif" font-size="13" lengthAdjust="spacing" textLength="40" x="95.9421" y="261.0812">0..6x7</text></g><!--link Cell to Token--><g id="link_Cell_Token"><path codeLine="33" d="M197.831,382.39 C200.9,393.833 204.017,405.455 206.802,415.84 " fill="none" id="Cell-Token" style="stroke:#181818;stroke-width:1.0;"/><polygon fill="#181818" points="194.334,369.352,192.0247,376.1833,197.4423,380.9425,199.7516,374.1111,194.334,369.352" style="stroke:#181818;stroke-width:1.0;"/><polygon fill="#181818" points="210.241,428.662,211.7725,418.9329,208.9455,423.8327,204.0457,421.0057,210.241,428.662" style="stroke:#181818;stroke-width:1.0;"/><line style="stroke:#181818;stroke-width:1.0;" x1="208.9455" x2="206.873" y1="423.8327" y2="416.106"/><text fill="#000000" font-family="sans-serif" font-size="13" lengthAdjust="spacing" textLength="8" x="199.7404" y="417.9846">1</text></g><!--SRC=[TKz12i8m4Bpd5I4d5HfKHC53GIiKRoBYFQH1Yp61f59ByUyscyGMqHm2ipipEyCbinPdMYd1gmNY0BUQcQ95k7j9VjplrXjZM0Fu8ghSbCLe754cfEpG2msrvrBKs1lOgwvX1YJFEKZM21C82TTIcsXtqZUX1kvkDr2wQr5NEUeldUrXr056GZtk62pRRXDBuqcIf9ZCYC_-R-uwVU_c97H1VMrAKuY9GaljcFu-_5uAAI85933mFi5zIkdokIBU3Pf_4e7J6m00]--></g></svg>