<?xml version="1.0" encoding="UTF-8" standalone="no"?><svg xmlns="http://www.w3.org/2000/svg" xmlns:xlink="http://www.w3.org/1999/xlink" contentStyleType="text/css" height="1153px" preserveAspectRatio="none" style="width:742px;height:1153px;background:#FFFFFF;" version="1.1" viewBox="0 0 742 1153" width="742px" zoomAndPan="magnify"><defs/><g><!--MD5=[10b1f240992e2c34b6908209bf85bfd2]
class Connect4--><g id="elem_Connect4"><rect codeLine="1" fill="#F1F1F1" height="48" id="Connect4" rx="2.5" ry="2.5" style="stroke:#181818;stroke-width:0.5;" width="93" x="192" y="7"/><ellipse cx="207" cy="23" fill="#ADD1B2" rx="11" ry="11" style="stroke:#181818;stroke-width:1.0;"/><path d="M209.7656,18.875 Q209.9219,18.6563 210.1094,18.5469 Q210.2969,18.4375 210.5156,18.4375 Q210.8906,18.4375 211.125,18.7031 Q211.3594,18.9531 211.3594,19.5625 L211.3594,21.0156 Q211.3594,21.625 211.125,21.8906 Q210.8906,22.1563 210.5156,22.1563 Q210.1719,22.1563 209.9688,21.9531 Q209.7656,21.7656 209.6563,21.25 Q209.6094,20.8906 209.4219,20.7031 Q209.0938,20.3281 208.4844,20.1094 Q207.875,19.8906 207.25,19.8906 Q206.4844,19.8906 205.8438,20.2188 Q205.2188,20.5469 204.7188,21.2969 Q204.2344,22.0469 204.2344,23.0781 L204.2344,24.1719 Q204.2344,25.4063 205.125,26.2344 Q206.0156,27.0469 207.6094,27.0469 Q208.5469,27.0469 209.2031,26.7969 Q209.5938,26.6406 210.0156,26.2031 Q210.2813,25.9375 210.4219,25.8594 Q210.5781,25.7813 210.7813,25.7813 Q211.1094,25.7813 211.3594,26.0469 Q211.625,26.2969 211.625,26.6406 Q211.625,26.9844 211.2813,27.3906 Q210.7813,27.9688 209.9844,28.2969 Q208.9063,28.75 207.6094,28.75 Q206.0938,28.75 204.8906,28.125 Q203.9063,27.625 203.2188,26.5625 Q202.5313,25.4844 202.5313,24.2031 L202.5313,23.0469 Q202.5313,21.7188 203.1406,20.5781 Q203.7656,19.4219 204.8594,18.8125 Q205.9531,18.1875 207.1875,18.1875 Q207.9219,18.1875 208.5625,18.3594 Q209.2188,18.5156 209.7656,18.875 Z " fill="#000000"/><text fill="#000000" font-family="sans-serif" font-size="14" lengthAdjust="spacing" textLength="61" x="221" y="28.7285">Connect4</text><line style="stroke:#181818;stroke-width:0.5;" x1="193" x2="284" y1="39" y2="39"/><line style="stroke:#181818;stroke-width:0.5;" x1="193" x2="284" y1="47" y2="47"/></g><!--MD5=[dd91eae41778c45e12552e5329e240e8]
class Turn--><g id="elem_Turn"><rect codeLine="4" fill="#F1F1F1" height="48" id="Turn" rx="2.5" ry="2.5" style="stroke:#181818;stroke-width:0.5;" width="62" x="149.5" y="232"/><ellipse cx="164.5" cy="248" fill="#ADD1B2" rx="11" ry="11" style="stroke:#181818;stroke-width:1.0;"/><path d="M167.2656,243.875 Q167.4219,243.6563 167.6094,243.5469 Q167.7969,243.4375 168.0156,243.4375 Q168.3906,243.4375 168.625,243.7031 Q168.8594,243.9531 168.8594,244.5625 L168.8594,246.0156 Q168.8594,246.625 168.625,246.8906 Q168.3906,247.1563 168.0156,247.1563 Q167.6719,247.1563 167.4688,246.9531 Q167.2656,246.7656 167.1563,246.25 Q167.1094,245.8906 166.9219,245.7031 Q166.5938,245.3281 165.9844,245.1094 Q165.375,244.8906 164.75,244.8906 Q163.9844,244.8906 163.3438,245.2188 Q162.7188,245.5469 162.2188,246.2969 Q161.7344,247.0469 161.7344,248.0781 L161.7344,249.1719 Q161.7344,250.4063 162.625,251.2344 Q163.5156,252.0469 165.1094,252.0469 Q166.0469,252.0469 166.7031,251.7969 Q167.0938,251.6406 167.5156,251.2031 Q167.7813,250.9375 167.9219,250.8594 Q168.0781,250.7813 168.2813,250.7813 Q168.6094,250.7813 168.8594,251.0469 Q169.125,251.2969 169.125,251.6406 Q169.125,251.9844 168.7813,252.3906 Q168.2813,252.9688 167.4844,253.2969 Q166.4063,253.75 165.1094,253.75 Q163.5938,253.75 162.3906,253.125 Q161.4063,252.625 160.7188,251.5625 Q160.0313,250.4844 160.0313,249.2031 L160.0313,248.0469 Q160.0313,246.7188 160.6406,245.5781 Q161.2656,244.4219 162.3594,243.8125 Q163.4531,243.1875 164.6875,243.1875 Q165.4219,243.1875 166.0625,243.3594 Q166.7188,243.5156 167.2656,243.875 Z " fill="#000000"/><text fill="#000000" font-family="sans-serif" font-size="14" lengthAdjust="spacing" textLength="30" x="178.5" y="253.7285">Turn</text><line style="stroke:#181818;stroke-width:0.5;" x1="150.5" x2="210.5" y1="264" y2="264"/><line style="stroke:#181818;stroke-width:0.5;" x1="150.5" x2="210.5" y1="272" y2="272"/></g><!--MD5=[02f7077ed79257124e28b791f351f1d7]
class Direction--><g id="elem_Direction"><rect codeLine="7" fill="#F1F1F1" height="188.875" id="Direction" rx="2.5" ry="2.5" style="stroke:#181818;stroke-width:0.5;" width="121" x="558" y="545"/><ellipse cx="587.85" cy="561" fill="#ADD1B2" rx="11" ry="11" style="stroke:#181818;stroke-width:1.0;"/><path d="M590.6156,556.875 Q590.7719,556.6563 590.9594,556.5469 Q591.1469,556.4375 591.3656,556.4375 Q591.7406,556.4375 591.975,556.7031 Q592.2094,556.9531 592.2094,557.5625 L592.2094,559.0156 Q592.2094,559.625 591.975,559.8906 Q591.7406,560.1563 591.3656,560.1563 Q591.0219,560.1563 590.8188,559.9531 Q590.6156,559.7656 590.5063,559.25 Q590.4594,558.8906 590.2719,558.7031 Q589.9438,558.3281 589.3344,558.1094 Q588.725,557.8906 588.1,557.8906 Q587.3344,557.8906 586.6938,558.2188 Q586.0688,558.5469 585.5688,559.2969 Q585.0844,560.0469 585.0844,561.0781 L585.0844,562.1719 Q585.0844,563.4063 585.975,564.2344 Q586.8656,565.0469 588.4594,565.0469 Q589.3969,565.0469 590.0531,564.7969 Q590.4438,564.6406 590.8656,564.2031 Q591.1313,563.9375 591.2719,563.8594 Q591.4281,563.7813 591.6313,563.7813 Q591.9594,563.7813 592.2094,564.0469 Q592.475,564.2969 592.475,564.6406 Q592.475,564.9844 592.1313,565.3906 Q591.6313,565.9688 590.8344,566.2969 Q589.7563,566.75 588.4594,566.75 Q586.9438,566.75 585.7406,566.125 Q584.7563,565.625 584.0688,564.5625 Q583.3813,563.4844 583.3813,562.2031 L583.3813,561.0469 Q583.3813,559.7188 583.9906,558.5781 Q584.6156,557.4219 585.7094,556.8125 Q586.8031,556.1875 588.0375,556.1875 Q588.7719,556.1875 589.4125,556.3594 Q590.0688,556.5156 590.6156,556.875 Z " fill="#000000"/><text fill="#000000" font-family="sans-serif" font-size="14" lengthAdjust="spacing" textLength="56" x="605.15" y="566.7285">Direction</text><line style="stroke:#181818;stroke-width:0.5;" x1="559" x2="678" y1="577" y2="577"/><ellipse cx="569" cy="591.3047" fill="none" rx="3" ry="3" style="stroke:#038048;stroke-width:1.0;"/><text fill="#000000" font-family="sans-serif" font-size="14" lengthAdjust="spacing" text-decoration="underline" textLength="39" x="578" y="595.5332">NORT</text><ellipse cx="569" cy="608.9141" fill="none" rx="3" ry="3" style="stroke:#038048;stroke-width:1.0;"/><text fill="#000000" font-family="sans-serif" font-size="14" lengthAdjust="spacing" text-decoration="underline" textLength="83" x="578" y="613.1426">NORT_EAST</text><ellipse cx="569" cy="626.5234" fill="none" rx="3" ry="3" style="stroke:#038048;stroke-width:1.0;"/><text fill="#000000" font-family="sans-serif" font-size="14" lengthAdjust="spacing" text-decoration="underline" textLength="36" x="578" y="630.752">EAST</text><ellipse cx="569" cy="644.1328" fill="none" rx="3" ry="3" style="stroke:#038048;stroke-width:1.0;"/><text fill="#000000" font-family="sans-serif" font-size="14" lengthAdjust="spacing" text-decoration="underline" textLength="91" x="578" y="648.3613">SOUTH_EAST</text><ellipse cx="569" cy="661.7422" fill="none" rx="3" ry="3" style="stroke:#038048;stroke-width:1.0;"/><text fill="#000000" font-family="sans-serif" font-size="14" lengthAdjust="spacing" text-decoration="underline" textLength="47" x="578" y="665.9707">SOUTH</text><ellipse cx="569" cy="679.3516" fill="none" rx="3" ry="3" style="stroke:#038048;stroke-width:1.0;"/><text fill="#000000" font-family="sans-serif" font-size="14" lengthAdjust="spacing" text-decoration="underline" textLength="95" x="578" y="683.5801">SOUTH_WEST</text><ellipse cx="569" cy="696.9609" fill="none" rx="3" ry="3" style="stroke:#038048;stroke-width:1.0;"/><text fill="#000000" font-family="sans-serif" font-size="14" lengthAdjust="spacing" text-decoration="underline" textLength="40" x="578" y="701.1895">WEST</text><ellipse cx="569" cy="714.5703" fill="none" rx="3" ry="3" style="stroke:#038048;stroke-width:1.0;"/><text fill="#000000" font-family="sans-serif" font-size="14" lengthAdjust="spacing" text-decoration="underline" textLength="87" x="578" y="718.7988">NORT_WEST</text><line style="stroke:#181818;stroke-width:0.5;" x1="559" x2="678" y1="725.875" y2="725.875"/></g><!--MD5=[9563755d011c5cec7ec66dc53565a59e]
class Board--><g id="elem_Board"><rect codeLine="18" fill="#F1F1F1" height="118.4375" id="Board" rx="2.5" ry="2.5" style="stroke:#181818;stroke-width:0.5;" width="159" x="353" y="358"/><ellipse cx="409.25" cy="374" fill="#ADD1B2" rx="11" ry="11" style="stroke:#181818;stroke-width:1.0;"/><path d="M412.0156,369.875 Q412.1719,369.6563 412.3594,369.5469 Q412.5469,369.4375 412.7656,369.4375 Q413.1406,369.4375 413.375,369.7031 Q413.6094,369.9531 413.6094,370.5625 L413.6094,372.0156 Q413.6094,372.625 413.375,372.8906 Q413.1406,373.1563 412.7656,373.1563 Q412.4219,373.1563 412.2188,372.9531 Q412.0156,372.7656 411.9063,372.25 Q411.8594,371.8906 411.6719,371.7031 Q411.3438,371.3281 410.7344,371.1094 Q410.125,370.8906 409.5,370.8906 Q408.7344,370.8906 408.0938,371.2188 Q407.4688,371.5469 406.9688,372.2969 Q406.4844,373.0469 406.4844,374.0781 L406.4844,375.1719 Q406.4844,376.4063 407.375,377.2344 Q408.2656,378.0469 409.8594,378.0469 Q410.7969,378.0469 411.4531,377.7969 Q411.8438,377.6406 412.2656,377.2031 Q412.5313,376.9375 412.6719,376.8594 Q412.8281,376.7813 413.0313,376.7813 Q413.3594,376.7813 413.6094,377.0469 Q413.875,377.2969 413.875,377.6406 Q413.875,377.9844 413.5313,378.3906 Q413.0313,378.9688 412.2344,379.2969 Q411.1563,379.75 409.8594,379.75 Q408.3438,379.75 407.1406,379.125 Q406.1563,378.625 405.4688,377.5625 Q404.7813,376.4844 404.7813,375.2031 L404.7813,374.0469 Q404.7813,372.7188 405.3906,371.5781 Q406.0156,370.4219 407.1094,369.8125 Q408.2031,369.1875 409.4375,369.1875 Q410.1719,369.1875 410.8125,369.3594 Q411.4688,369.5156 412.0156,369.875 Z " fill="#000000"/><text fill="#000000" font-family="sans-serif" font-size="14" lengthAdjust="spacing" textLength="38" x="429.75" y="379.7285">Board</text><line style="stroke:#181818;stroke-width:0.5;" x1="354" x2="511" y1="390" y2="390"/><rect fill="none" height="6" style="stroke:#C82930;stroke-width:1.0;" width="6" x="361" y="401.3047"/><text fill="#000000" font-family="sans-serif" font-size="14" lengthAdjust="spacing" textLength="72" x="373" y="408.5332">GRID:Array</text><line style="stroke:#181818;stroke-width:0.5;" x1="354" x2="511" y1="415.6094" y2="415.6094"/><ellipse cx="364" cy="429.9141" fill="#84BE84" rx="3" ry="3" style="stroke:#038048;stroke-width:1.0;"/><text fill="#000000" font-family="sans-serif" font-size="14" lengthAdjust="spacing" textLength="57" x="373" y="434.1426">getGrid()</text><ellipse cx="364" cy="447.5234" fill="#84BE84" rx="3" ry="3" style="stroke:#038048;stroke-width:1.0;"/><text fill="#000000" font-family="sans-serif" font-size="14" lengthAdjust="spacing" textLength="70" x="373" y="451.752">putToken()</text><ellipse cx="364" cy="465.1328" fill="#84BE84" rx="3" ry="3" style="stroke:#038048;stroke-width:1.0;"/><text fill="#000000" font-family="sans-serif" font-size="14" lengthAdjust="spacing" textLength="133" x="373" y="469.3613">connectCell(Cell cell)</text></g><!--MD5=[5d3822d29342fbd355d1b65ea3562ec9]
class GameView--><g id="elem_GameView"><rect codeLine="24" fill="#F1F1F1" height="48" id="GameView" rx="2.5" ry="2.5" style="stroke:#181818;stroke-width:0.5;" width="99" x="244" y="115"/><ellipse cx="259" cy="131" fill="#ADD1B2" rx="11" ry="11" style="stroke:#181818;stroke-width:1.0;"/><path d="M261.7656,126.875 Q261.9219,126.6563 262.1094,126.5469 Q262.2969,126.4375 262.5156,126.4375 Q262.8906,126.4375 263.125,126.7031 Q263.3594,126.9531 263.3594,127.5625 L263.3594,129.0156 Q263.3594,129.625 263.125,129.8906 Q262.8906,130.1563 262.5156,130.1563 Q262.1719,130.1563 261.9688,129.9531 Q261.7656,129.7656 261.6563,129.25 Q261.6094,128.8906 261.4219,128.7031 Q261.0938,128.3281 260.4844,128.1094 Q259.875,127.8906 259.25,127.8906 Q258.4844,127.8906 257.8438,128.2188 Q257.2188,128.5469 256.7188,129.2969 Q256.2344,130.0469 256.2344,131.0781 L256.2344,132.1719 Q256.2344,133.4063 257.125,134.2344 Q258.0156,135.0469 259.6094,135.0469 Q260.5469,135.0469 261.2031,134.7969 Q261.5938,134.6406 262.0156,134.2031 Q262.2813,133.9375 262.4219,133.8594 Q262.5781,133.7813 262.7813,133.7813 Q263.1094,133.7813 263.3594,134.0469 Q263.625,134.2969 263.625,134.6406 Q263.625,134.9844 263.2813,135.3906 Q262.7813,135.9688 261.9844,136.2969 Q260.9063,136.75 259.6094,136.75 Q258.0938,136.75 256.8906,136.125 Q255.9063,135.625 255.2188,134.5625 Q254.5313,133.4844 254.5313,132.2031 L254.5313,131.0469 Q254.5313,129.7188 255.1406,128.5781 Q255.7656,127.4219 256.8594,126.8125 Q257.9531,126.1875 259.1875,126.1875 Q259.9219,126.1875 260.5625,126.3594 Q261.2188,126.5156 261.7656,126.875 Z " fill="#000000"/><text fill="#000000" font-family="sans-serif" font-size="14" lengthAdjust="spacing" textLength="67" x="273" y="136.7285">GameView</text><line style="stroke:#181818;stroke-width:0.5;" x1="245" x2="342" y1="147" y2="147"/><line style="stroke:#181818;stroke-width:0.5;" x1="245" x2="342" y1="155" y2="155"/></g><!--MD5=[af194e474b2c37e443a340884399de77]
class PlayerView--><g id="elem_PlayerView"><rect codeLine="26" fill="#F1F1F1" height="48" id="PlayerView" rx="2.5" ry="2.5" style="stroke:#181818;stroke-width:0.5;" width="101" x="247" y="232"/><ellipse cx="262" cy="248" fill="#ADD1B2" rx="11" ry="11" style="stroke:#181818;stroke-width:1.0;"/><path d="M264.7656,243.875 Q264.9219,243.6563 265.1094,243.5469 Q265.2969,243.4375 265.5156,243.4375 Q265.8906,243.4375 266.125,243.7031 Q266.3594,243.9531 266.3594,244.5625 L266.3594,246.0156 Q266.3594,246.625 266.125,246.8906 Q265.8906,247.1563 265.5156,247.1563 Q265.1719,247.1563 264.9688,246.9531 Q264.7656,246.7656 264.6563,246.25 Q264.6094,245.8906 264.4219,245.7031 Q264.0938,245.3281 263.4844,245.1094 Q262.875,244.8906 262.25,244.8906 Q261.4844,244.8906 260.8438,245.2188 Q260.2188,245.5469 259.7188,246.2969 Q259.2344,247.0469 259.2344,248.0781 L259.2344,249.1719 Q259.2344,250.4063 260.125,251.2344 Q261.0156,252.0469 262.6094,252.0469 Q263.5469,252.0469 264.2031,251.7969 Q264.5938,251.6406 265.0156,251.2031 Q265.2813,250.9375 265.4219,250.8594 Q265.5781,250.7813 265.7813,250.7813 Q266.1094,250.7813 266.3594,251.0469 Q266.625,251.2969 266.625,251.6406 Q266.625,251.9844 266.2813,252.3906 Q265.7813,252.9688 264.9844,253.2969 Q263.9063,253.75 262.6094,253.75 Q261.0938,253.75 259.8906,253.125 Q258.9063,252.625 258.2188,251.5625 Q257.5313,250.4844 257.5313,249.2031 L257.5313,248.0469 Q257.5313,246.7188 258.1406,245.5781 Q258.7656,244.4219 259.8594,243.8125 Q260.9531,243.1875 262.1875,243.1875 Q262.9219,243.1875 263.5625,243.3594 Q264.2188,243.5156 264.7656,243.875 Z " fill="#000000"/><text fill="#000000" font-family="sans-serif" font-size="14" lengthAdjust="spacing" textLength="69" x="276" y="253.7285">PlayerView</text><line style="stroke:#181818;stroke-width:0.5;" x1="248" x2="347" y1="264" y2="264"/><line style="stroke:#181818;stroke-width:0.5;" x1="248" x2="347" y1="272" y2="272"/></g><!--MD5=[9b237e88d697a058bd530d6510c96c00]
class BoardView--><g id="elem_BoardView"><rect codeLine="28" fill="#F1F1F1" height="65.6094" id="BoardView" rx="2.5" ry="2.5" style="stroke:#181818;stroke-width:0.5;" width="99" x="383" y="223"/><ellipse cx="398" cy="239" fill="#ADD1B2" rx="11" ry="11" style="stroke:#181818;stroke-width:1.0;"/><path d="M400.7656,234.875 Q400.9219,234.6563 401.1094,234.5469 Q401.2969,234.4375 401.5156,234.4375 Q401.8906,234.4375 402.125,234.7031 Q402.3594,234.9531 402.3594,235.5625 L402.3594,237.0156 Q402.3594,237.625 402.125,237.8906 Q401.8906,238.1563 401.5156,238.1563 Q401.1719,238.1563 400.9688,237.9531 Q400.7656,237.7656 400.6563,237.25 Q400.6094,236.8906 400.4219,236.7031 Q400.0938,236.3281 399.4844,236.1094 Q398.875,235.8906 398.25,235.8906 Q397.4844,235.8906 396.8438,236.2188 Q396.2188,236.5469 395.7188,237.2969 Q395.2344,238.0469 395.2344,239.0781 L395.2344,240.1719 Q395.2344,241.4063 396.125,242.2344 Q397.0156,243.0469 398.6094,243.0469 Q399.5469,243.0469 400.2031,242.7969 Q400.5938,242.6406 401.0156,242.2031 Q401.2813,241.9375 401.4219,241.8594 Q401.5781,241.7813 401.7813,241.7813 Q402.1094,241.7813 402.3594,242.0469 Q402.625,242.2969 402.625,242.6406 Q402.625,242.9844 402.2813,243.3906 Q401.7813,243.9688 400.9844,244.2969 Q399.9063,244.75 398.6094,244.75 Q397.0938,244.75 395.8906,244.125 Q394.9063,243.625 394.2188,242.5625 Q393.5313,241.4844 393.5313,240.2031 L393.5313,239.0469 Q393.5313,237.7188 394.1406,236.5781 Q394.7656,235.4219 395.8594,234.8125 Q396.9531,234.1875 398.1875,234.1875 Q398.9219,234.1875 399.5625,234.3594 Q400.2188,234.5156 400.7656,234.875 Z " fill="#000000"/><text fill="#000000" font-family="sans-serif" font-size="14" lengthAdjust="spacing" textLength="67" x="412" y="244.7285">BoardView</text><line style="stroke:#181818;stroke-width:0.5;" x1="384" x2="481" y1="255" y2="255"/><line style="stroke:#181818;stroke-width:0.5;" x1="384" x2="481" y1="263" y2="263"/><ellipse cx="394" cy="277.3047" fill="#84BE84" rx="3" ry="3" style="stroke:#038048;stroke-width:1.0;"/><text fill="#000000" font-family="sans-serif" font-size="14" lengthAdjust="spacing" textLength="42" x="403" y="281.5332">show()</text></g><!--MD5=[2cb47ba637a0d19583e6199456f6ad0b]
class Player--><g id="elem_Player"><rect codeLine="31" fill="#F1F1F1" height="118.4375" id="Player" rx="2.5" ry="2.5" style="stroke:#181818;stroke-width:0.5;" width="159" x="201" y="794"/><ellipse cx="256.25" cy="810" fill="#ADD1B2" rx="11" ry="11" style="stroke:#181818;stroke-width:1.0;"/><path d="M259.0156,805.875 Q259.1719,805.6563 259.3594,805.5469 Q259.5469,805.4375 259.7656,805.4375 Q260.1406,805.4375 260.375,805.7031 Q260.6094,805.9531 260.6094,806.5625 L260.6094,808.0156 Q260.6094,808.625 260.375,808.8906 Q260.1406,809.1563 259.7656,809.1563 Q259.4219,809.1563 259.2188,808.9531 Q259.0156,808.7656 258.9063,808.25 Q258.8594,807.8906 258.6719,807.7031 Q258.3438,807.3281 257.7344,807.1094 Q257.125,806.8906 256.5,806.8906 Q255.7344,806.8906 255.0938,807.2188 Q254.4688,807.5469 253.9688,808.2969 Q253.4844,809.0469 253.4844,810.0781 L253.4844,811.1719 Q253.4844,812.4063 254.375,813.2344 Q255.2656,814.0469 256.8594,814.0469 Q257.7969,814.0469 258.4531,813.7969 Q258.8438,813.6406 259.2656,813.2031 Q259.5313,812.9375 259.6719,812.8594 Q259.8281,812.7813 260.0313,812.7813 Q260.3594,812.7813 260.6094,813.0469 Q260.875,813.2969 260.875,813.6406 Q260.875,813.9844 260.5313,814.3906 Q260.0313,814.9688 259.2344,815.2969 Q258.1563,815.75 256.8594,815.75 Q255.3438,815.75 254.1406,815.125 Q253.1563,814.625 252.4688,813.5625 Q251.7813,812.4844 251.7813,811.2031 L251.7813,810.0469 Q251.7813,808.7188 252.3906,807.5781 Q253.0156,806.4219 254.1094,805.8125 Q255.2031,805.1875 256.4375,805.1875 Q257.1719,805.1875 257.8125,805.3594 Q258.4688,805.5156 259.0156,805.875 Z " fill="#000000"/><text fill="#000000" font-family="sans-serif" font-size="14" lengthAdjust="spacing" textLength="40" x="276.75" y="815.7285">Player</text><line style="stroke:#181818;stroke-width:0.5;" x1="202" x2="359" y1="826" y2="826"/><rect fill="none" height="6" style="stroke:#C82930;stroke-width:1.0;" width="6" x="209" y="837.3047"/><text fill="#000000" font-family="sans-serif" font-size="14" lengthAdjust="spacing" textLength="31" x="221" y="844.5332">color</text><line style="stroke:#181818;stroke-width:0.5;" x1="202" x2="359" y1="851.6094" y2="851.6094"/><ellipse cx="212" cy="865.9141" fill="#84BE84" rx="3" ry="3" style="stroke:#038048;stroke-width:1.0;"/><text fill="#000000" font-family="sans-serif" font-size="14" lengthAdjust="spacing" textLength="70" x="221" y="870.1426">getToken()</text><ellipse cx="212" cy="883.5234" fill="#84BE84" rx="3" ry="3" style="stroke:#038048;stroke-width:1.0;"/><text fill="#000000" font-family="sans-serif" font-size="14" lengthAdjust="spacing" textLength="64" x="221" y="887.752">getColor()</text><ellipse cx="212" cy="901.1328" fill="#84BE84" rx="3" ry="3" style="stroke:#038048;stroke-width:1.0;"/><text fill="#000000" font-family="sans-serif" font-size="14" font-style="italic" lengthAdjust="spacing" textLength="133" x="221" y="905.3613">getSelectedColumn()</text></g><!--MD5=[d159557bab43e1f13b9627fe22d6ac69]
class UserPlayer--><g id="elem_UserPlayer"><rect codeLine="37" fill="#F1F1F1" height="65.6094" id="UserPlayer" rx="2.5" ry="2.5" style="stroke:#181818;stroke-width:0.5;" width="159" x="7" y="972"/><ellipse cx="48.1" cy="988" fill="#ADD1B2" rx="11" ry="11" style="stroke:#181818;stroke-width:1.0;"/><path d="M50.8656,983.875 Q51.0219,983.6563 51.2094,983.5469 Q51.3969,983.4375 51.6156,983.4375 Q51.9906,983.4375 52.225,983.7031 Q52.4594,983.9531 52.4594,984.5625 L52.4594,986.0156 Q52.4594,986.625 52.225,986.8906 Q51.9906,987.1563 51.6156,987.1563 Q51.2719,987.1563 51.0688,986.9531 Q50.8656,986.7656 50.7563,986.25 Q50.7094,985.8906 50.5219,985.7031 Q50.1938,985.3281 49.5844,985.1094 Q48.975,984.8906 48.35,984.8906 Q47.5844,984.8906 46.9438,985.2188 Q46.3188,985.5469 45.8188,986.2969 Q45.3344,987.0469 45.3344,988.0781 L45.3344,989.1719 Q45.3344,990.4063 46.225,991.2344 Q47.1156,992.0469 48.7094,992.0469 Q49.6469,992.0469 50.3031,991.7969 Q50.6938,991.6406 51.1156,991.2031 Q51.3813,990.9375 51.5219,990.8594 Q51.6781,990.7813 51.8813,990.7813 Q52.2094,990.7813 52.4594,991.0469 Q52.725,991.2969 52.725,991.6406 Q52.725,991.9844 52.3813,992.3906 Q51.8813,992.9688 51.0844,993.2969 Q50.0063,993.75 48.7094,993.75 Q47.1938,993.75 45.9906,993.125 Q45.0063,992.625 44.3188,991.5625 Q43.6313,990.4844 43.6313,989.2031 L43.6313,988.0469 Q43.6313,986.7188 44.2406,985.5781 Q44.8656,984.4219 45.9594,983.8125 Q47.0531,983.1875 48.2875,983.1875 Q49.0219,983.1875 49.6625,983.3594 Q50.3188,983.5156 50.8656,983.875 Z " fill="#000000"/><text fill="#000000" font-family="sans-serif" font-size="14" lengthAdjust="spacing" textLength="69" x="67.9" y="993.7285">UserPlayer</text><line style="stroke:#181818;stroke-width:0.5;" x1="8" x2="165" y1="1004" y2="1004"/><line style="stroke:#181818;stroke-width:0.5;" x1="8" x2="165" y1="1012" y2="1012"/><ellipse cx="18" cy="1026.3047" fill="#84BE84" rx="3" ry="3" style="stroke:#038048;stroke-width:1.0;"/><text fill="#000000" font-family="sans-serif" font-size="14" lengthAdjust="spacing" textLength="133" x="27" y="1030.5332">getSelectedColumn()</text></g><!--MD5=[174b845aece9e2b8fe56c79fce093b97]
class BotPlayer--><g id="elem_BotPlayer"><rect codeLine="40" fill="#F1F1F1" height="65.6094" id="BotPlayer" rx="2.5" ry="2.5" style="stroke:#181818;stroke-width:0.5;" width="159" x="201" y="972"/><ellipse cx="245.75" cy="988" fill="#ADD1B2" rx="11" ry="11" style="stroke:#181818;stroke-width:1.0;"/><path d="M248.5156,983.875 Q248.6719,983.6563 248.8594,983.5469 Q249.0469,983.4375 249.2656,983.4375 Q249.6406,983.4375 249.875,983.7031 Q250.1094,983.9531 250.1094,984.5625 L250.1094,986.0156 Q250.1094,986.625 249.875,986.8906 Q249.6406,987.1563 249.2656,987.1563 Q248.9219,987.1563 248.7188,986.9531 Q248.5156,986.7656 248.4063,986.25 Q248.3594,985.8906 248.1719,985.7031 Q247.8438,985.3281 247.2344,985.1094 Q246.625,984.8906 246,984.8906 Q245.2344,984.8906 244.5938,985.2188 Q243.9688,985.5469 243.4688,986.2969 Q242.9844,987.0469 242.9844,988.0781 L242.9844,989.1719 Q242.9844,990.4063 243.875,991.2344 Q244.7656,992.0469 246.3594,992.0469 Q247.2969,992.0469 247.9531,991.7969 Q248.3438,991.6406 248.7656,991.2031 Q249.0313,990.9375 249.1719,990.8594 Q249.3281,990.7813 249.5313,990.7813 Q249.8594,990.7813 250.1094,991.0469 Q250.375,991.2969 250.375,991.6406 Q250.375,991.9844 250.0313,992.3906 Q249.5313,992.9688 248.7344,993.2969 Q247.6563,993.75 246.3594,993.75 Q244.8438,993.75 243.6406,993.125 Q242.6563,992.625 241.9688,991.5625 Q241.2813,990.4844 241.2813,989.2031 L241.2813,988.0469 Q241.2813,986.7188 241.8906,985.5781 Q242.5156,984.4219 243.6094,983.8125 Q244.7031,983.1875 245.9375,983.1875 Q246.6719,983.1875 247.3125,983.3594 Q247.9688,983.5156 248.5156,983.875 Z " fill="#000000"/><text fill="#000000" font-family="sans-serif" font-size="14" lengthAdjust="spacing" textLength="61" x="266.25" y="993.7285">BotPlayer</text><line style="stroke:#181818;stroke-width:0.5;" x1="202" x2="359" y1="1004" y2="1004"/><line style="stroke:#181818;stroke-width:0.5;" x1="202" x2="359" y1="1012" y2="1012"/><ellipse cx="212" cy="1026.3047" fill="#84BE84" rx="3" ry="3" style="stroke:#038048;stroke-width:1.0;"/><text fill="#000000" font-family="sans-serif" font-size="14" lengthAdjust="spacing" textLength="133" x="221" y="1030.5332">getSelectedColumn()</text></g><!--MD5=[fea3dc74c7473bae0133d22265a91e2f]
class Cell--><g id="elem_Cell"><rect codeLine="43" fill="#F1F1F1" height="100.8281" id="Cell" rx="2.5" ry="2.5" style="stroke:#181818;stroke-width:0.5;" width="96" x="455.5" y="802.5"/><ellipse cx="488.5" cy="818.5" fill="#ADD1B2" rx="11" ry="11" style="stroke:#181818;stroke-width:1.0;"/><path d="M491.2656,814.375 Q491.4219,814.1563 491.6094,814.0469 Q491.7969,813.9375 492.0156,813.9375 Q492.3906,813.9375 492.625,814.2031 Q492.8594,814.4531 492.8594,815.0625 L492.8594,816.5156 Q492.8594,817.125 492.625,817.3906 Q492.3906,817.6563 492.0156,817.6563 Q491.6719,817.6563 491.4688,817.4531 Q491.2656,817.2656 491.1563,816.75 Q491.1094,816.3906 490.9219,816.2031 Q490.5938,815.8281 489.9844,815.6094 Q489.375,815.3906 488.75,815.3906 Q487.9844,815.3906 487.3438,815.7188 Q486.7188,816.0469 486.2188,816.7969 Q485.7344,817.5469 485.7344,818.5781 L485.7344,819.6719 Q485.7344,820.9063 486.625,821.7344 Q487.5156,822.5469 489.1094,822.5469 Q490.0469,822.5469 490.7031,822.2969 Q491.0938,822.1406 491.5156,821.7031 Q491.7813,821.4375 491.9219,821.3594 Q492.0781,821.2813 492.2813,821.2813 Q492.6094,821.2813 492.8594,821.5469 Q493.125,821.7969 493.125,822.1406 Q493.125,822.4844 492.7813,822.8906 Q492.2813,823.4688 491.4844,823.7969 Q490.4063,824.25 489.1094,824.25 Q487.5938,824.25 486.3906,823.625 Q485.4063,823.125 484.7188,822.0625 Q484.0313,820.9844 484.0313,819.7031 L484.0313,818.5469 Q484.0313,817.2188 484.6406,816.0781 Q485.2656,814.9219 486.3594,814.3125 Q487.4531,813.6875 488.6875,813.6875 Q489.4219,813.6875 490.0625,813.8594 Q490.7188,814.0156 491.2656,814.375 Z " fill="#000000"/><text fill="#000000" font-family="sans-serif" font-size="14" lengthAdjust="spacing" textLength="24" x="506.5" y="824.2285">Cell</text><line style="stroke:#181818;stroke-width:0.5;" x1="456.5" x2="550.5" y1="834.5" y2="834.5"/><rect fill="none" height="6" style="stroke:#C82930;stroke-width:1.0;" width="6" x="463.5" y="845.8047"/><text fill="#000000" font-family="sans-serif" font-size="14" lengthAdjust="spacing" textLength="35" x="475.5" y="853.0332">token</text><line style="stroke:#181818;stroke-width:0.5;" x1="456.5" x2="550.5" y1="860.1094" y2="860.1094"/><ellipse cx="466.5" cy="874.4141" fill="#84BE84" rx="3" ry="3" style="stroke:#038048;stroke-width:1.0;"/><text fill="#000000" font-family="sans-serif" font-size="14" lengthAdjust="spacing" textLength="70" x="475.5" y="878.6426">getToken()</text><ellipse cx="466.5" cy="892.0234" fill="#84BE84" rx="3" ry="3" style="stroke:#038048;stroke-width:1.0;"/><text fill="#000000" font-family="sans-serif" font-size="14" lengthAdjust="spacing" textLength="69" x="475.5" y="896.252">setToken()</text></g><!--MD5=[8c7d7abc12e214c3cc12c9ab70edee11]
class Coordinate--><g id="elem_Coordinate"><rect codeLine="48" fill="#F1F1F1" height="136.0469" id="Coordinate" rx="2.5" ry="2.5" style="stroke:#181818;stroke-width:0.5;" width="102" x="624.5" y="349"/><ellipse cx="639.5" cy="365" fill="#ADD1B2" rx="11" ry="11" style="stroke:#181818;stroke-width:1.0;"/><path d="M642.2656,360.875 Q642.4219,360.6563 642.6094,360.5469 Q642.7969,360.4375 643.0156,360.4375 Q643.3906,360.4375 643.625,360.7031 Q643.8594,360.9531 643.8594,361.5625 L643.8594,363.0156 Q643.8594,363.625 643.625,363.8906 Q643.3906,364.1563 643.0156,364.1563 Q642.6719,364.1563 642.4688,363.9531 Q642.2656,363.7656 642.1563,363.25 Q642.1094,362.8906 641.9219,362.7031 Q641.5938,362.3281 640.9844,362.1094 Q640.375,361.8906 639.75,361.8906 Q638.9844,361.8906 638.3438,362.2188 Q637.7188,362.5469 637.2188,363.2969 Q636.7344,364.0469 636.7344,365.0781 L636.7344,366.1719 Q636.7344,367.4063 637.625,368.2344 Q638.5156,369.0469 640.1094,369.0469 Q641.0469,369.0469 641.7031,368.7969 Q642.0938,368.6406 642.5156,368.2031 Q642.7813,367.9375 642.9219,367.8594 Q643.0781,367.7813 643.2813,367.7813 Q643.6094,367.7813 643.8594,368.0469 Q644.125,368.2969 644.125,368.6406 Q644.125,368.9844 643.7813,369.3906 Q643.2813,369.9688 642.4844,370.2969 Q641.4063,370.75 640.1094,370.75 Q638.5938,370.75 637.3906,370.125 Q636.4063,369.625 635.7188,368.5625 Q635.0313,367.4844 635.0313,366.2031 L635.0313,365.0469 Q635.0313,363.7188 635.6406,362.5781 Q636.2656,361.4219 637.3594,360.8125 Q638.4531,360.1875 639.6875,360.1875 Q640.4219,360.1875 641.0625,360.3594 Q641.7188,360.5156 642.2656,360.875 Z " fill="#000000"/><text fill="#000000" font-family="sans-serif" font-size="14" lengthAdjust="spacing" textLength="70" x="653.5" y="370.7285">Coordinate</text><line style="stroke:#181818;stroke-width:0.5;" x1="625.5" x2="725.5" y1="381" y2="381"/><line style="stroke:#181818;stroke-width:0.5;" x1="625.5" x2="725.5" y1="389" y2="389"/><ellipse cx="635.5" cy="403.3047" fill="#84BE84" rx="3" ry="3" style="stroke:#038048;stroke-width:1.0;"/><text fill="#000000" font-family="sans-serif" font-size="14" lengthAdjust="spacing" textLength="74" x="644.5" y="407.5332">getShifted()</text><ellipse cx="635.5" cy="420.9141" fill="#84BE84" rx="3" ry="3" style="stroke:#038048;stroke-width:1.0;"/><text fill="#000000" font-family="sans-serif" font-size="14" lengthAdjust="spacing" textLength="51" x="644.5" y="425.1426">getCol()</text><ellipse cx="635.5" cy="438.5234" fill="#84BE84" rx="3" ry="3" style="stroke:#038048;stroke-width:1.0;"/><text fill="#000000" font-family="sans-serif" font-size="14" lengthAdjust="spacing" textLength="50" x="644.5" y="442.752">setCol()</text><ellipse cx="635.5" cy="456.1328" fill="#84BE84" rx="3" ry="3" style="stroke:#038048;stroke-width:1.0;"/><text fill="#000000" font-family="sans-serif" font-size="14" lengthAdjust="spacing" textLength="57" x="644.5" y="460.3613">getRow()</text><ellipse cx="635.5" cy="473.7422" fill="#84BE84" rx="3" ry="3" style="stroke:#038048;stroke-width:1.0;"/><text fill="#000000" font-family="sans-serif" font-size="14" lengthAdjust="spacing" textLength="56" x="644.5" y="477.9707">setRow()</text></g><!--MD5=[d8c8cfd5ca149094f5b67f9f607a5ec7]
class Token--><g id="elem_Token"><rect codeLine="55" fill="#F1F1F1" height="48" id="Token" rx="2.5" ry="2.5" style="stroke:#181818;stroke-width:0.5;" width="72" x="466.5" y="981"/><ellipse cx="481.5" cy="997" fill="#ADD1B2" rx="11" ry="11" style="stroke:#181818;stroke-width:1.0;"/><path d="M484.2656,992.875 Q484.4219,992.6563 484.6094,992.5469 Q484.7969,992.4375 485.0156,992.4375 Q485.3906,992.4375 485.625,992.7031 Q485.8594,992.9531 485.8594,993.5625 L485.8594,995.0156 Q485.8594,995.625 485.625,995.8906 Q485.3906,996.1563 485.0156,996.1563 Q484.6719,996.1563 484.4688,995.9531 Q484.2656,995.7656 484.1563,995.25 Q484.1094,994.8906 483.9219,994.7031 Q483.5938,994.3281 482.9844,994.1094 Q482.375,993.8906 481.75,993.8906 Q480.9844,993.8906 480.3438,994.2188 Q479.7188,994.5469 479.2188,995.2969 Q478.7344,996.0469 478.7344,997.0781 L478.7344,998.1719 Q478.7344,999.4063 479.625,1000.2344 Q480.5156,1001.0469 482.1094,1001.0469 Q483.0469,1001.0469 483.7031,1000.7969 Q484.0938,1000.6406 484.5156,1000.2031 Q484.7813,999.9375 484.9219,999.8594 Q485.0781,999.7813 485.2813,999.7813 Q485.6094,999.7813 485.8594,1000.0469 Q486.125,1000.2969 486.125,1000.6406 Q486.125,1000.9844 485.7813,1001.3906 Q485.2813,1001.9688 484.4844,1002.2969 Q483.4063,1002.75 482.1094,1002.75 Q480.5938,1002.75 479.3906,1002.125 Q478.4063,1001.625 477.7188,1000.5625 Q477.0313,999.4844 477.0313,998.2031 L477.0313,997.0469 Q477.0313,995.7188 477.6406,994.5781 Q478.2656,993.4219 479.3594,992.8125 Q480.4531,992.1875 481.6875,992.1875 Q482.4219,992.1875 483.0625,992.3594 Q483.7188,992.5156 484.2656,992.875 Z " fill="#000000"/><text fill="#000000" font-family="sans-serif" font-size="14" lengthAdjust="spacing" textLength="40" x="495.5" y="1002.7285">Token</text><line style="stroke:#181818;stroke-width:0.5;" x1="467.5" x2="537.5" y1="1013" y2="1013"/><line style="stroke:#181818;stroke-width:0.5;" x1="467.5" x2="537.5" y1="1021" y2="1021"/></g><!--MD5=[18eee71c88ab61f27581b8cbdd3ef5ee]
class Color--><g id="elem_Color"><rect codeLine="56" fill="#F1F1F1" height="48" id="Color" rx="2.5" ry="2.5" style="stroke:#181818;stroke-width:0.5;" width="66" x="424.5" y="1098"/><ellipse cx="439.5" cy="1114" fill="#ADD1B2" rx="11" ry="11" style="stroke:#181818;stroke-width:1.0;"/><path d="M442.2656,1109.875 Q442.4219,1109.6563 442.6094,1109.5469 Q442.7969,1109.4375 443.0156,1109.4375 Q443.3906,1109.4375 443.625,1109.7031 Q443.8594,1109.9531 443.8594,1110.5625 L443.8594,1112.0156 Q443.8594,1112.625 443.625,1112.8906 Q443.3906,1113.1563 443.0156,1113.1563 Q442.6719,1113.1563 442.4688,1112.9531 Q442.2656,1112.7656 442.1563,1112.25 Q442.1094,1111.8906 441.9219,1111.7031 Q441.5938,1111.3281 440.9844,1111.1094 Q440.375,1110.8906 439.75,1110.8906 Q438.9844,1110.8906 438.3438,1111.2188 Q437.7188,1111.5469 437.2188,1112.2969 Q436.7344,1113.0469 436.7344,1114.0781 L436.7344,1115.1719 Q436.7344,1116.4063 437.625,1117.2344 Q438.5156,1118.0469 440.1094,1118.0469 Q441.0469,1118.0469 441.7031,1117.7969 Q442.0938,1117.6406 442.5156,1117.2031 Q442.7813,1116.9375 442.9219,1116.8594 Q443.0781,1116.7813 443.2813,1116.7813 Q443.6094,1116.7813 443.8594,1117.0469 Q444.125,1117.2969 444.125,1117.6406 Q444.125,1117.9844 443.7813,1118.3906 Q443.2813,1118.9688 442.4844,1119.2969 Q441.4063,1119.75 440.1094,1119.75 Q438.5938,1119.75 437.3906,1119.125 Q436.4063,1118.625 435.7188,1117.5625 Q435.0313,1116.4844 435.0313,1115.2031 L435.0313,1114.0469 Q435.0313,1112.7188 435.6406,1111.5781 Q436.2656,1110.4219 437.3594,1109.8125 Q438.4531,1109.1875 439.6875,1109.1875 Q440.4219,1109.1875 441.0625,1109.3594 Q441.7188,1109.5156 442.2656,1109.875 Z " fill="#000000"/><text fill="#000000" font-family="sans-serif" font-size="14" lengthAdjust="spacing" textLength="34" x="453.5" y="1119.7285">Color</text><line style="stroke:#181818;stroke-width:0.5;" x1="425.5" x2="489.5" y1="1130" y2="1130"/><line style="stroke:#181818;stroke-width:0.5;" x1="425.5" x2="489.5" y1="1138" y2="1138"/></g><!--MD5=[290869c0dc9090651d43d12b153728a8]
class Connect4Line--><g id="elem_Connect4Line"><rect codeLine="58" fill="#F1F1F1" height="65.6094" id="Connect4Line" rx="2.5" ry="2.5" style="stroke:#181818;stroke-width:0.5;" width="120" x="331.5" y="606.5"/><ellipse cx="346.5" cy="622.5" fill="#ADD1B2" rx="11" ry="11" style="stroke:#181818;stroke-width:1.0;"/><path d="M349.2656,618.375 Q349.4219,618.1563 349.6094,618.0469 Q349.7969,617.9375 350.0156,617.9375 Q350.3906,617.9375 350.625,618.2031 Q350.8594,618.4531 350.8594,619.0625 L350.8594,620.5156 Q350.8594,621.125 350.625,621.3906 Q350.3906,621.6563 350.0156,621.6563 Q349.6719,621.6563 349.4688,621.4531 Q349.2656,621.2656 349.1563,620.75 Q349.1094,620.3906 348.9219,620.2031 Q348.5938,619.8281 347.9844,619.6094 Q347.375,619.3906 346.75,619.3906 Q345.9844,619.3906 345.3438,619.7188 Q344.7188,620.0469 344.2188,620.7969 Q343.7344,621.5469 343.7344,622.5781 L343.7344,623.6719 Q343.7344,624.9063 344.625,625.7344 Q345.5156,626.5469 347.1094,626.5469 Q348.0469,626.5469 348.7031,626.2969 Q349.0938,626.1406 349.5156,625.7031 Q349.7813,625.4375 349.9219,625.3594 Q350.0781,625.2813 350.2813,625.2813 Q350.6094,625.2813 350.8594,625.5469 Q351.125,625.7969 351.125,626.1406 Q351.125,626.4844 350.7813,626.8906 Q350.2813,627.4688 349.4844,627.7969 Q348.4063,628.25 347.1094,628.25 Q345.5938,628.25 344.3906,627.625 Q343.4063,627.125 342.7188,626.0625 Q342.0313,624.9844 342.0313,623.7031 L342.0313,622.5469 Q342.0313,621.2188 342.6406,620.0781 Q343.2656,618.9219 344.3594,618.3125 Q345.4531,617.6875 346.6875,617.6875 Q347.4219,617.6875 348.0625,617.8594 Q348.7188,618.0156 349.2656,618.375 Z " fill="#000000"/><text fill="#000000" font-family="sans-serif" font-size="14" lengthAdjust="spacing" textLength="88" x="360.5" y="628.2285">Connect4Line</text><line style="stroke:#181818;stroke-width:0.5;" x1="332.5" x2="450.5" y1="638.5" y2="638.5"/><line style="stroke:#181818;stroke-width:0.5;" x1="332.5" x2="450.5" y1="646.5" y2="646.5"/><ellipse cx="342.5" cy="660.8047" fill="#84BE84" rx="3" ry="3" style="stroke:#038048;stroke-width:1.0;"/><text fill="#000000" font-family="sans-serif" font-size="14" lengthAdjust="spacing" textLength="74" x="351.5" y="665.0332">isConnet4()</text></g><!--MD5=[a91b94de6208628ae3e5edb2825872d9]
link Connect4 to GameView--><g id="link_Connect4_GameView"><path codeLine="62" d="M255.9646,65.6475 C255.9646,65.6475 269.24,91.25 275.23,102.78 " fill="none" id="Connect4-GameView" style="stroke:#181818;stroke-width:1.0;"/><polygon fill="#181818" points="281.4,114.68,280.8078,104.849,279.0983,110.2413,273.7059,108.5318,281.4,114.68" style="stroke:#181818;stroke-width:1.0;"/><line style="stroke:#181818;stroke-width:1.0;" x1="279.0983" x2="275.41" y1="110.2413" y2="103.135"/><polygon fill="#181818" points="250.43,55,249.6481,62.1686,255.9646,65.6475,256.7464,58.4789,250.43,55" style="stroke:#181818;stroke-width:1.0;"/><text fill="#000000" font-family="sans-serif" font-size="13" lengthAdjust="spacing" textLength="7" x="270.5975" y="104.34">1</text></g><!--MD5=[6824fd9902778444ee49992acd2ffe7e]
link Connect4 to Turn--><g id="link_Connect4_Turn"><path codeLine="63" d="M232.51,55.02 C221.81,96.17 199.44,182.18 187.84,226.8 " fill="none" id="Connect4-to-Turn" style="stroke:#181818;stroke-width:1.0;"/><polygon fill="#181818" points="186.54,231.77,192.673,224.0638,187.7963,226.9304,184.9297,222.0537,186.54,231.77" style="stroke:#181818;stroke-width:1.0;"/><text fill="#000000" font-family="sans-serif" font-size="13" lengthAdjust="spacing" textLength="7" x="180.1909" y="221.0512">1</text></g><!--MD5=[9d995125f0d58f5b9533a782e613aa7f]
link GameView to Turn--><g id="link_GameView_Turn"><path codeLine="64" d="M270.63,163.27 C252.25,181.98 226.41,208.28 207.1,227.93 " fill="none" id="GameView-to-Turn" style="stroke:#181818;stroke-width:1.0;"/><polygon fill="#181818" points="203.33,231.76,212.4862,228.1318,206.8296,228.1889,206.7725,222.5324,203.33,231.76" style="stroke:#181818;stroke-width:1.0;"/><text fill="#000000" font-family="sans-serif" font-size="13" lengthAdjust="spacing" textLength="7" x="201.2833" y="221.0387">1</text></g><!--MD5=[5f024f8eb4a0ae83d9027afef1d98dd6]
link GameView to PlayerView--><g id="link_GameView_PlayerView"><path codeLine="65" d="M294.7186,175.263 C294.7186,175.263 295.76,205.06 296.23,218.53 " fill="none" id="GameView-PlayerView" style="stroke:#181818;stroke-width:1.0;"/><polygon fill="#181818" points="296.69,231.76,300.3712,222.625,296.5143,226.7631,292.3762,222.9061,296.69,231.76" style="stroke:#181818;stroke-width:1.0;"/><line style="stroke:#181818;stroke-width:1.0;" x1="296.5143" x2="296.24" y1="226.7631" y2="218.77"/><polygon fill="#181818" points="294.31,163.27,290.5166,169.4027,294.7186,175.263,298.512,169.1303,294.31,163.27" style="stroke:#181818;stroke-width:1.0;"/><text fill="#000000" font-family="sans-serif" font-size="13" lengthAdjust="spacing" textLength="7" x="288.5856" y="221.0387">2</text></g><!--MD5=[c2d12ea21a8ed9d7b07c5ed2223bb09d]
link GameView to BoardView--><g id="link_GameView_BoardView"><path codeLine="66" d="M330.8691,170.9276 C330.8691,170.9276 366.44,200.35 383.36,214.34 " fill="none" id="GameView-BoardView" style="stroke:#181818;stroke-width:1.0;"/><polygon fill="#181818" points="393.62,222.83,389.2357,214.0108,389.7677,219.6426,384.1359,220.1746,393.62,222.83" style="stroke:#181818;stroke-width:1.0;"/><line style="stroke:#181818;stroke-width:1.0;" x1="389.7677" x2="383.6" y1="219.6426" y2="214.545"/><polygon fill="#181818" points="321.63,163.27,323.6971,170.1785,330.8691,170.9276,328.8021,164.0191,321.63,163.27" style="stroke:#181818;stroke-width:1.0;"/><text fill="#000000" font-family="sans-serif" font-size="13" lengthAdjust="spacing" textLength="7" x="377.8791" y="211.9103">1</text></g><!--MD5=[d7c49a2c67de04dd46fc6efbc83b34f6]
link PlayerView to Player--><g id="link_PlayerView_Player"><path codeLine="67" d="M296.4873,292.3151 C296.4873,292.3151 286.18,653.12 282.54,780.73 " fill="none" id="PlayerView-Player" style="stroke:#181818;stroke-width:1.0;"/><polygon fill="#181818" points="282.16,793.76,286.4157,784.878,282.303,788.762,278.419,784.6493,282.16,793.76" style="stroke:#181818;stroke-width:1.0;"/><line style="stroke:#181818;stroke-width:1.0;" x1="282.303" x2="282.535" y1="788.762" y2="780.77"/><polygon fill="#181818" points="296.83,280.32,292.6603,286.2033,296.4873,292.3151,300.657,286.4318,296.83,280.32" style="stroke:#181818;stroke-width:1.0;"/><text fill="#000000" font-family="sans-serif" font-size="13" lengthAdjust="spacing" textLength="7" x="274.9358" y="783.055">1</text></g><!--MD5=[87ac28f7ff846e55e34c2c863c6ff220]
link BoardView to Board--><g id="link_BoardView_Board"><path codeLine="68" d="M432.5,301.18 C432.5,301.18 432.5,330.35 432.5,344.75 " fill="none" id="BoardView-Board" style="stroke:#181818;stroke-width:1.0;"/><polygon fill="#181818" points="432.5,357.82,436.5,348.82,432.5,352.82,428.5,348.82,432.5,357.82" style="stroke:#181818;stroke-width:1.0;"/><line style="stroke:#181818;stroke-width:1.0;" x1="432.5" x2="432.5" y1="352.82" y2="344.82"/><polygon fill="#181818" points="432.5,289.18,428.5,295.18,432.5,301.18,436.5,295.18,432.5,289.18" style="stroke:#181818;stroke-width:1.0;"/><text fill="#000000" font-family="sans-serif" font-size="13" lengthAdjust="spacing" textLength="7" x="425.0734" y="347.1223">1</text></g><!--MD5=[adaa5bc42748f6487e75f8b1802e217c]
link Connect4Line to Cell--><g id="link_Connect4Line_Cell"><path codeLine="69" d="M414.1228,683.2264 C414.1228,683.2264 452.9,756.45 470.94,790.52 " fill="none" id="Connect4Line-Cell" style="stroke:#181818;stroke-width:1.0;"/><polygon fill="#181818" points="477.15,802.23,476.4803,792.4039,474.8133,797.8096,469.4077,796.1426,477.15,802.23" style="stroke:#181818;stroke-width:1.0;"/><line style="stroke:#181818;stroke-width:1.0;" x1="474.8133" x2="471.06" y1="797.8096" y2="790.745"/><polygon fill="#181818" points="408.51,672.62,407.7809,679.7942,414.1228,683.2264,414.8519,676.0523,408.51,672.62" style="stroke:#181818;stroke-width:1.0;"/><text fill="#000000" font-family="sans-serif" font-size="13" lengthAdjust="spacing" textLength="22" x="449.8977" y="791.4974">1..4</text></g><!--MD5=[ceaac0422dc14080f034737aa6d658e3]
link Board to Connect4Line--><g id="link_Board_Connect4Line"><path codeLine="70" d="M421.67,476.22 C414.3,515.87 404.77,567.16 398.41,601.36 " fill="none" id="Board-to-Connect4Line" style="stroke:#181818;stroke-width:1.0;"/><polygon fill="#181818" points="397.49,606.28,403.0645,598.1606,398.402,601.3639,395.1987,596.7014,397.49,606.28" style="stroke:#181818;stroke-width:1.0;"/></g><!--MD5=[a676224b545de2f8b00c905b7798379b]
link Board to Direction--><g id="link_Board_Direction"><path codeLine="71" d="M481.61,476.22 C503.87,502.61 530.49,534.16 554.3,562.4 " fill="none" id="Board-to-Direction" style="stroke:#181818;stroke-width:1.0;stroke-dasharray:7.0,7.0;"/><polygon fill="#181818" points="557.8,566.54,555.0592,557.0802,554.578,562.7166,548.9416,562.2354,557.8,566.54" style="stroke:#181818;stroke-width:1.0;"/></g><!--MD5=[304335c530676c0c2555e056aeeb939b]
link Token to Color--><g id="link_Token_Color"><path codeLine="72" d="M489.0107,1040.4424 C489.0107,1040.4424 476.82,1071.62 471.35,1085.61 " fill="none" id="Token-Color" style="stroke:#181818;stroke-width:1.0;"/><polygon fill="#181818" points="466.59,1097.76,473.5887,1090.8305,468.4081,1093.1022,466.1363,1087.9216,466.59,1097.76" style="stroke:#181818;stroke-width:1.0;"/><line style="stroke:#181818;stroke-width:1.0;" x1="468.4081" x2="471.33" y1="1093.1022" y2="1085.655"/><polygon fill="#181818" points="493.39,1029.27,487.4762,1033.3964,489.0107,1040.4424,494.9245,1036.3159,493.39,1029.27" style="stroke:#181818;stroke-width:1.0;"/><text fill="#000000" font-family="sans-serif" font-size="13" lengthAdjust="spacing" textLength="7" x="461.0224" y="1087.0387">1</text></g><!--MD5=[3034702471a0933d7259313508c0a768]
link PlayerView to Board--><g id="link_PlayerView_Board"><path codeLine="73" d="M317.13,280.12 C333.51,299.41 357.64,327.84 379.61,353.71 " fill="none" id="PlayerView-to-Board" style="stroke:#181818;stroke-width:1.0;stroke-dasharray:7.0,7.0;"/><polygon fill="#181818" points="383.11,357.83,380.3279,348.3823,379.8713,354.0207,374.2329,353.5641,383.11,357.83" style="stroke:#181818;stroke-width:1.0;"/><text fill="#000000" font-family="sans-serif" font-size="13" lengthAdjust="spacing" textLength="7" x="369.664" y="347.1335">1</text></g><!--MD5=[525e20984b3f0335f86e1ed389de5b3d]
link Player to Token--><g id="link_Player_Token"><path codeLine="74" d="M360.02,907.73 C395.33,931.59 435.28,958.58 463.87,977.9 " fill="none" id="Player-to-Token" style="stroke:#181818;stroke-width:1.0;stroke-dasharray:7.0,7.0;"/><polygon fill="#181818" points="468.35,980.93,463.1332,972.5763,464.2074,978.1302,458.6535,979.2044,468.35,980.93" style="stroke:#181818;stroke-width:1.0;"/><text fill="#000000" font-family="sans-serif" font-size="13" lengthAdjust="spacing" textLength="29" x="429.3159" y="971.8469">0..21</text></g><!--MD5=[ebf52a6f230ff8b0d594dd9ce4cd7c5b]
link Player to Color--><g id="link_Player_Color"><path codeLine="75" d="M332.2,912.28 C347.57,930.79 363.92,951.73 377.5,972 C404.5,1012.28 429.96,1062.61 444.63,1093.25 " fill="none" id="Player-to-Color" style="stroke:#181818;stroke-width:1.0;stroke-dasharray:7.0,7.0;"/><polygon fill="#181818" points="446.89,1097.99,446.6441,1088.1442,444.7459,1093.4731,439.417,1091.5748,446.89,1097.99" style="stroke:#181818;stroke-width:1.0;"/><text fill="#000000" font-family="sans-serif" font-size="13" lengthAdjust="spacing" textLength="7" x="436.2743" y="1087.3276">1</text></g><!--MD5=[5f3eff46017ea40d2ca7f35522a8d7fb]
reverse link Player to UserPlayer--><g id="link_Player_UserPlayer"><path codeLine="76" d="M189.36,924.47 C167.93,941.04 146.11,957.91 128.12,971.82 " fill="none" id="Player-backto-UserPlayer" style="stroke:#181818;stroke-width:1.0;"/><polygon fill="none" points="185.11,918.9,205.22,912.21,193.68,929.98,185.11,918.9" style="stroke:#181818;stroke-width:1.0;"/></g><!--MD5=[b416ad59bd543746be7c071034d95508]
reverse link Player to BotPlayer--><g id="link_Player_BotPlayer"><path codeLine="77" d="M280.5,932.67 C280.5,946.56 280.5,960.28 280.5,971.92 " fill="none" id="Player-backto-BotPlayer" style="stroke:#181818;stroke-width:1.0;"/><polygon fill="none" points="273.5,932.42,280.5,912.42,287.5,932.42,273.5,932.42" style="stroke:#181818;stroke-width:1.0;"/></g><!--MD5=[43768750d0920d3e29e022678001fe5b]
reverse link Coordinate to Cell--><g id="link_Coordinate_Cell"><path codeLine="78" d="M705.71,504.74 C723.49,571.63 735.64,664.2 696.5,734 C665.77,788.81 598.06,821.2 551.6,837.79 " fill="none" id="Coordinate-backto-Cell" style="stroke:#181818;stroke-width:1.0;"/><polygon fill="none" points="698.92,506.45,700.2,485.3,712.39,502.63,698.92,506.45" style="stroke:#181818;stroke-width:1.0;"/></g><!--MD5=[2ece631038b7899e5b9aaea57adaf24e]
link Coordinate to Direction--><g id="link_Coordinate_Direction"><path codeLine="79" d="M658.17,485.06 C653.71,502.31 648.81,521.25 644.03,539.74 " fill="none" id="Coordinate-to-Direction" style="stroke:#181818;stroke-width:1.0;stroke-dasharray:7.0,7.0;"/><polygon fill="#181818" points="642.68,544.95,648.7917,537.2268,643.9229,540.1069,641.0428,535.2382,642.68,544.95" style="stroke:#181818;stroke-width:1.0;"/></g><!--MD5=[c148346f61f96d5968c9850ebe71e5d5]
link Board to Cell--><g id="link_Board_Cell"><path codeLine="80" d="M455.1724,487.7905 C455.1724,487.7905 465.83,526.61 469.5,545 C486.19,628.66 495.26,726.89 499.75,789.28 " fill="none" id="Board-Cell" style="stroke:#181818;stroke-width:1.0;"/><polygon fill="#181818" points="500.66,802.41,504.0275,793.1547,500.3139,797.422,496.0466,793.7085,500.66,802.41" style="stroke:#181818;stroke-width:1.0;"/><line style="stroke:#181818;stroke-width:1.0;" x1="500.3139" x2="499.76" y1="797.422" y2="789.445"/><polygon fill="#181818" points="451.78,476.28,449.6394,483.1661,455.1724,487.7905,457.313,480.9044,451.78,476.28" style="stroke:#181818;stroke-width:1.0;"/><text fill="#000000" font-family="sans-serif" font-size="13" lengthAdjust="spacing" textLength="36" x="502.7919" y="791.7027">0..6x7</text></g><!--MD5=[fce0ecac75e8c80d670912ff12805e20]
link Cell to Token--><g id="link_Cell_Token"><path codeLine="81" d="M503.0909,915.5297 C503.0909,915.5297 502.84,952.48 502.74,967.83 " fill="none" id="Cell-Token" style="stroke:#181818;stroke-width:1.0;"/><polygon fill="#181818" points="502.65,980.98,506.7093,972.0066,502.683,975.9801,498.7094,971.9538,502.65,980.98" style="stroke:#181818;stroke-width:1.0;"/><line style="stroke:#181818;stroke-width:1.0;" x1="502.683" x2="502.74" y1="975.9801" y2="967.98"/><polygon fill="none" points="503.17,903.53,499.1305,909.5035,503.0909,915.5297,507.1304,909.5562,503.17,903.53" style="stroke:#181818;stroke-width:1.0;"/><text fill="#000000" font-family="sans-serif" font-size="13" lengthAdjust="spacing" textLength="7" x="494.7916" y="970.315">1</text></g><!--MD5=[a0e846b7a98644cf77e9991b48794239]
@startuml Connect4
class Connect4 {
}

class Turn {
}

class Direction {
    {static} +NORT
    {static} +NORT_EAST
    {static} +EAST
    {static} +SOUTH_EAST
    {static} +SOUTH
    {static} +SOUTH_WEST
    {static} +WEST
    {static} +NORT_WEST
}

class Board{
    -GRID:Array
    +getGrid()
    +putToken()
    +connectCell(Cell cell)
}
class GameView {
}
class PlayerView {
}
class BoardView {
    +show()
}
class Player {
    -color
    +getToken()
    +getColor()
    {abstract} +getSelectedColumn()
}
class UserPlayer {
    +getSelectedColumn()
}
class BotPlayer {
    +getSelectedColumn()
}
class Cell {
    -token
    +getToken()
    +setToken()
}
class Coordinate {
    +getShifted()
    +getCol()
    +setCol()
    +getRow()
    +setRow()
}
class Token
class Color{
}
class Connect4Line {
    +isConnet4()
}

Connect4 *- -> "1" GameView
Connect4 - -> "1" Turn
GameView - -> "1" Turn
GameView *- -> "2" PlayerView
GameView *- -> "1" BoardView
PlayerView *- -> "1" Player
BoardView *- -> "1" Board
Connect4Line *- -> "1..4" Cell
Board - -> Connect4Line
Board ..> Direction
Token *- -> "1" Color
PlayerView ..> "1" Board
Player ..> "0..21" Token
Player ..> "1"Color
Player <|- - UserPlayer
Player <|- - BotPlayer
Coordinate <|- - Cell
Coordinate ..> Direction
Board *- - -> "0..6x7" Cell
Cell o- -> "1" Token
@enduml

PlantUML version 1.2022.7(Mon Aug 22 11:01:30 GMT-06:00 2022)
(GPL source distribution)
Java Runtime: OpenJDK Runtime Environment
JVM: OpenJDK 64-Bit Server VM
Default Encoding: Cp1252
Language: es
Country: MX
--></g></svg>