<?xml version="1.0" encoding="UTF-8" standalone="no"?><svg xmlns="http://www.w3.org/2000/svg" xmlns:xlink="http://www.w3.org/1999/xlink" contentStyleType="text/css" height="942px" preserveAspectRatio="none" style="width:474px;height:942px;background:#FFFFFF;" version="1.1" viewBox="0 0 474 942" width="474px" zoomAndPan="magnify"><defs/><g><!--MD5=[10b1f240992e2c34b6908209bf85bfd2]
class Connect4--><g id="elem_Connect4"><rect codeLine="1" fill="#F1F1F1" height="48" id="Connect4" rx="2.5" ry="2.5" style="stroke:#181818;stroke-width:0.5;" width="93" x="78" y="7"/><ellipse cx="93" cy="23" fill="#ADD1B2" rx="11" ry="11" style="stroke:#181818;stroke-width:1.0;"/><path d="M95.7656,18.875 Q95.9219,18.6563 96.1094,18.5469 Q96.2969,18.4375 96.5156,18.4375 Q96.8906,18.4375 97.125,18.7031 Q97.3594,18.9531 97.3594,19.5625 L97.3594,21.0156 Q97.3594,21.625 97.125,21.8906 Q96.8906,22.1563 96.5156,22.1563 Q96.1719,22.1563 95.9688,21.9531 Q95.7656,21.7656 95.6563,21.25 Q95.6094,20.8906 95.4219,20.7031 Q95.0938,20.3281 94.4844,20.1094 Q93.875,19.8906 93.25,19.8906 Q92.4844,19.8906 91.8438,20.2188 Q91.2188,20.5469 90.7188,21.2969 Q90.2344,22.0469 90.2344,23.0781 L90.2344,24.1719 Q90.2344,25.4063 91.125,26.2344 Q92.0156,27.0469 93.6094,27.0469 Q94.5469,27.0469 95.2031,26.7969 Q95.5938,26.6406 96.0156,26.2031 Q96.2813,25.9375 96.4219,25.8594 Q96.5781,25.7813 96.7813,25.7813 Q97.1094,25.7813 97.3594,26.0469 Q97.625,26.2969 97.625,26.6406 Q97.625,26.9844 97.2813,27.3906 Q96.7813,27.9688 95.9844,28.2969 Q94.9063,28.75 93.6094,28.75 Q92.0938,28.75 90.8906,28.125 Q89.9063,27.625 89.2188,26.5625 Q88.5313,25.4844 88.5313,24.2031 L88.5313,23.0469 Q88.5313,21.7188 89.1406,20.5781 Q89.7656,19.4219 90.8594,18.8125 Q91.9531,18.1875 93.1875,18.1875 Q93.9219,18.1875 94.5625,18.3594 Q95.2188,18.5156 95.7656,18.875 Z " fill="#000000"/><text fill="#000000" font-family="sans-serif" font-size="14" lengthAdjust="spacing" textLength="61" x="107" y="28.7285">Connect4</text><line style="stroke:#181818;stroke-width:0.5;" x1="79" x2="170" y1="39" y2="39"/><line style="stroke:#181818;stroke-width:0.5;" x1="79" x2="170" y1="47" y2="47"/></g><!--MD5=[02f7077ed79257124e28b791f351f1d7]
class Direction--><g id="elem_Direction"><rect codeLine="3" fill="#F1F1F1" height="48" id="Direction" rx="2.5" ry="2.5" style="stroke:#181818;stroke-width:0.5;" width="88" x="324.5" y="510"/><ellipse cx="339.5" cy="526" fill="#ADD1B2" rx="11" ry="11" style="stroke:#181818;stroke-width:1.0;"/><path d="M342.2656,521.875 Q342.4219,521.6563 342.6094,521.5469 Q342.7969,521.4375 343.0156,521.4375 Q343.3906,521.4375 343.625,521.7031 Q343.8594,521.9531 343.8594,522.5625 L343.8594,524.0156 Q343.8594,524.625 343.625,524.8906 Q343.3906,525.1563 343.0156,525.1563 Q342.6719,525.1563 342.4688,524.9531 Q342.2656,524.7656 342.1563,524.25 Q342.1094,523.8906 341.9219,523.7031 Q341.5938,523.3281 340.9844,523.1094 Q340.375,522.8906 339.75,522.8906 Q338.9844,522.8906 338.3438,523.2188 Q337.7188,523.5469 337.2188,524.2969 Q336.7344,525.0469 336.7344,526.0781 L336.7344,527.1719 Q336.7344,528.4063 337.625,529.2344 Q338.5156,530.0469 340.1094,530.0469 Q341.0469,530.0469 341.7031,529.7969 Q342.0938,529.6406 342.5156,529.2031 Q342.7813,528.9375 342.9219,528.8594 Q343.0781,528.7813 343.2813,528.7813 Q343.6094,528.7813 343.8594,529.0469 Q344.125,529.2969 344.125,529.6406 Q344.125,529.9844 343.7813,530.3906 Q343.2813,530.9688 342.4844,531.2969 Q341.4063,531.75 340.1094,531.75 Q338.5938,531.75 337.3906,531.125 Q336.4063,530.625 335.7188,529.5625 Q335.0313,528.4844 335.0313,527.2031 L335.0313,526.0469 Q335.0313,524.7188 335.6406,523.5781 Q336.2656,522.4219 337.3594,521.8125 Q338.4531,521.1875 339.6875,521.1875 Q340.4219,521.1875 341.0625,521.3594 Q341.7188,521.5156 342.2656,521.875 Z " fill="#000000"/><text fill="#000000" font-family="sans-serif" font-size="14" lengthAdjust="spacing" textLength="56" x="353.5" y="531.7285">Direction</text><line style="stroke:#181818;stroke-width:0.5;" x1="325.5" x2="411.5" y1="542" y2="542"/><line style="stroke:#181818;stroke-width:0.5;" x1="325.5" x2="411.5" y1="550" y2="550"/></g><!--MD5=[9563755d011c5cec7ec66dc53565a59e]
class Board--><g id="elem_Board"><rect codeLine="5" fill="#F1F1F1" height="100.8281" id="Board" rx="2.5" ry="2.5" style="stroke:#181818;stroke-width:0.5;" width="98" x="156.5" y="349"/><ellipse cx="184.1" cy="365" fill="#ADD1B2" rx="11" ry="11" style="stroke:#181818;stroke-width:1.0;"/><path d="M186.8656,360.875 Q187.0219,360.6563 187.2094,360.5469 Q187.3969,360.4375 187.6156,360.4375 Q187.9906,360.4375 188.225,360.7031 Q188.4594,360.9531 188.4594,361.5625 L188.4594,363.0156 Q188.4594,363.625 188.225,363.8906 Q187.9906,364.1563 187.6156,364.1563 Q187.2719,364.1563 187.0688,363.9531 Q186.8656,363.7656 186.7563,363.25 Q186.7094,362.8906 186.5219,362.7031 Q186.1938,362.3281 185.5844,362.1094 Q184.975,361.8906 184.35,361.8906 Q183.5844,361.8906 182.9438,362.2188 Q182.3188,362.5469 181.8188,363.2969 Q181.3344,364.0469 181.3344,365.0781 L181.3344,366.1719 Q181.3344,367.4063 182.225,368.2344 Q183.1156,369.0469 184.7094,369.0469 Q185.6469,369.0469 186.3031,368.7969 Q186.6938,368.6406 187.1156,368.2031 Q187.3813,367.9375 187.5219,367.8594 Q187.6781,367.7813 187.8813,367.7813 Q188.2094,367.7813 188.4594,368.0469 Q188.725,368.2969 188.725,368.6406 Q188.725,368.9844 188.3813,369.3906 Q187.8813,369.9688 187.0844,370.2969 Q186.0063,370.75 184.7094,370.75 Q183.1938,370.75 181.9906,370.125 Q181.0063,369.625 180.3188,368.5625 Q179.6313,367.4844 179.6313,366.2031 L179.6313,365.0469 Q179.6313,363.7188 180.2406,362.5781 Q180.8656,361.4219 181.9594,360.8125 Q183.0531,360.1875 184.2875,360.1875 Q185.0219,360.1875 185.6625,360.3594 Q186.3188,360.5156 186.8656,360.875 Z " fill="#000000"/><text fill="#000000" font-family="sans-serif" font-size="14" lengthAdjust="spacing" textLength="38" x="200.9" y="370.7285">Board</text><line style="stroke:#181818;stroke-width:0.5;" x1="157.5" x2="253.5" y1="381" y2="381"/><rect fill="none" height="6" style="stroke:#C82930;stroke-width:1.0;" width="6" x="164.5" y="392.3047"/><text fill="#000000" font-family="sans-serif" font-size="14" lengthAdjust="spacing" textLength="72" x="176.5" y="399.5332">GRID:Array</text><line style="stroke:#181818;stroke-width:0.5;" x1="157.5" x2="253.5" y1="406.6094" y2="406.6094"/><text fill="#000000" font-family="sans-serif" font-size="14" lengthAdjust="spacing" textLength="57" x="162.5" y="425.1426">getGrid()</text><text fill="#000000" font-family="sans-serif" font-size="14" lengthAdjust="spacing" textLength="70" x="162.5" y="442.752">putToken()</text></g><!--MD5=[5d3822d29342fbd355d1b65ea3562ec9]
class GameView--><g id="elem_GameView"><rect codeLine="10" fill="#F1F1F1" height="48" id="GameView" rx="2.5" ry="2.5" style="stroke:#181818;stroke-width:0.5;" width="99" x="75" y="115"/><ellipse cx="90" cy="131" fill="#ADD1B2" rx="11" ry="11" style="stroke:#181818;stroke-width:1.0;"/><path d="M92.7656,126.875 Q92.9219,126.6563 93.1094,126.5469 Q93.2969,126.4375 93.5156,126.4375 Q93.8906,126.4375 94.125,126.7031 Q94.3594,126.9531 94.3594,127.5625 L94.3594,129.0156 Q94.3594,129.625 94.125,129.8906 Q93.8906,130.1563 93.5156,130.1563 Q93.1719,130.1563 92.9688,129.9531 Q92.7656,129.7656 92.6563,129.25 Q92.6094,128.8906 92.4219,128.7031 Q92.0938,128.3281 91.4844,128.1094 Q90.875,127.8906 90.25,127.8906 Q89.4844,127.8906 88.8438,128.2188 Q88.2188,128.5469 87.7188,129.2969 Q87.2344,130.0469 87.2344,131.0781 L87.2344,132.1719 Q87.2344,133.4063 88.125,134.2344 Q89.0156,135.0469 90.6094,135.0469 Q91.5469,135.0469 92.2031,134.7969 Q92.5938,134.6406 93.0156,134.2031 Q93.2813,133.9375 93.4219,133.8594 Q93.5781,133.7813 93.7813,133.7813 Q94.1094,133.7813 94.3594,134.0469 Q94.625,134.2969 94.625,134.6406 Q94.625,134.9844 94.2813,135.3906 Q93.7813,135.9688 92.9844,136.2969 Q91.9063,136.75 90.6094,136.75 Q89.0938,136.75 87.8906,136.125 Q86.9063,135.625 86.2188,134.5625 Q85.5313,133.4844 85.5313,132.2031 L85.5313,131.0469 Q85.5313,129.7188 86.1406,128.5781 Q86.7656,127.4219 87.8594,126.8125 Q88.9531,126.1875 90.1875,126.1875 Q90.9219,126.1875 91.5625,126.3594 Q92.2188,126.5156 92.7656,126.875 Z " fill="#000000"/><text fill="#000000" font-family="sans-serif" font-size="14" lengthAdjust="spacing" textLength="67" x="104" y="136.7285">GameView</text><line style="stroke:#181818;stroke-width:0.5;" x1="76" x2="173" y1="147" y2="147"/><line style="stroke:#181818;stroke-width:0.5;" x1="76" x2="173" y1="155" y2="155"/></g><!--MD5=[af194e474b2c37e443a340884399de77]
class PlayerView--><g id="elem_PlayerView"><rect codeLine="12" fill="#F1F1F1" height="48" id="PlayerView" rx="2.5" ry="2.5" style="stroke:#181818;stroke-width:0.5;" width="101" x="7" y="232"/><ellipse cx="22" cy="248" fill="#ADD1B2" rx="11" ry="11" style="stroke:#181818;stroke-width:1.0;"/><path d="M24.7656,243.875 Q24.9219,243.6563 25.1094,243.5469 Q25.2969,243.4375 25.5156,243.4375 Q25.8906,243.4375 26.125,243.7031 Q26.3594,243.9531 26.3594,244.5625 L26.3594,246.0156 Q26.3594,246.625 26.125,246.8906 Q25.8906,247.1563 25.5156,247.1563 Q25.1719,247.1563 24.9688,246.9531 Q24.7656,246.7656 24.6563,246.25 Q24.6094,245.8906 24.4219,245.7031 Q24.0938,245.3281 23.4844,245.1094 Q22.875,244.8906 22.25,244.8906 Q21.4844,244.8906 20.8438,245.2188 Q20.2188,245.5469 19.7188,246.2969 Q19.2344,247.0469 19.2344,248.0781 L19.2344,249.1719 Q19.2344,250.4063 20.125,251.2344 Q21.0156,252.0469 22.6094,252.0469 Q23.5469,252.0469 24.2031,251.7969 Q24.5938,251.6406 25.0156,251.2031 Q25.2813,250.9375 25.4219,250.8594 Q25.5781,250.7813 25.7813,250.7813 Q26.1094,250.7813 26.3594,251.0469 Q26.625,251.2969 26.625,251.6406 Q26.625,251.9844 26.2813,252.3906 Q25.7813,252.9688 24.9844,253.2969 Q23.9063,253.75 22.6094,253.75 Q21.0938,253.75 19.8906,253.125 Q18.9063,252.625 18.2188,251.5625 Q17.5313,250.4844 17.5313,249.2031 L17.5313,248.0469 Q17.5313,246.7188 18.1406,245.5781 Q18.7656,244.4219 19.8594,243.8125 Q20.9531,243.1875 22.1875,243.1875 Q22.9219,243.1875 23.5625,243.3594 Q24.2188,243.5156 24.7656,243.875 Z " fill="#000000"/><text fill="#000000" font-family="sans-serif" font-size="14" lengthAdjust="spacing" textLength="69" x="36" y="253.7285">PlayerView</text><line style="stroke:#181818;stroke-width:0.5;" x1="8" x2="107" y1="264" y2="264"/><line style="stroke:#181818;stroke-width:0.5;" x1="8" x2="107" y1="272" y2="272"/></g><!--MD5=[9b237e88d697a058bd530d6510c96c00]
class BoardView--><g id="elem_BoardView"><rect codeLine="14" fill="#F1F1F1" height="65.6094" id="BoardView" rx="2.5" ry="2.5" style="stroke:#181818;stroke-width:0.5;" width="99" x="149" y="223"/><ellipse cx="164" cy="239" fill="#ADD1B2" rx="11" ry="11" style="stroke:#181818;stroke-width:1.0;"/><path d="M166.7656,234.875 Q166.9219,234.6563 167.1094,234.5469 Q167.2969,234.4375 167.5156,234.4375 Q167.8906,234.4375 168.125,234.7031 Q168.3594,234.9531 168.3594,235.5625 L168.3594,237.0156 Q168.3594,237.625 168.125,237.8906 Q167.8906,238.1563 167.5156,238.1563 Q167.1719,238.1563 166.9688,237.9531 Q166.7656,237.7656 166.6563,237.25 Q166.6094,236.8906 166.4219,236.7031 Q166.0938,236.3281 165.4844,236.1094 Q164.875,235.8906 164.25,235.8906 Q163.4844,235.8906 162.8438,236.2188 Q162.2188,236.5469 161.7188,237.2969 Q161.2344,238.0469 161.2344,239.0781 L161.2344,240.1719 Q161.2344,241.4063 162.125,242.2344 Q163.0156,243.0469 164.6094,243.0469 Q165.5469,243.0469 166.2031,242.7969 Q166.5938,242.6406 167.0156,242.2031 Q167.2813,241.9375 167.4219,241.8594 Q167.5781,241.7813 167.7813,241.7813 Q168.1094,241.7813 168.3594,242.0469 Q168.625,242.2969 168.625,242.6406 Q168.625,242.9844 168.2813,243.3906 Q167.7813,243.9688 166.9844,244.2969 Q165.9063,244.75 164.6094,244.75 Q163.0938,244.75 161.8906,244.125 Q160.9063,243.625 160.2188,242.5625 Q159.5313,241.4844 159.5313,240.2031 L159.5313,239.0469 Q159.5313,237.7188 160.1406,236.5781 Q160.7656,235.4219 161.8594,234.8125 Q162.9531,234.1875 164.1875,234.1875 Q164.9219,234.1875 165.5625,234.3594 Q166.2188,234.5156 166.7656,234.875 Z " fill="#000000"/><text fill="#000000" font-family="sans-serif" font-size="14" lengthAdjust="spacing" textLength="67" x="178" y="244.7285">BoardView</text><line style="stroke:#181818;stroke-width:0.5;" x1="150" x2="247" y1="255" y2="255"/><line style="stroke:#181818;stroke-width:0.5;" x1="150" x2="247" y1="263" y2="263"/><text fill="#000000" font-family="sans-serif" font-size="14" lengthAdjust="spacing" textLength="42" x="155" y="281.5332">show()</text></g><!--MD5=[2cb47ba637a0d19583e6199456f6ad0b]
class Player--><g id="elem_Player"><rect codeLine="17" fill="#F1F1F1" height="100.8281" id="Player" rx="2.5" ry="2.5" style="stroke:#181818;stroke-width:0.5;" width="82" x="37.5" y="618"/><ellipse cx="57" cy="634" fill="#ADD1B2" rx="11" ry="11" style="stroke:#181818;stroke-width:1.0;"/><path d="M59.7656,629.875 Q59.9219,629.6563 60.1094,629.5469 Q60.2969,629.4375 60.5156,629.4375 Q60.8906,629.4375 61.125,629.7031 Q61.3594,629.9531 61.3594,630.5625 L61.3594,632.0156 Q61.3594,632.625 61.125,632.8906 Q60.8906,633.1563 60.5156,633.1563 Q60.1719,633.1563 59.9688,632.9531 Q59.7656,632.7656 59.6563,632.25 Q59.6094,631.8906 59.4219,631.7031 Q59.0938,631.3281 58.4844,631.1094 Q57.875,630.8906 57.25,630.8906 Q56.4844,630.8906 55.8438,631.2188 Q55.2188,631.5469 54.7188,632.2969 Q54.2344,633.0469 54.2344,634.0781 L54.2344,635.1719 Q54.2344,636.4063 55.125,637.2344 Q56.0156,638.0469 57.6094,638.0469 Q58.5469,638.0469 59.2031,637.7969 Q59.5938,637.6406 60.0156,637.2031 Q60.2813,636.9375 60.4219,636.8594 Q60.5781,636.7813 60.7813,636.7813 Q61.1094,636.7813 61.3594,637.0469 Q61.625,637.2969 61.625,637.6406 Q61.625,637.9844 61.2813,638.3906 Q60.7813,638.9688 59.9844,639.2969 Q58.9063,639.75 57.6094,639.75 Q56.0938,639.75 54.8906,639.125 Q53.9063,638.625 53.2188,637.5625 Q52.5313,636.4844 52.5313,635.2031 L52.5313,634.0469 Q52.5313,632.7188 53.1406,631.5781 Q53.7656,630.4219 54.8594,629.8125 Q55.9531,629.1875 57.1875,629.1875 Q57.9219,629.1875 58.5625,629.3594 Q59.2188,629.5156 59.7656,629.875 Z " fill="#000000"/><text fill="#000000" font-family="sans-serif" font-size="14" lengthAdjust="spacing" textLength="40" x="72" y="639.7285">Player</text><line style="stroke:#181818;stroke-width:0.5;" x1="38.5" x2="118.5" y1="650" y2="650"/><rect fill="none" height="6" style="stroke:#C82930;stroke-width:1.0;" width="6" x="45.5" y="661.3047"/><text fill="#000000" font-family="sans-serif" font-size="14" lengthAdjust="spacing" textLength="31" x="57.5" y="668.5332">color</text><line style="stroke:#181818;stroke-width:0.5;" x1="38.5" x2="118.5" y1="675.6094" y2="675.6094"/><text fill="#000000" font-family="sans-serif" font-size="14" lengthAdjust="spacing" textLength="70" x="43.5" y="694.1426">getToken()</text><text fill="#000000" font-family="sans-serif" font-size="14" lengthAdjust="spacing" textLength="64" x="43.5" y="711.752">getColor()</text></g><!--MD5=[fea3dc74c7473bae0133d22265a91e2f]
class Cell--><g id="elem_Cell"><rect codeLine="22" fill="#F1F1F1" height="100.8281" id="Cell" rx="2.5" ry="2.5" style="stroke:#181818;stroke-width:0.5;" width="82" x="171.5" y="618"/><ellipse cx="198.2" cy="634" fill="#ADD1B2" rx="11" ry="11" style="stroke:#181818;stroke-width:1.0;"/><path d="M200.9656,629.875 Q201.1219,629.6563 201.3094,629.5469 Q201.4969,629.4375 201.7156,629.4375 Q202.0906,629.4375 202.325,629.7031 Q202.5594,629.9531 202.5594,630.5625 L202.5594,632.0156 Q202.5594,632.625 202.325,632.8906 Q202.0906,633.1563 201.7156,633.1563 Q201.3719,633.1563 201.1688,632.9531 Q200.9656,632.7656 200.8563,632.25 Q200.8094,631.8906 200.6219,631.7031 Q200.2938,631.3281 199.6844,631.1094 Q199.075,630.8906 198.45,630.8906 Q197.6844,630.8906 197.0438,631.2188 Q196.4188,631.5469 195.9188,632.2969 Q195.4344,633.0469 195.4344,634.0781 L195.4344,635.1719 Q195.4344,636.4063 196.325,637.2344 Q197.2156,638.0469 198.8094,638.0469 Q199.7469,638.0469 200.4031,637.7969 Q200.7938,637.6406 201.2156,637.2031 Q201.4813,636.9375 201.6219,636.8594 Q201.7781,636.7813 201.9813,636.7813 Q202.3094,636.7813 202.5594,637.0469 Q202.825,637.2969 202.825,637.6406 Q202.825,637.9844 202.4813,638.3906 Q201.9813,638.9688 201.1844,639.2969 Q200.1063,639.75 198.8094,639.75 Q197.2938,639.75 196.0906,639.125 Q195.1063,638.625 194.4188,637.5625 Q193.7313,636.4844 193.7313,635.2031 L193.7313,634.0469 Q193.7313,632.7188 194.3406,631.5781 Q194.9656,630.4219 196.0594,629.8125 Q197.1531,629.1875 198.3875,629.1875 Q199.1219,629.1875 199.7625,629.3594 Q200.4188,629.5156 200.9656,629.875 Z " fill="#000000"/><text fill="#000000" font-family="sans-serif" font-size="14" lengthAdjust="spacing" textLength="24" x="214.8" y="639.7285">Cell</text><line style="stroke:#181818;stroke-width:0.5;" x1="172.5" x2="252.5" y1="650" y2="650"/><rect fill="none" height="6" style="stroke:#C82930;stroke-width:1.0;" width="6" x="179.5" y="661.3047"/><text fill="#000000" font-family="sans-serif" font-size="14" lengthAdjust="spacing" textLength="35" x="191.5" y="668.5332">token</text><line style="stroke:#181818;stroke-width:0.5;" x1="172.5" x2="252.5" y1="675.6094" y2="675.6094"/><text fill="#000000" font-family="sans-serif" font-size="14" lengthAdjust="spacing" textLength="70" x="177.5" y="694.1426">getToken()</text><text fill="#000000" font-family="sans-serif" font-size="14" lengthAdjust="spacing" textLength="69" x="177.5" y="711.752">setToken()</text></g><!--MD5=[8c7d7abc12e214c3cc12c9ab70edee11]
class Coordinate--><g id="elem_Coordinate"><rect codeLine="27" fill="#F1F1F1" height="48" id="Coordinate" rx="2.5" ry="2.5" style="stroke:#181818;stroke-width:0.5;" width="102" x="365.5" y="375.5"/><ellipse cx="380.5" cy="391.5" fill="#ADD1B2" rx="11" ry="11" style="stroke:#181818;stroke-width:1.0;"/><path d="M383.2656,387.375 Q383.4219,387.1563 383.6094,387.0469 Q383.7969,386.9375 384.0156,386.9375 Q384.3906,386.9375 384.625,387.2031 Q384.8594,387.4531 384.8594,388.0625 L384.8594,389.5156 Q384.8594,390.125 384.625,390.3906 Q384.3906,390.6563 384.0156,390.6563 Q383.6719,390.6563 383.4688,390.4531 Q383.2656,390.2656 383.1563,389.75 Q383.1094,389.3906 382.9219,389.2031 Q382.5938,388.8281 381.9844,388.6094 Q381.375,388.3906 380.75,388.3906 Q379.9844,388.3906 379.3438,388.7188 Q378.7188,389.0469 378.2188,389.7969 Q377.7344,390.5469 377.7344,391.5781 L377.7344,392.6719 Q377.7344,393.9063 378.625,394.7344 Q379.5156,395.5469 381.1094,395.5469 Q382.0469,395.5469 382.7031,395.2969 Q383.0938,395.1406 383.5156,394.7031 Q383.7813,394.4375 383.9219,394.3594 Q384.0781,394.2813 384.2813,394.2813 Q384.6094,394.2813 384.8594,394.5469 Q385.125,394.7969 385.125,395.1406 Q385.125,395.4844 384.7813,395.8906 Q384.2813,396.4688 383.4844,396.7969 Q382.4063,397.25 381.1094,397.25 Q379.5938,397.25 378.3906,396.625 Q377.4063,396.125 376.7188,395.0625 Q376.0313,393.9844 376.0313,392.7031 L376.0313,391.5469 Q376.0313,390.2188 376.6406,389.0781 Q377.2656,387.9219 378.3594,387.3125 Q379.4531,386.6875 380.6875,386.6875 Q381.4219,386.6875 382.0625,386.8594 Q382.7188,387.0156 383.2656,387.375 Z " fill="#000000"/><text fill="#000000" font-family="sans-serif" font-size="14" lengthAdjust="spacing" textLength="70" x="394.5" y="397.2285">Coordinate</text><line style="stroke:#181818;stroke-width:0.5;" x1="366.5" x2="466.5" y1="407.5" y2="407.5"/><line style="stroke:#181818;stroke-width:0.5;" x1="366.5" x2="466.5" y1="415.5" y2="415.5"/></g><!--MD5=[d8c8cfd5ca149094f5b67f9f607a5ec7]
class Token--><g id="elem_Token"><rect codeLine="28" fill="#F1F1F1" height="48" id="Token" rx="2.5" ry="2.5" style="stroke:#181818;stroke-width:0.5;" width="72" x="131.5" y="779"/><ellipse cx="146.5" cy="795" fill="#ADD1B2" rx="11" ry="11" style="stroke:#181818;stroke-width:1.0;"/><path d="M149.2656,790.875 Q149.4219,790.6563 149.6094,790.5469 Q149.7969,790.4375 150.0156,790.4375 Q150.3906,790.4375 150.625,790.7031 Q150.8594,790.9531 150.8594,791.5625 L150.8594,793.0156 Q150.8594,793.625 150.625,793.8906 Q150.3906,794.1563 150.0156,794.1563 Q149.6719,794.1563 149.4688,793.9531 Q149.2656,793.7656 149.1563,793.25 Q149.1094,792.8906 148.9219,792.7031 Q148.5938,792.3281 147.9844,792.1094 Q147.375,791.8906 146.75,791.8906 Q145.9844,791.8906 145.3438,792.2188 Q144.7188,792.5469 144.2188,793.2969 Q143.7344,794.0469 143.7344,795.0781 L143.7344,796.1719 Q143.7344,797.4063 144.625,798.2344 Q145.5156,799.0469 147.1094,799.0469 Q148.0469,799.0469 148.7031,798.7969 Q149.0938,798.6406 149.5156,798.2031 Q149.7813,797.9375 149.9219,797.8594 Q150.0781,797.7813 150.2813,797.7813 Q150.6094,797.7813 150.8594,798.0469 Q151.125,798.2969 151.125,798.6406 Q151.125,798.9844 150.7813,799.3906 Q150.2813,799.9688 149.4844,800.2969 Q148.4063,800.75 147.1094,800.75 Q145.5938,800.75 144.3906,800.125 Q143.4063,799.625 142.7188,798.5625 Q142.0313,797.4844 142.0313,796.2031 L142.0313,795.0469 Q142.0313,793.7188 142.6406,792.5781 Q143.2656,791.4219 144.3594,790.8125 Q145.4531,790.1875 146.6875,790.1875 Q147.4219,790.1875 148.0625,790.3594 Q148.7188,790.5156 149.2656,790.875 Z " fill="#000000"/><text fill="#000000" font-family="sans-serif" font-size="14" lengthAdjust="spacing" textLength="40" x="160.5" y="800.7285">Token</text><line style="stroke:#181818;stroke-width:0.5;" x1="132.5" x2="202.5" y1="811" y2="811"/><line style="stroke:#181818;stroke-width:0.5;" x1="132.5" x2="202.5" y1="819" y2="819"/></g><!--MD5=[18eee71c88ab61f27581b8cbdd3ef5ee]
class Color--><g id="elem_Color"><rect codeLine="29" fill="#F1F1F1" height="48" id="Color" rx="2.5" ry="2.5" style="stroke:#181818;stroke-width:0.5;" width="66" x="89.5" y="887"/><ellipse cx="104.5" cy="903" fill="#ADD1B2" rx="11" ry="11" style="stroke:#181818;stroke-width:1.0;"/><path d="M107.2656,898.875 Q107.4219,898.6563 107.6094,898.5469 Q107.7969,898.4375 108.0156,898.4375 Q108.3906,898.4375 108.625,898.7031 Q108.8594,898.9531 108.8594,899.5625 L108.8594,901.0156 Q108.8594,901.625 108.625,901.8906 Q108.3906,902.1563 108.0156,902.1563 Q107.6719,902.1563 107.4688,901.9531 Q107.2656,901.7656 107.1563,901.25 Q107.1094,900.8906 106.9219,900.7031 Q106.5938,900.3281 105.9844,900.1094 Q105.375,899.8906 104.75,899.8906 Q103.9844,899.8906 103.3438,900.2188 Q102.7188,900.5469 102.2188,901.2969 Q101.7344,902.0469 101.7344,903.0781 L101.7344,904.1719 Q101.7344,905.4063 102.625,906.2344 Q103.5156,907.0469 105.1094,907.0469 Q106.0469,907.0469 106.7031,906.7969 Q107.0938,906.6406 107.5156,906.2031 Q107.7813,905.9375 107.9219,905.8594 Q108.0781,905.7813 108.2813,905.7813 Q108.6094,905.7813 108.8594,906.0469 Q109.125,906.2969 109.125,906.6406 Q109.125,906.9844 108.7813,907.3906 Q108.2813,907.9688 107.4844,908.2969 Q106.4063,908.75 105.1094,908.75 Q103.5938,908.75 102.3906,908.125 Q101.4063,907.625 100.7188,906.5625 Q100.0313,905.4844 100.0313,904.2031 L100.0313,903.0469 Q100.0313,901.7188 100.6406,900.5781 Q101.2656,899.4219 102.3594,898.8125 Q103.4531,898.1875 104.6875,898.1875 Q105.4219,898.1875 106.0625,898.3594 Q106.7188,898.5156 107.2656,898.875 Z " fill="#000000"/><text fill="#000000" font-family="sans-serif" font-size="14" lengthAdjust="spacing" textLength="34" x="118.5" y="908.7285">Color</text><line style="stroke:#181818;stroke-width:0.5;" x1="90.5" x2="154.5" y1="919" y2="919"/><line style="stroke:#181818;stroke-width:0.5;" x1="90.5" x2="154.5" y1="927" y2="927"/></g><!--MD5=[290869c0dc9090651d43d12b153728a8]
class Connect4Line--><g id="elem_Connect4Line"><rect codeLine="31" fill="#F1F1F1" height="48" id="Connect4Line" rx="2.5" ry="2.5" style="stroke:#181818;stroke-width:0.5;" width="120" x="169.5" y="510"/><ellipse cx="184.5" cy="526" fill="#ADD1B2" rx="11" ry="11" style="stroke:#181818;stroke-width:1.0;"/><path d="M187.2656,521.875 Q187.4219,521.6563 187.6094,521.5469 Q187.7969,521.4375 188.0156,521.4375 Q188.3906,521.4375 188.625,521.7031 Q188.8594,521.9531 188.8594,522.5625 L188.8594,524.0156 Q188.8594,524.625 188.625,524.8906 Q188.3906,525.1563 188.0156,525.1563 Q187.6719,525.1563 187.4688,524.9531 Q187.2656,524.7656 187.1563,524.25 Q187.1094,523.8906 186.9219,523.7031 Q186.5938,523.3281 185.9844,523.1094 Q185.375,522.8906 184.75,522.8906 Q183.9844,522.8906 183.3438,523.2188 Q182.7188,523.5469 182.2188,524.2969 Q181.7344,525.0469 181.7344,526.0781 L181.7344,527.1719 Q181.7344,528.4063 182.625,529.2344 Q183.5156,530.0469 185.1094,530.0469 Q186.0469,530.0469 186.7031,529.7969 Q187.0938,529.6406 187.5156,529.2031 Q187.7813,528.9375 187.9219,528.8594 Q188.0781,528.7813 188.2813,528.7813 Q188.6094,528.7813 188.8594,529.0469 Q189.125,529.2969 189.125,529.6406 Q189.125,529.9844 188.7813,530.3906 Q188.2813,530.9688 187.4844,531.2969 Q186.4063,531.75 185.1094,531.75 Q183.5938,531.75 182.3906,531.125 Q181.4063,530.625 180.7188,529.5625 Q180.0313,528.4844 180.0313,527.2031 L180.0313,526.0469 Q180.0313,524.7188 180.6406,523.5781 Q181.2656,522.4219 182.3594,521.8125 Q183.4531,521.1875 184.6875,521.1875 Q185.4219,521.1875 186.0625,521.3594 Q186.7188,521.5156 187.2656,521.875 Z " fill="#000000"/><text fill="#000000" font-family="sans-serif" font-size="14" lengthAdjust="spacing" textLength="88" x="198.5" y="531.7285">Connect4Line</text><line style="stroke:#181818;stroke-width:0.5;" x1="170.5" x2="288.5" y1="542" y2="542"/><line style="stroke:#181818;stroke-width:0.5;" x1="170.5" x2="288.5" y1="550" y2="550"/></g><!--MD5=[a91b94de6208628ae3e5edb2825872d9]
link Connect4 to GameView--><g id="link_Connect4_GameView"><path codeLine="33" d="M124.5,67 C124.5,67 124.5,90.68 124.5,101.36 " fill="none" id="Connect4-GameView" style="stroke:#181818;stroke-width:1.0;"/><polygon fill="#181818" points="124.5,114.68,128.5,105.68,124.5,109.68,120.5,105.68,124.5,114.68" style="stroke:#181818;stroke-width:1.0;"/><line style="stroke:#181818;stroke-width:1.0;" x1="124.5" x2="124.5" y1="109.68" y2="101.68"/><polygon fill="#181818" points="124.5,55,120.5,61,124.5,67,128.5,61,124.5,55" style="stroke:#181818;stroke-width:1.0;"/><text fill="#000000" font-family="sans-serif" font-size="13" lengthAdjust="spacing" textLength="7" x="116.6469" y="104.34">1</text></g><!--MD5=[5f024f8eb4a0ae83d9027afef1d98dd6]
link GameView to PlayerView--><g id="link_GameView_PlayerView"><path codeLine="34" d="M104.8886,173.6325 C104.8886,173.6325 86.12,205.88 77.72,220.29 " fill="none" id="GameView-PlayerView" style="stroke:#181818;stroke-width:1.0;"/><polygon fill="#181818" points="71.04,231.76,79.0272,225.9977,73.5573,227.4399,72.1151,221.97,71.04,231.76" style="stroke:#181818;stroke-width:1.0;"/><line style="stroke:#181818;stroke-width:1.0;" x1="73.5573" x2="77.58" y1="227.4399" y2="220.53"/><polygon fill="#181818" points="110.94,163.27,104.4602,166.4341,104.8886,173.6325,111.3685,170.4684,110.94,163.27" style="stroke:#181818;stroke-width:1.0;"/><text fill="#000000" font-family="sans-serif" font-size="13" lengthAdjust="spacing" textLength="7" x="66.6128" y="221.0387">2</text></g><!--MD5=[c2d12ea21a8ed9d7b07c5ed2223bb09d]
link GameView to BoardView--><g id="link_GameView_BoardView"><path codeLine="35" d="M145.9744,173.3607 C145.9744,173.3607 162.66,199.31 170.59,211.63 " fill="none" id="GameView-BoardView" style="stroke:#181818;stroke-width:1.0;"/><polygon fill="#181818" points="177.66,222.61,176.156,212.8767,174.9554,218.4046,169.4274,217.2041,177.66,222.61" style="stroke:#181818;stroke-width:1.0;"/><line style="stroke:#181818;stroke-width:1.0;" x1="174.9554" x2="170.625" y1="218.4046" y2="211.68"/><polygon fill="#181818" points="139.48,163.27,139.3636,170.4802,145.9744,173.3607,146.0908,166.1506,139.48,163.27" style="stroke:#181818;stroke-width:1.0;"/><text fill="#000000" font-family="sans-serif" font-size="13" lengthAdjust="spacing" textLength="7" x="165.8681" y="212.0295">1</text></g><!--MD5=[d7c49a2c67de04dd46fc6efbc83b34f6]
link PlayerView to Player--><g id="link_PlayerView_Player"><path codeLine="36" d="M59.2965,292.2347 C59.2965,292.2347 70.84,517.69 75.29,604.71 " fill="none" id="PlayerView-Player" style="stroke:#181818;stroke-width:1.0;"/><polygon fill="#181818" points="75.96,617.81,79.5,608.6193,75.7073,612.8164,71.5102,609.0237,75.96,617.81" style="stroke:#181818;stroke-width:1.0;"/><line style="stroke:#181818;stroke-width:1.0;" x1="75.7073" x2="75.295" y1="612.8164" y2="604.83"/><polygon fill="#181818" points="58.69,280.25,54.9984,286.4445,59.2965,292.2347,62.9881,286.0402,58.69,280.25" style="stroke:#181818;stroke-width:1.0;"/><text fill="#000000" font-family="sans-serif" font-size="13" lengthAdjust="spacing" textLength="7" x="68.1106" y="607.0886">1</text></g><!--MD5=[87ac28f7ff846e55e34c2c863c6ff220]
link BoardView to Board--><g id="link_BoardView_Board"><path codeLine="37" d="M200.6833,301.0953 C200.6833,301.0953 201.83,324.4 202.39,335.69 " fill="none" id="BoardView-Board" style="stroke:#181818;stroke-width:1.0;"/><polygon fill="#181818" points="203.04,348.75,206.5901,339.5632,202.7928,343.7561,198.5999,339.9588,203.04,348.75" style="stroke:#181818;stroke-width:1.0;"/><line style="stroke:#181818;stroke-width:1.0;" x1="202.7928" x2="202.395" y1="343.7561" y2="335.765"/><polygon fill="#181818" points="200.09,289.11,196.3916,295.3004,200.6833,301.0953,204.3818,294.9049,200.09,289.11" style="stroke:#181818;stroke-width:1.0;"/><text fill="#000000" font-family="sans-serif" font-size="13" lengthAdjust="spacing" textLength="7" x="195.2019" y="338.0202">1</text></g><!--MD5=[adaa5bc42748f6487e75f8b1802e217c]
link Connect4Line to Cell--><g id="link_Connect4Line_Cell"><path codeLine="38" d="M225.011,569.9822 C225.011,569.9822 222.03,593.24 220.54,604.84 " fill="none" id="Connect4Line-Cell" style="stroke:#181818;stroke-width:1.0;"/><polygon fill="#181818" points="218.88,617.8,223.9953,609.3837,219.5178,612.8408,216.0606,608.3633,218.88,617.8" style="stroke:#181818;stroke-width:1.0;"/><line style="stroke:#181818;stroke-width:1.0;" x1="219.5178" x2="220.53" y1="612.8408" y2="604.9"/><polygon fill="#181818" points="226.54,558.08,221.8081,563.5214,225.011,569.9822,229.7429,564.5408,226.54,558.08" style="stroke:#181818;stroke-width:1.0;"/><text fill="#000000" font-family="sans-serif" font-size="13" lengthAdjust="spacing" textLength="22" x="196.2303" y="607.0772">1..4</text></g><!--MD5=[ceaac0422dc14080f034737aa6d658e3]
link Board to Connect4Line--><g id="link_Board_Connect4Line"><path codeLine="39" d="M214.5,450.22 C217.83,468.56 221.48,488.7 224.34,504.53 " fill="none" id="Board-to-Connect4Line" style="stroke:#181818;stroke-width:1.0;"/><polygon fill="#181818" points="225.28,509.72,227.6202,500.1532,224.3931,504.7993,219.7471,501.5722,225.28,509.72" style="stroke:#181818;stroke-width:1.0;"/></g><!--MD5=[a676224b545de2f8b00c905b7798379b]
link Board to Direction--><g id="link_Board_Direction"><path codeLine="40" d="M254.85,440.61 C281.24,462.07 313,487.88 336.22,506.76 " fill="none" id="Board-to-Direction" style="stroke:#181818;stroke-width:1.0;"/><polygon fill="#181818" points="340.17,509.97,335.7232,501.1822,336.2951,506.81,330.6673,507.382,340.17,509.97" style="stroke:#181818;stroke-width:1.0;"/></g><!--MD5=[304335c530676c0c2555e056aeeb939b]
link Token to Color--><g id="link_Token_Color"><path codeLine="41" d="M153.0544,838.0474 C153.0544,838.0474 142.36,863.23 137.55,874.54 " fill="none" id="Token-Color" style="stroke:#181818;stroke-width:1.0;"/><polygon fill="#181818" points="132.4,886.68,139.6006,879.9605,134.355,882.078,132.2374,876.8325,132.4,886.68" style="stroke:#181818;stroke-width:1.0;"/><line style="stroke:#181818;stroke-width:1.0;" x1="134.355" x2="137.48" y1="882.078" y2="874.71"/><polygon fill="#181818" points="157.74,827,151.7147,830.9618,153.0544,838.0474,159.0797,834.0856,157.74,827" style="stroke:#181818;stroke-width:1.0;"/></g><!--MD5=[525e20984b3f0335f86e1ed389de5b3d]
link Player to Token--><g id="link_Player_Token"><path codeLine="42" d="M118.5799,729.1822 C118.5799,729.1822 136.89,756.43 144.59,767.9 " fill="none" id="Player-Token" style="stroke:#181818;stroke-width:1.0;"/><polygon fill="#181818" points="151.86,778.72,150.1545,769.0199,149.0688,774.5716,143.5171,773.4859,151.86,778.72" style="stroke:#181818;stroke-width:1.0;"/><line style="stroke:#181818;stroke-width:1.0;" x1="149.0688" x2="144.615" y1="774.5716" y2="767.93"/><polygon fill="none" points="111.89,719.22,111.9142,726.4311,118.5799,729.1822,118.5557,721.9712,111.89,719.22" style="stroke:#181818;stroke-width:1.0;"/><text fill="#000000" font-family="sans-serif" font-size="13" lengthAdjust="spacing" textLength="29" x="115.1366" y="767.9884">0..21</text></g><!--MD5=[ebf52a6f230ff8b0d594dd9ce4cd7c5b]
link Player to Color--><g id="link_Player_Color"><path codeLine="43" d="M87.56,719.04 C96.54,768.13 109.98,841.59 117.3,881.58 " fill="none" id="Player-to-Color" style="stroke:#181818;stroke-width:1.0;stroke-dasharray:7.0,7.0;"/><polygon fill="#181818" points="118.25,886.76,120.5633,877.1867,117.3493,881.8418,112.6941,878.6278,118.25,886.76" style="stroke:#181818;stroke-width:1.0;"/></g><!--MD5=[43768750d0920d3e29e022678001fe5b]
reverse link Coordinate to Cell--><g id="link_Coordinate_Cell"><path codeLine="45" d="M433.3,442.6 C443.84,476.3 451.8,523.46 430.5,558 C391.92,620.54 305.5,648.61 253.81,660.2 " fill="none" id="Coordinate-backto-Cell" style="stroke:#181818;stroke-width:1.0;"/><polygon fill="none" points="426.65,444.79,426.64,423.6,439.86,440.16,426.65,444.79" style="stroke:#181818;stroke-width:1.0;"/></g><!--MD5=[2ece631038b7899e5b9aaea57adaf24e]
link Coordinate to Direction--><g id="link_Coordinate_Direction"><path codeLine="46" d="M408.14,423.58 C399.96,446.15 387.5,480.55 378.74,504.74 " fill="none" id="Coordinate-to-Direction" style="stroke:#181818;stroke-width:1.0;"/><polygon fill="#181818" points="376.93,509.74,383.7718,502.6555,378.6433,505.0427,376.2561,499.9142,376.93,509.74" style="stroke:#181818;stroke-width:1.0;"/></g><!--MD5=[c148346f61f96d5968c9850ebe71e5d5]
link Board to Cell--><g id="link_Board_Cell"><path codeLine="47" d="M167.9321,461.0572 C167.9321,461.0572 144.3,525.96 152.5,558 C156.7,574.4 163.92,590.99 171.93,606.13 " fill="none" id="Board-Cell" style="stroke:#181818;stroke-width:1.0;"/><polygon fill="#181818" points="178.48,617.92,177.6174,608.109,176.0569,613.5464,170.6195,611.9859,178.48,617.92" style="stroke:#181818;stroke-width:1.0;"/><line style="stroke:#181818;stroke-width:1.0;" x1="176.0569" x2="172.17" y1="613.5464" y2="606.555"/><polygon fill="#181818" points="173.23,450.29,166.992,453.9076,167.9321,461.0572,174.1701,457.4396,173.23,450.29" style="stroke:#181818;stroke-width:1.0;"/><text fill="#000000" font-family="sans-serif" font-size="13" lengthAdjust="spacing" textLength="36" x="135.1647" y="607.2141">0..6x7</text></g><!--MD5=[fce0ecac75e8c80d670912ff12805e20]
link Cell to Token--><g id="link_Cell_Token"><path codeLine="48" d="M191.7541,730.5802 C191.7541,730.5802 183.28,755.53 179.68,766.12 " fill="none" id="Cell-Token" style="stroke:#181818;stroke-width:1.0;"/><polygon fill="#181818" points="175.41,778.72,182.0962,771.4885,177.0208,773.9866,174.5227,768.9112,175.41,778.72" style="stroke:#181818;stroke-width:1.0;"/><line style="stroke:#181818;stroke-width:1.0;" x1="177.0208" x2="179.585" y1="773.9866" y2="766.415"/><polygon fill="none" points="195.62,719.22,189.9003,723.6115,191.7541,730.5802,197.4738,726.1887,195.62,719.22" style="stroke:#181818;stroke-width:1.0;"/><text fill="#000000" font-family="sans-serif" font-size="13" lengthAdjust="spacing" textLength="7" x="169.5401" y="767.9884">1</text></g><!--MD5=[ed9a7dbf0fdf620913a144ba3ffa282e]
@startuml Connect4
class Connect4

class Direction

class Board{
    -GRID:Array
    getGrid()
    putToken()
}
class GameView {
}
class PlayerView {
}
class BoardView {
    show()
}
class Player {
    -color
    getToken()
    getColor()
}
class Cell {
    -token
    getToken()
    setToken()
}
class Coordinate
class Token
class Color{
}
class Connect4Line

Connect4 *- -> "1" GameView
GameView *- -> "2" PlayerView
GameView *- -> "1" BoardView
PlayerView *- -> "1" Player
BoardView *- -> "1" Board
Connect4Line *- -> "1..4" Cell
Board - -> Connect4Line
Board - -> Direction
Token *- -> Color
Player o- -> "0..21" Token
Player ..> Color

Coordinate <|- - Cell
Coordinate - -> Direction
Board *- - -> "0..6x7" Cell
Cell o- -> "1" Token
@enduml

PlantUML version 1.2022.7(Mon Aug 22 11:01:30 GMT-06:00 2022)
(GPL source distribution)
Java Runtime: OpenJDK Runtime Environment
JVM: OpenJDK 64-Bit Server VM
Default Encoding: Cp1252
Language: es
Country: MX
--></g></svg>